<?xml version="1.0" encoding="utf-8"?>
<!-- Generator: Adobe Illustrator 22.1.0, SVG Export Plug-In . SVG Version: 6.00 Build 0)  -->
<svg version="1.1" id="Graphics" xmlns="http://www.w3.org/2000/svg" xmlns:xlink="http://www.w3.org/1999/xlink" x="0px" y="0px"
	 viewBox="0 0 144 144" style="enable-background:new 0 0 144 144;" xml:space="preserve">
<style type="text/css">
	.st0{clip-path:url(#SVGID_2_);}
	.st1{fill:#3B3434;}
	.st2{opacity:0.9;}
	.st3{clip-path:url(#SVGID_4_);}
	.st4{opacity:0.9;fill:#3B3434;}
	.st5{fill:none;}
	.st6{fill:none;stroke:#3B3434;stroke-miterlimit:10;}
	.st7{fill:none;stroke:#3B3434;stroke-miterlimit:10;stroke-dasharray:2.0001,2.0001;}
	.st8{fill:none;stroke:#3B3434;stroke-miterlimit:10;stroke-dasharray:2.0599,2.0599;}
	.st9{fill:none;stroke:#3B3434;stroke-width:3;stroke-miterlimit:10;}
	.st10{fill:#939598;}
	.st11{fill:none;stroke:#3B3434;stroke-width:0.5;stroke-linecap:round;stroke-linejoin:round;stroke-miterlimit:500;}
	.st12{opacity:0.9;fill-rule:evenodd;clip-rule:evenodd;fill:#3B3434;}
	.st13{fill:none;stroke:#3B3434;stroke-width:2;stroke-miterlimit:10;}
	.st14{clip-path:url(#SVGID_8_);}
	.st15{opacity:0.9;fill:#C7C8CA;}
	.st16{opacity:0.9;fill:#939598;}
	.st17{fill:#231F20;}
	.st18{fill:#3B3534;}
	.st19{fill:#767374;}
	.st20{opacity:0.9;fill:#3B3534;}
	.st21{fill:none;stroke:#FFFFFF;stroke-miterlimit:10;}
	.st22{opacity:0.9;fill:#3B3534;enable-background:new    ;}
	.st23{fill:#3B3534;stroke:#3B3534;stroke-width:0.5;stroke-miterlimit:10;}
	.st24{fill:none;stroke:#3B3534;stroke-width:0.5;}
	.st25{fill:none;stroke:#3B3534;stroke-width:0.5;stroke-linecap:round;}
	.st26{fill-rule:evenodd;clip-rule:evenodd;fill:#3B3434;}
	.st27{fill:#FFFFFF;stroke:#3B3434;stroke-miterlimit:10;}
	.st28{fill:#FFFFFF;stroke:#3B3434;stroke-width:0.25;stroke-miterlimit:10;}
	.st29{fill-rule:evenodd;clip-rule:evenodd;fill:#EF4761;}
	.st30{fill-rule:evenodd;clip-rule:evenodd;fill:#EE365F;}
	.st31{fill-rule:evenodd;clip-rule:evenodd;fill:#D5769A;}
	.st32{fill-rule:evenodd;clip-rule:evenodd;fill:#EA395C;}
	.st33{fill:#FFFEF3;}
	.st34{fill:#E8E8E9;}
	.st35{fill:#D2CCCA;}
	.st36{fill:#524845;}
	.st37{fill:#B1A7A4;}
</style>
<circle class="st5" cx="72" cy="72" r="72"/>
<path class="st4" d="M72,0C32.2,0,0,32.2,0,72s32.2,72,72,72s72-32.2,72-72S111.8,0,72,0z M48,7.3c0.1,1.6,0.6,3.2,1.6,5
	c-0.4,0-0.9,0-1.6,0.2c-1.3,0.3-2.6,0.9-3.9,1.9c0.5-0.3,1-0.5,1.6-0.7c1.1-0.3,1.8-0.3,2,0.1c0.3,0.6,0.2,1.1-0.5,1.7
	c-0.6,0.6-1.5,0.9-2.6,0.8c-1-0.1-2-0.2-2.8-0.3c-1.5-0.1-2.8,0-4.1,0.2C34,16.9,31.1,19.2,29,23c-3,5.5-4.7,8.7-5,9.6
	c-0.8,2.2-1.1,4.8-1,7.9c0-1.2,0.3-2.9,0.9-5c1.2-4.1,3.1-8.2,5.9-12.2c0.9-1.3,2.1-2.5,3.6-3.5c3-2,6-2.3,9-1
	c-0.4-0.2-1-0.2-1.7-0.2c-1.5,0-3.1,0.6-4.7,1.8c0.5-0.3,1.1-0.6,1.8-0.8c1.4-0.4,2.7-0.3,3.7,0.3l0.6,0.3c0.1,0.3-0.7,0.8-2.4,1.5
	c-3.3,1.3-5.7,2.6-7.2,3.8c-3.1,2.6-5.5,6.8-7.3,12.4L25,39.2c-0.2,1-0.2,1.9-0.1,2.6c0.2,0.8,0.1,1.4-0.2,1.9
	c-0.3,0.4-0.7,0.8-1.4,1.1c-0.9,0.3-1.6,1-2.1,1.9c-0.6,1.2-0.6,2.3,0.1,3.4c0.7,1,1,2.5,1,4.4c0,0.9,0,1.8-0.2,2.5l-7.7-0.2
	l7.9,1.2l0.9,2.2c1,1.8,2.5,3.6,4.7,5.2L27,67.6c-0.6,1.8-0.8,3.6-0.7,5.2c0.1,2.7,1.1,4.9,2.8,6.5c-2,1.9-3.3,3.9-3.9,6l0.5-1.1
	c0.5-0.9,1-1.7,1.7-2.5c0.7-0.8,1.4-1.6,2.1-2.2c1.5,1.4,3.6,2.4,6.3,3.1c-1.5,5.6-5.3,11-11.4,16.4c-2.2,1.9-3.9,3.8-5.1,5.6
	c-0.3,0.4-0.5,0.9-0.7,1.3c-1,2-1.9,4-2.6,6C7.8,100.7,3,86.9,3,72C3,42.4,21.7,17.1,48,7.3z M31.9,77.9c1.2,1.3,2.7,2.4,4.4,3.3
	l-0.3,0.9c-2.2-1.1-3.9-2.3-5.2-3.6C31.2,78.3,31.5,78.1,31.9,77.9z M30.5,78.1C30.5,78.1,30.5,78.2,30.5,78.1c-2.3-2.3-3-5-2.3-8.1
	l0.2,1.7c0.3,1.4,0.9,2.7,1.8,4c0.4,0.6,0.8,1.2,1.3,1.7C31.2,77.6,30.9,77.9,30.5,78.1z M93.7,137.5c-0.5-0.4-1-0.9-1.6-1.3
	c-2.8-1.9-5.5-3.9-8-6c-2.7-2.2-5.3-4.4-7.7-6.6c-3.5-3.3-6.9-6.4-10.3-9.3c-5.1-4.3-10.2-8.1-15.2-11.4l11.8,6.9l-3-14l3.5,5.2
	c0-0.4,0.1-0.7,0.2-1.1l0.7-1.7l0.5-0.7c0.4-0.4,0.9-0.2,1.5,0.6c1.9,2.7,3.4,4.7,4.6,5.7c2.8,2.7,5.4,3.6,7.7,2.5l0.9-0.6
	c0.6-0.6,1.1-1.5,1.3-2.6l0.2-0.6c0.2-0.4,0.7-0.6,1.3-0.6c1,0,1.5,0.1,1.7,0c0.3-0.1,0.5-0.3,0.5-0.8c0-0.4,0.1-0.7,0.2-0.7
	c0.1,0,0.4,0,0.9,0c0.7,0,1.1,0,1.2,0c0.4-0.1,0.8-0.4,1-0.9c0.4-0.9,0.7-1.4,0.8-1.5c0.4-0.4,1.1-0.3,2.1,0.3
	c0.9,0.5,1.7,0.7,2.2,0.6c0.6-0.1,1-0.3,1.2-0.6c0.2-0.3,0.4-0.9,0.5-1.7c0.1-0.8,0.5-2.3,1.1-4.4c0.6-2.1,2.1-4,4.5-5.7
	c2.4-1.7,4-2.9,4.8-3.6c0.7-0.8,1.3-1.3,1.7-1.7c0.4-0.4,1.3-1.7,2.7-3.9c1.4-2.2,2.2-3.8,2.5-4.7l0.4-2.1l2.2,1.7l-1.7-2.3
	l12.5-9.1l-10.8,6.6l5.9-5.6l-4.8,2.8c1.1-1.6,1.7-3.5,1.8-5.8c0.2-4.6-2.3-8.8-7.4-12.6c0.2-0.7,0.3-1.4,0.1-2.1
	c-0.3-1.3-1.4-1.9-3.4-1.7c0.1-1.2-0.3-2.7-1.2-4.3c-1.8-3.2-5.1-5.7-10-7.6l1,0.4c0.8,0.4,1.6,0.9,2.4,1.4c2.5,1.7,4.4,3.8,5.6,6.2
	c-0.7-0.9-1.6-1.9-2.9-3c-2.6-2.2-5.5-3.9-8.6-5c-4.2-1.5-8.5-1.9-13-1.3c-0.3,0-0.6,0-0.9,0l1.1-0.7c1-0.5,1.9-1,2.9-1.3
	c3.2-0.9,6-0.5,8.5,1.3c-0.5-0.6-1.3-1-2.4-1.5c-2.2-0.9-4.7-1-7.6-0.4c0.1-0.2,0.3-0.5,0.5-0.9c0.5-0.7,1-1.2,1.6-1.7
	c1.8-1.4,3.7-1.5,5.7-0.2c-0.7-0.7-1.5-1.2-2.6-1.3c-2.1-0.3-4.2,0.9-6.1,3.7c0.4-1.1,1-2.1,1.8-3.1c1.6-1.9,3.3-2.6,5.2-2
	c-0.5-0.5-1.2-0.7-2.2-0.7c-1.4,0.1-2.9,0.8-4.6,2.3c-0.5,0.7-1.1,1.3-1.8,1.7c0.6-0.7,1.2-1.2,1.8-1.7c0.2-0.4,0.4-0.7,0.6-1.1
	c1.1-2.5,0.4-5.1-1.9-8.1c0,0,0,0-0.1-0.1c-0.6-0.8-1.2-1.7-1.8-2.8c-1.3-2.3-1.9-4.3-1.9-6c0-0.7-0.1-1.3-0.3-1.7
	C111.8,4.8,141,35.1,141,72C141,102.5,121.1,128.4,93.7,137.5z"/>
</svg>
