<?xml version="1.0" encoding="utf-8"?>
<!-- Generator: Adobe Illustrator 22.1.0, SVG Export Plug-In . SVG Version: 6.00 Build 0)  -->
<svg version="1.1" id="Graphics" xmlns="http://www.w3.org/2000/svg" xmlns:xlink="http://www.w3.org/1999/xlink" x="0px" y="0px"
	 viewBox="0 0 144 144" style="enable-background:new 0 0 144 144;" xml:space="preserve">
<style type="text/css">
	.st0{clip-path:url(#SVGID_2_);}
	.st1{fill:#3B3434;}
	.st2{opacity:0.9;}
	.st3{clip-path:url(#SVGID_4_);}
	.st4{opacity:0.9;fill:#3B3434;}
	.st5{fill:none;}
	.st6{fill:none;stroke:#3B3434;stroke-miterlimit:10;}
	.st7{fill:none;stroke:#3B3434;stroke-miterlimit:10;stroke-dasharray:2.0001,2.0001;}
	.st8{fill:none;stroke:#3B3434;stroke-miterlimit:10;stroke-dasharray:2.0599,2.0599;}
	.st9{fill:none;stroke:#3B3434;stroke-width:3;stroke-miterlimit:10;}
	.st10{fill:#939598;}
	.st11{fill:none;stroke:#3B3434;stroke-width:0.5;stroke-linecap:round;stroke-linejoin:round;stroke-miterlimit:500;}
	.st12{opacity:0.9;fill-rule:evenodd;clip-rule:evenodd;fill:#3B3434;}
	.st13{fill:none;stroke:#3B3434;stroke-width:2;stroke-miterlimit:10;}
	.st14{clip-path:url(#SVGID_8_);}
	.st15{opacity:0.9;fill:#C7C8CA;}
	.st16{opacity:0.9;fill:#939598;}
	.st17{fill:#231F20;}
	.st18{fill:#3B3534;}
	.st19{fill:#767374;}
	.st20{opacity:0.9;fill:#3B3534;}
	.st21{fill:none;stroke:#FFFFFF;stroke-miterlimit:10;}
	.st22{opacity:0.9;fill:#3B3534;enable-background:new    ;}
	.st23{fill:#3B3534;stroke:#3B3534;stroke-width:0.5;stroke-miterlimit:10;}
	.st24{fill:none;stroke:#3B3534;stroke-width:0.5;}
	.st25{fill:none;stroke:#3B3534;stroke-width:0.5;stroke-linecap:round;}
	.st26{fill-rule:evenodd;clip-rule:evenodd;fill:#3B3434;}
	.st27{fill:#FFFFFF;stroke:#3B3434;stroke-miterlimit:10;}
	.st28{fill:#FFFFFF;stroke:#3B3434;stroke-width:0.25;stroke-miterlimit:10;}
	.st29{fill-rule:evenodd;clip-rule:evenodd;fill:#EF4761;}
	.st30{fill-rule:evenodd;clip-rule:evenodd;fill:#EE365F;}
	.st31{fill-rule:evenodd;clip-rule:evenodd;fill:#D5769A;}
	.st32{fill-rule:evenodd;clip-rule:evenodd;fill:#EA395C;}
	.st33{fill:#FFFEF3;}
	.st34{fill:#E8E8E9;}
	.st35{fill:#D2CCCA;}
	.st36{fill:#524845;}
	.st37{fill:#B1A7A4;}
</style>
<g class="st2">
	<path class="st1" d="M72,3c38,0,69,31,69,69s-31,69-69,69S3,110,3,72S34,3,72,3 M72,0C32.2,0,0,32.2,0,72s32.2,72,72,72
		s72-32.2,72-72S111.8,0,72,0L72,0z"/>
</g>
<g class="st2">
	<path class="st13" d="M94.4,26.8c6,1.3,8.4,5.3,8.4,9.9l0-0.8v71c0,4.6-3.6,8.3-8.1,8.3H48.4c-4.5,0-8.1-3.7-8.1-8.3v-71l-0.1,0.8
		c0-4.8,2.6-8.9,9.1-10.1"/>
	<line class="st13" x1="56.9" y1="26.3" x2="87.1" y2="26.3"/>
	<path class="st13" d="M102,32.8c0,4.6-2.9,8.3-7.4,8.3H48.4c-4.5,0-7.5-3.7-7.5-8.3"/>
	<path class="st13" d="M102.7,78c2,0,4.2,0.1,4.2-1"/>
	<path class="st13" d="M40.2,78c-2,0-4.2,0.1-4.2-1"/>
	<path class="st13" d="M98.7,86.1L98.7,86.1c-1,0-1.9-0.8-1.9-1.9V47.9c0-1,0.8-1.9,1.9-1.9h0c1,0,1.9,0.8,1.9,1.9v36.4
		C100.6,85.3,99.7,86.1,98.7,86.1z"/>
	<rect x="98" y="51.4" class="st13" width="2.5" height="12.2"/>
	<path class="st13" d="M96.7,52.5c1.2-1.1,0.9-2,3.6-1.9"/>
	<path class="st13" d="M54.5,41.1c0.6-5.8,3.5-20.4,3.5-20.4s2.4-5.4,13.2-5.4s13.6,4.9,13.6,4.9s3.9,8.1,4.7,20.8"/>
	<path class="st13" d="M46.9,41c1.9-12.3,2.2-14.2,3.3-15.5c1.1-1.3,3.2-4.2,5.1-6.6c2-2.4,4-5.2,4-5.2s5.2-3.3,12.2-3.3
		c8.2,0,12.1,3.3,12.1,3.3s3.3,4,4.7,5.5c1.9,2,5.3,5.3,5.8,6.1c0.5,0.8,3.3,9.3,3.4,15.3"/>
	<path class="st13" d="M91.2,22.4c9.1,2.4,15.8,10.7,15.8,20.5v75.4c0,3.4-2.8,6.2-6.2,6.2H42.2c-3.4,0-6.2-2.8-6.2-6.2V42.9
		c0-10.1,7.1-18.6,16.6-20.7"/>
	<line class="st13" x1="57.9" y1="21.7" x2="85.4" y2="21.7"/>
	<path class="st13" d="M95.9,115.1H85v0c0-2.7,2.2-4.9,4.9-4.9h1C93.7,110.2,95.9,112.4,95.9,115.1L95.9,115.1z"/>
	<path class="st13" d="M66.1,26.5h10.9v0c0,2.7-2.2,4.9-4.9,4.9h-1C68.3,31.4,66.1,29.2,66.1,26.5L66.1,26.5z"/>
	<g>
		<path class="st13" d="M83.4,21.7h-6.9c-0.4,0-0.7-0.3-0.7-0.7l0,0c0-0.4,0.3-0.7,0.7-0.7h6.9c0.4,0,0.7,0.3,0.7,0.7l0,0
			C84,21.4,83.7,21.7,83.4,21.7z"/>
		<path class="st13" d="M67.6,21.7h-6.9c-0.4,0-0.7-0.3-0.7-0.7l0,0c0-0.4,0.3-0.7,0.7-0.7h6.9c0.4,0,0.7,0.3,0.7,0.7l0,0
			C68.2,21.4,67.9,21.7,67.6,21.7z"/>
		<path class="st13" d="M70.9,21.7h-1.4c-0.4,0-0.7-0.3-0.7-0.7l0,0c0-0.4,0.3-0.7,0.7-0.7h1.4c0.4,0,0.7,0.3,0.7,0.7l0,0
			C71.5,21.4,71.2,21.7,70.9,21.7z"/>
		<path class="st13" d="M74.5,21.7h-1.4c-0.4,0-0.7-0.3-0.7-0.7l0,0c0-0.4,0.3-0.7,0.7-0.7h1.4c0.4,0,0.7,0.3,0.7,0.7l0,0
			C75.2,21.4,74.9,21.7,74.5,21.7z"/>
		<line class="st13" x1="68.2" y1="21" x2="68.8" y2="21"/>
		<line class="st13" x1="75.2" y1="21" x2="75.8" y2="21"/>
	</g>
	<path class="st13" d="M58.1,20.7c0.4-2.6,0.9-6.4,2-6.5"/>
	<path class="st13" d="M85.2,20.8c-0.5-1.6-1-4.8-2.1-5.4"/>
	<path class="st13" d="M59.3,13.7c0.5,0.4,1.1,0.7,1.1,0.9c0,0.2-0.7,0.6-0.6,1.2c0.1,0.6,0.5,1.6,0.2,2.7"/>
	<path class="st13" d="M84.2,14.7c-0.7-0.1-1.7,0.5-0.5,1.7"/>
	<path class="st13" d="M59.7,16.2c2.8-1.3,5.8-3.7,11.5-3.7s12.8,4.5,12.8,4.5"/>
</g>
</svg>
