<?xml version="1.0" encoding="utf-8"?>
<!-- Generator: Adobe Illustrator 22.1.0, SVG Export Plug-In . SVG Version: 6.00 Build 0)  -->
<svg version="1.1" id="Graphics" xmlns="http://www.w3.org/2000/svg" xmlns:xlink="http://www.w3.org/1999/xlink" x="0px" y="0px"
	 viewBox="0 0 144 144" style="enable-background:new 0 0 144 144;" xml:space="preserve">
<style type="text/css">
	.st0{clip-path:url(#SVGID_2_);}
	.st1{fill:#3B3434;}
	.st2{opacity:0.9;}
	.st3{clip-path:url(#SVGID_4_);}
	.st4{opacity:0.9;fill:#3B3434;}
	.st5{fill:none;}
	.st6{fill:none;stroke:#3B3434;stroke-miterlimit:10;}
	.st7{fill:none;stroke:#3B3434;stroke-miterlimit:10;stroke-dasharray:2.0001,2.0001;}
	.st8{fill:none;stroke:#3B3434;stroke-miterlimit:10;stroke-dasharray:2.0599,2.0599;}
	.st9{fill:none;stroke:#3B3434;stroke-width:3;stroke-miterlimit:10;}
	.st10{fill:#939598;}
	.st11{fill:none;stroke:#3B3434;stroke-width:0.5;stroke-linecap:round;stroke-linejoin:round;stroke-miterlimit:500;}
	.st12{opacity:0.9;fill-rule:evenodd;clip-rule:evenodd;fill:#3B3434;}
	.st13{fill:none;stroke:#3B3434;stroke-width:2;stroke-miterlimit:10;}
	.st14{clip-path:url(#SVGID_8_);}
	.st15{opacity:0.9;fill:#C7C8CA;}
	.st16{opacity:0.9;fill:#939598;}
	.st17{fill:#231F20;}
	.st18{fill:#3B3534;}
	.st19{fill:#767374;}
	.st20{opacity:0.9;fill:#3B3534;}
	.st21{fill:none;stroke:#FFFFFF;stroke-miterlimit:10;}
	.st22{opacity:0.9;fill:#3B3534;enable-background:new    ;}
	.st23{fill:#3B3534;stroke:#3B3534;stroke-width:0.5;stroke-miterlimit:10;}
	.st24{fill:none;stroke:#3B3534;stroke-width:0.5;}
	.st25{fill:none;stroke:#3B3534;stroke-width:0.5;stroke-linecap:round;}
	.st26{fill-rule:evenodd;clip-rule:evenodd;fill:#3B3434;}
	.st27{fill:#FFFFFF;stroke:#3B3434;stroke-miterlimit:10;}
	.st28{fill:#FFFFFF;stroke:#3B3434;stroke-width:0.25;stroke-miterlimit:10;}
	.st29{fill-rule:evenodd;clip-rule:evenodd;fill:#EF4761;}
	.st30{fill-rule:evenodd;clip-rule:evenodd;fill:#EE365F;}
	.st31{fill-rule:evenodd;clip-rule:evenodd;fill:#D5769A;}
	.st32{fill-rule:evenodd;clip-rule:evenodd;fill:#EA395C;}
	.st33{fill:#FFFEF3;}
	.st34{fill:#E8E8E9;}
	.st35{fill:#D2CCCA;}
	.st36{fill:#524845;}
	.st37{fill:#B1A7A4;}
</style>
<g class="st2">
	<path class="st1" d="M72,3c38,0,69,31,69,69s-31,69-69,69S3,110,3,72S34,3,72,3 M72,0C32.2,0,0,32.2,0,72s32.2,72,72,72
		s72-32.2,72-72S111.8,0,72,0L72,0z"/>
</g>
<g class="st2">
	<path class="st1" d="M118.4,114.1C118.4,114,118.4,114,118.4,114.1c0-0.3-0.1-0.5-0.1-0.7c0,0,0,0,0,0c0,0,0,0,0,0
		c-0.1-0.2-0.1-0.4-0.2-0.7c0-0.1-0.1-0.2-0.2-0.3c0-0.1-0.1-0.2-0.1-0.2c-0.1-0.2-0.3-0.4-0.4-0.6l-10.4-11c0,0,0,0,0,0
		c2.9-3.3,5.2-7,7-11c0-0.1,0.1-0.2,0.1-0.3c0.2-0.4,0.4-0.9,0.6-1.3c0.1-0.2,0.1-0.4,0.2-0.5c0.2-0.4,0.3-0.8,0.4-1.2
		c0.1-0.2,0.2-0.5,0.2-0.7c0.1-0.4,0.2-0.8,0.4-1.1c0.1-0.3,0.2-0.6,0.2-0.9c0.1-0.4,0.2-0.7,0.3-1.1c0.1-0.3,0.2-0.6,0.2-1
		c0.1-0.3,0.2-0.7,0.2-1c0.1-0.4,0.1-0.7,0.2-1.1c0.1-0.3,0.1-0.6,0.2-1c0.1-0.4,0.1-0.8,0.2-1.2c0-0.3,0.1-0.6,0.1-0.9
		c0-0.5,0.1-0.9,0.1-1.4c0-0.2,0-0.5,0.1-0.7c0-0.7,0.1-1.4,0.1-2.1c0,0,0,0,0,0c0,0,0,0,0,0c0-0.7,0-1.5-0.1-2.2
		c0-0.2,0-0.5-0.1-0.7c0-0.5-0.1-1-0.1-1.4c0-0.3-0.1-0.6-0.1-0.9c-0.1-0.4-0.1-0.8-0.2-1.3c0-0.3-0.1-0.6-0.2-0.9
		c-0.1-0.4-0.1-0.8-0.2-1.2c-0.1-0.3-0.1-0.6-0.2-0.9c-0.1-0.4-0.2-0.7-0.3-1.1c-0.1-0.3-0.2-0.6-0.3-0.9c-0.1-0.4-0.2-0.7-0.3-1.1
		c-0.1-0.3-0.2-0.6-0.3-0.9c-0.1-0.3-0.2-0.7-0.3-1c-0.1-0.3-0.2-0.6-0.3-0.9c-0.1-0.3-0.3-0.7-0.4-1c-0.1-0.3-0.3-0.6-0.4-0.9
		c-0.1-0.3-0.3-0.6-0.4-0.9c-0.1-0.3-0.3-0.6-0.4-0.9c-0.1-0.3-0.3-0.6-0.5-0.9c-0.2-0.3-0.3-0.6-0.5-0.9c-0.2-0.3-0.3-0.6-0.5-0.8
		c-0.2-0.3-0.4-0.6-0.6-0.9c-0.2-0.3-0.3-0.5-0.5-0.8c-0.2-0.3-0.4-0.6-0.6-0.9c-0.2-0.2-0.3-0.5-0.5-0.7c-0.2-0.3-0.4-0.6-0.7-0.9
		c-0.2-0.2-0.3-0.4-0.5-0.6c-0.3-0.3-0.5-0.6-0.8-1c-0.1-0.2-0.3-0.3-0.4-0.5c-1.5-1.8-3.2-3.4-5-4.9c-0.1-0.1-0.1-0.1-0.2-0.2
		c-0.4-0.3-0.8-0.6-1.2-0.9c-0.1-0.1-0.3-0.2-0.4-0.3c-0.4-0.3-0.8-0.6-1.2-0.8c-0.2-0.1-0.3-0.2-0.5-0.3c-0.4-0.3-0.8-0.5-1.2-0.8
		c-0.2-0.1-0.3-0.2-0.5-0.3c-0.4-0.2-0.8-0.5-1.2-0.7c-0.2-0.1-0.4-0.2-0.6-0.3c-0.4-0.2-0.8-0.4-1.2-0.6c-0.2-0.1-0.4-0.2-0.6-0.3
		c-0.4-0.2-0.8-0.4-1.2-0.6c-0.2-0.1-0.4-0.2-0.6-0.3c-0.4-0.2-0.8-0.4-1.3-0.5c-0.2-0.1-0.4-0.2-0.6-0.2c-0.4-0.2-0.9-0.3-1.3-0.5
		c-0.2-0.1-0.4-0.1-0.6-0.2c-0.4-0.1-0.9-0.3-1.3-0.4c-0.2-0.1-0.4-0.1-0.6-0.2c-0.5-0.1-0.9-0.3-1.4-0.4c-0.2,0-0.4-0.1-0.6-0.1
		c-0.5-0.1-1-0.2-1.5-0.3c-0.2,0-0.4-0.1-0.5-0.1c-0.5-0.1-1-0.2-1.5-0.3c-0.1,0-0.3,0-0.4-0.1c-0.6-0.1-1.1-0.1-1.7-0.2
		c0,0,0,0,0,0V13.6c0,0,0,0,0,0c0,0,0,0,0,0c0-0.2,0-0.3-0.1-0.5c0-0.1,0-0.2,0-0.3c0-0.2-0.1-0.4-0.2-0.6c0-0.1,0-0.1-0.1-0.2
		c-0.1-0.2-0.2-0.5-0.4-0.7c0,0,0,0,0,0c-0.1-0.2-0.3-0.4-0.5-0.6c-0.1-0.1-0.3-0.3-0.4-0.4c-0.1,0-0.1-0.1-0.2-0.1
		C76.3,10,76.1,10,76,9.9c-0.1,0-0.1-0.1-0.2-0.1c0,0,0,0,0,0c-0.2-0.1-0.4-0.2-0.7-0.2c0,0-0.1,0-0.1,0c0,0,0,0,0,0
		c-0.3-0.1-0.6-0.1-0.8-0.1c0,0,0,0,0,0c0,0,0,0,0,0c-1.7,0-3.5,0.1-5.2,0.2c-0.4,0-0.8,0.1-1.2,0.1c-6.1,0.6-11.9,2.1-17.3,4.4
		c-0.2,0.1-0.4,0.2-0.6,0.3c-2.5,1.1-4.9,2.3-7.2,3.6c-1.2,0.7-2.3,1.4-3.4,2.1c-0.1,0.1-0.3,0.2-0.4,0.3c-2.2,1.5-4.2,3.1-6.2,4.8
		c-0.4,0.4-0.9,0.8-1.3,1.2c-2.4,2.2-4.6,4.7-6.6,7.3c-0.5,0.6-0.9,1.2-1.4,1.9c-0.5,0.7-1,1.4-1.5,2.2c-0.9,1.4-1.8,2.8-2.6,4.3
		c0,0,0,0,0,0.1c-4.8,8.9-7.6,19-7.6,29.8c0,0,0,0,0,0s0,0,0,0c0,17.2,7.2,33.8,19.8,45.6c0.4,0.4,0.8,0.6,1.3,0.8c0,0,0,0,0.1,0
		c0.1,0,0.2,0,0.2,0.1c0.4,0.1,0.8,0.2,1.3,0.2c1.1,0,2.2-0.4,3-1.3c1.6-1.7,1.5-4.3-0.2-5.9c-4.8-4.5-8.7-9.8-11.6-15.5
		c-3.7-7.4-5.6-15.5-5.6-24.1c0-0.1,0-0.2,0-0.3c0-0.8,0-1.6,0.1-2.4c0-0.3,0.1-0.7,0.1-1c0-0.6,0.1-1.1,0.1-1.6
		c0-0.4,0.1-0.8,0.1-1.2c0.1-0.5,0.1-1,0.2-1.5c0.1-0.4,0.1-0.8,0.2-1.2c0.1-0.5,0.2-0.9,0.3-1.4c0.1-0.4,0.2-0.8,0.3-1.2
		c0.1-0.5,0.2-0.9,0.3-1.3c0.1-0.4,0.2-0.8,0.3-1.2c0.1-0.4,0.2-0.9,0.4-1.3c0.1-0.4,0.3-0.8,0.4-1.2c0.1-0.4,0.3-0.8,0.4-1.2
		c0.1-0.4,0.3-0.8,0.5-1.2c0.2-0.4,0.3-0.8,0.5-1.2c0.2-0.4,0.4-0.8,0.5-1.2c0.2-0.4,0.3-0.7,0.5-1.1c0.2-0.4,0.4-0.8,0.6-1.3
		c0.2-0.3,0.3-0.7,0.5-1c0.2-0.4,0.5-0.8,0.7-1.3c0.2-0.3,0.4-0.6,0.5-0.9c0.3-0.4,0.5-0.9,0.8-1.3c0.2-0.3,0.4-0.6,0.5-0.9
		c0.3-0.4,0.6-0.9,0.9-1.3c0.2-0.3,0.4-0.5,0.5-0.8c0.3-0.4,0.6-0.9,1-1.3c0.2-0.2,0.3-0.4,0.5-0.6c0.4-0.5,0.7-0.9,1.1-1.4
		c0.1-0.2,0.3-0.3,0.4-0.5c0.4-0.5,0.8-0.9,1.3-1.4c0.1-0.1,0.2-0.2,0.3-0.4c0.5-0.5,1-1,1.4-1.5c0,0,0.1-0.1,0.1-0.1
		c8.8-8.6,20.6-14.3,33.7-15.3v10.7c0,0,0,0,0,0c-0.6,0.1-1.1,0.1-1.7,0.2c-0.1,0-0.3,0-0.4,0.1c-0.5,0.1-1,0.2-1.6,0.3
		c-0.2,0-0.3,0.1-0.5,0.1c-0.5,0.1-1,0.2-1.5,0.3c-0.2,0-0.4,0.1-0.6,0.1c-0.5,0.1-0.9,0.2-1.4,0.4c-0.2,0.1-0.4,0.1-0.6,0.2
		c-0.5,0.1-0.9,0.3-1.4,0.4c-0.2,0.1-0.4,0.1-0.6,0.2c-0.4,0.2-0.9,0.3-1.3,0.5c-0.2,0.1-0.4,0.2-0.6,0.2c-0.4,0.2-0.9,0.4-1.3,0.5
		c-0.2,0.1-0.4,0.2-0.6,0.3c-0.4,0.2-0.8,0.4-1.2,0.6c-0.2,0.1-0.4,0.2-0.6,0.3c-0.4,0.2-0.8,0.4-1.2,0.7c-0.2,0.1-0.4,0.2-0.6,0.3
		c-0.4,0.2-0.8,0.5-1.2,0.7c-0.2,0.1-0.4,0.2-0.5,0.3c-0.4,0.3-0.8,0.5-1.2,0.8c-0.2,0.1-0.3,0.2-0.5,0.3c-0.4,0.3-0.8,0.6-1.2,0.8
		c-0.1,0.1-0.3,0.2-0.4,0.3c-0.4,0.3-0.8,0.6-1.2,0.9c-0.1,0.1-0.2,0.1-0.2,0.2c-1.4,1.2-2.8,2.5-4,3.9c0,0,0,0,0,0
		c-0.3,0.3-0.6,0.7-0.9,1c-0.1,0.2-0.3,0.3-0.4,0.5c-0.3,0.3-0.5,0.6-0.8,1c-0.2,0.2-0.3,0.4-0.5,0.6c-0.2,0.3-0.4,0.6-0.7,0.9
		c-0.2,0.2-0.4,0.5-0.5,0.7c-0.2,0.3-0.4,0.6-0.6,0.9c-0.2,0.3-0.3,0.5-0.5,0.8c-0.2,0.3-0.4,0.6-0.5,0.9c-0.2,0.3-0.3,0.6-0.5,0.9
		c-0.2,0.3-0.3,0.6-0.5,0.9c-0.2,0.3-0.3,0.6-0.5,0.9c-0.2,0.3-0.3,0.6-0.4,0.9c-0.1,0.3-0.3,0.6-0.4,0.9c-0.1,0.3-0.3,0.6-0.4,0.9
		c-0.1,0.3-0.3,0.7-0.4,1c-0.1,0.3-0.2,0.6-0.3,0.9c-0.1,0.3-0.2,0.7-0.3,1c-0.1,0.3-0.2,0.6-0.3,0.9c-0.1,0.4-0.2,0.7-0.3,1.1
		c-0.1,0.3-0.2,0.6-0.3,0.9c-0.1,0.4-0.2,0.7-0.3,1.1c-0.1,0.3-0.1,0.6-0.2,0.9c-0.1,0.4-0.1,0.8-0.2,1.2c-0.1,0.3-0.1,0.6-0.2,0.9
		C31,66,31,66.4,30.9,66.8c0,0.3-0.1,0.6-0.1,0.9c0,0.5-0.1,0.9-0.1,1.4c0,0.2,0,0.5-0.1,0.7c0,0.7-0.1,1.4-0.1,2.2c0,0,0,0,0,0
		s0,0,0,0c0,23.9,19.4,43.3,43.2,43.5c0.1,0,0.2,0,0.3,0c0,0,0,0,0,0c0,0,0,0,0,0c0,0,0,0,0,0c0,0,0,0,0,0c0.7,0,1.4,0,2.1-0.1
		c0.2,0,0.4,0,0.7,0c0.5,0,0.9-0.1,1.4-0.1c0.3,0,0.5-0.1,0.8-0.1c0.4,0,0.8-0.1,1.2-0.2c0.3,0,0.5-0.1,0.8-0.1
		c0.4-0.1,0.8-0.1,1.2-0.2c0.3-0.1,0.6-0.1,0.8-0.2c0.4-0.1,0.8-0.2,1.2-0.3c0.5-0.1,1-0.2,1.5-0.4c0.4-0.1,0.7-0.2,1.1-0.3
		c0.4-0.1,0.7-0.2,1.1-0.4c0.2-0.1,0.5-0.2,0.7-0.2c0.4-0.1,0.8-0.3,1.2-0.4c0.2-0.1,0.4-0.2,0.6-0.2c0.4-0.2,0.8-0.3,1.2-0.5
		c0.1-0.1,0.3-0.1,0.4-0.2c0.5-0.2,0.9-0.4,1.3-0.6c0,0,0,0,0,0c2.6-1.3,5.1-2.9,7.4-4.7l3.8,4l3.6,3.8c0,0,0,0,0,0
		c-0.6,0.5-1.2,0.9-1.8,1.4c0,0-0.1,0.1-0.1,0.1c-0.6,0.4-1.2,0.9-1.8,1.3c0,0-0.1,0-0.1,0.1c-3.7,2.5-7.7,4.6-11.9,6.1
		c-0.1,0-0.2,0.1-0.4,0.1c-0.5,0.2-1.1,0.4-1.6,0.5c-0.3,0.1-0.5,0.2-0.8,0.2c-0.5,0.1-0.9,0.3-1.4,0.4c-0.3,0.1-0.6,0.2-1,0.3
		c-0.4,0.1-0.9,0.2-1.3,0.3c-0.4,0.1-0.7,0.2-1.1,0.2c-0.4,0.1-0.8,0.2-1.2,0.2c-0.4,0.1-0.8,0.1-1.2,0.2c-0.4,0.1-0.8,0.1-1.1,0.2
		c-0.5,0.1-0.9,0.1-1.4,0.2c-0.3,0-0.7,0.1-1,0.1c-0.5,0-1.1,0.1-1.6,0.1c-0.3,0-0.6,0-0.8,0.1c-0.8,0-1.6,0.1-2.5,0.1
		c-0.1,0-0.1,0-0.2,0c-0.8,0-1.5,0.3-2.2,0.7c-1.1,0.7-1.8,2-1.8,3.5c0,2.3,1.9,4.2,4.2,4.2c0,0,0,0,0,0c0,0,0,0,0,0
		c0.7,0,1.5,0,2.2-0.1c0.9,0,1.8-0.1,2.7-0.2c0.4,0,0.8,0,1.1-0.1c0.5-0.1,1.1-0.1,1.6-0.2c0.4-0.1,0.9-0.1,1.3-0.2
		c0.4-0.1,0.8-0.1,1.2-0.2c0.6-0.1,1.1-0.2,1.7-0.3c0.5-0.1,0.9-0.2,1.4-0.3c0.5-0.1,1-0.2,1.5-0.3c10.5-2.5,20.2-7.8,28.2-15.4
		c0,0,0,0,0,0c0,0,0,0,0,0c0.4-0.4,0.7-0.9,1-1.3c0.1-0.2,0.2-0.5,0.2-0.7c0,0,0,0,0-0.1c0-0.1,0-0.3,0.1-0.4c0-0.1,0-0.1,0-0.2
		C118.4,114.5,118.4,114.3,118.4,114.1z M93.9,101.1c-0.1,0.1-0.3,0.2-0.4,0.3c-0.3,0.2-0.6,0.4-0.9,0.6c-0.2,0.1-0.3,0.2-0.5,0.3
		c-0.3,0.2-0.6,0.3-0.9,0.5c-0.2,0.1-0.3,0.2-0.5,0.3c-0.3,0.2-0.7,0.3-1,0.5c-0.1,0.1-0.3,0.1-0.4,0.2c-0.5,0.2-0.9,0.4-1.4,0.6
		c-0.1,0.1-0.3,0.1-0.4,0.2c-0.3,0.1-0.7,0.3-1,0.4c-0.2,0.1-0.4,0.1-0.6,0.2c-0.3,0.1-0.6,0.2-1,0.3c-0.2,0.1-0.4,0.1-0.6,0.2
		c-0.3,0.1-0.7,0.2-1,0.3c-0.2,0-0.3,0.1-0.5,0.1c-0.5,0.1-1,0.2-1.5,0.4c-0.1,0-0.3,0-0.4,0.1c-0.4,0.1-0.8,0.1-1.2,0.2
		c-0.2,0-0.4,0.1-0.6,0.1c-0.3,0-0.7,0.1-1,0.1c-0.2,0-0.5,0-0.7,0.1c-0.3,0-0.7,0.1-1,0.1c-0.2,0-0.4,0-0.7,0c-0.4,0-0.8,0-1.2,0
		c-0.1,0-0.3,0-0.4,0c-16.9,0-31.1-12.1-34.5-28c0,0,0-0.1,0-0.1c-0.1-0.5-0.2-1.1-0.3-1.6c0,0,0-0.1,0-0.1
		c-0.1-0.5-0.1-0.9-0.2-1.4c0-0.1,0-0.2,0-0.3c0-0.5-0.1-0.9-0.1-1.4c0-0.1,0-0.2,0-0.4c0-0.4,0-0.7,0-1.1c0-0.2,0-0.5,0-0.7
		c0-0.6,0-1.2,0-1.7c0-0.2,0-0.4,0-0.6c0-0.4,0.1-0.8,0.1-1.1c0-0.2,0.1-0.5,0.1-0.7c0-0.3,0.1-0.7,0.1-1c0-0.2,0.1-0.5,0.1-0.7
		c0.1-0.3,0.1-0.6,0.2-0.9c0.1-0.3,0.1-0.5,0.2-0.8c0.1-0.3,0.1-0.6,0.2-0.9c0.1-0.3,0.1-0.5,0.2-0.8c0.1-0.3,0.2-0.6,0.2-0.9
		c0.1-0.3,0.2-0.5,0.2-0.8c0.1-0.3,0.2-0.5,0.3-0.8c0.1-0.3,0.2-0.5,0.3-0.8c0.1-0.3,0.2-0.5,0.3-0.8c0.1-0.3,0.2-0.5,0.3-0.8
		c0.1-0.2,0.2-0.5,0.3-0.7c0.1-0.3,0.2-0.5,0.4-0.8c0.1-0.2,0.2-0.4,0.3-0.7c0.1-0.3,0.3-0.5,0.4-0.8c0.1-0.2,0.2-0.4,0.3-0.6
		c0.2-0.3,0.3-0.6,0.5-0.8c0.1-0.1,0.2-0.3,0.3-0.4c1-1.6,2.2-3.1,3.4-4.5c0,0,0.1-0.1,0.1-0.1c0.3-0.3,0.6-0.6,0.9-1
		c0.1-0.1,0.1-0.1,0.2-0.2c0.3-0.3,0.6-0.6,0.9-0.9c0.1-0.1,0.2-0.2,0.2-0.2c0.3-0.3,0.6-0.6,0.9-0.8c0.1-0.1,0.2-0.1,0.2-0.2
		c0.3-0.3,0.7-0.6,1-0.8c0.1-0.1,0.2-0.1,0.2-0.2c0.3-0.3,0.7-0.5,1.1-0.8c0.1,0,0.1-0.1,0.2-0.1c0.4-0.3,0.7-0.5,1.1-0.8
		c0.1,0,0.1-0.1,0.2-0.1c0.4-0.3,0.8-0.5,1.2-0.8c0,0,0,0,0.1,0c4.1-2.4,8.7-4,13.5-4.6v35c0,0.1,0,0.2,0,0.3c0,0.2,0,0.3,0,0.5
		c0,0.1,0.1,0.3,0.1,0.4c0,0.1,0.1,0.3,0.1,0.4c0.1,0.1,0.1,0.3,0.2,0.4c0.1,0.1,0.1,0.2,0.2,0.3c0.1,0.1,0.2,0.3,0.3,0.4
		c0.1,0.1,0.1,0.2,0.2,0.2l24,25.4C94.7,100.5,94.3,100.8,93.9,101.1z M106.3,86.3c-0.1,0.3-0.2,0.5-0.3,0.8
		c-0.1,0.3-0.3,0.5-0.4,0.8c-0.1,0.2-0.2,0.4-0.3,0.7c-0.1,0.3-0.3,0.5-0.4,0.8c-0.1,0.2-0.2,0.4-0.3,0.6c-0.2,0.3-0.3,0.5-0.5,0.8
		c-0.1,0.2-0.2,0.4-0.4,0.6c-0.2,0.3-0.3,0.5-0.5,0.8c-0.1,0.2-0.2,0.3-0.4,0.5c-0.2,0.3-0.4,0.5-0.6,0.8c-0.1,0.1-0.2,0.3-0.3,0.4
		c-0.2,0.3-0.4,0.5-0.6,0.8c0,0,0,0,0,0L78.3,70.3V37c4.9,0.6,9.5,2.2,13.6,4.6c0,0,0,0,0,0c0.4,0.2,0.8,0.5,1.2,0.8
		c0,0,0.1,0.1,0.1,0.1c0.4,0.3,0.8,0.5,1.2,0.8c0.1,0,0.1,0.1,0.2,0.1c0.4,0.3,0.7,0.5,1.1,0.8c0.1,0.1,0.1,0.1,0.2,0.2
		c0.3,0.3,0.7,0.6,1,0.8c0.1,0.1,0.1,0.1,0.2,0.2c0.3,0.3,0.7,0.6,1,0.9c0.1,0.1,0.1,0.1,0.2,0.2c0.3,0.3,0.6,0.6,0.9,0.9
		c0.1,0.1,0.1,0.1,0.2,0.2c0.3,0.3,0.6,0.7,0.9,1c0,0,0,0,0.1,0.1c1.3,1.5,2.5,3,3.5,4.7c0.1,0.1,0.1,0.2,0.2,0.3
		c0.2,0.3,0.4,0.6,0.5,0.9c0.1,0.2,0.2,0.3,0.3,0.5c0.2,0.3,0.3,0.6,0.4,0.8c0.1,0.2,0.2,0.4,0.3,0.6c0.1,0.3,0.3,0.5,0.4,0.8
		c0.1,0.2,0.2,0.5,0.3,0.7c0.1,0.3,0.2,0.5,0.3,0.8c0.1,0.2,0.2,0.5,0.3,0.8c0.1,0.3,0.2,0.5,0.3,0.8c0.1,0.3,0.2,0.5,0.3,0.8
		c0.1,0.3,0.2,0.5,0.2,0.8c0.1,0.3,0.2,0.6,0.2,0.9c0.1,0.2,0.1,0.5,0.2,0.8c0.1,0.3,0.1,0.6,0.2,0.9c0.1,0.2,0.1,0.5,0.2,0.7
		c0.1,0.3,0.1,0.6,0.2,1c0,0.2,0.1,0.5,0.1,0.7c0.1,0.4,0.1,0.7,0.1,1.1c0,0.2,0.1,0.4,0.1,0.6c0,0.4,0.1,0.9,0.1,1.3
		c0,0.1,0,0.3,0,0.4c0,0.6,0,1.2,0,1.8c0,0.6,0,1.2,0,1.7c0,0.1,0,0.3,0,0.4c0,0.4-0.1,0.8-0.1,1.3c0,0.2,0,0.4-0.1,0.6
		c0,0.4-0.1,0.7-0.1,1.1c0,0.2-0.1,0.4-0.1,0.6c-0.1,0.3-0.1,0.7-0.2,1c0,0.2-0.1,0.4-0.1,0.7c-0.1,0.3-0.1,0.6-0.2,1
		c-0.1,0.2-0.1,0.4-0.2,0.7c-0.1,0.3-0.2,0.6-0.3,0.9c-0.1,0.2-0.1,0.4-0.2,0.6c-0.1,0.3-0.2,0.7-0.3,1c-0.1,0.2-0.1,0.4-0.2,0.6
		c-0.2,0.5-0.4,1-0.6,1.4C106.5,85.8,106.4,86.1,106.3,86.3z"/>
</g>
</svg>
