<?xml version="1.0" encoding="utf-8"?>
<!-- Generator: Adobe Illustrator 22.1.0, SVG Export Plug-In . SVG Version: 6.00 Build 0)  -->
<svg version="1.1" id="Graphics" xmlns="http://www.w3.org/2000/svg" xmlns:xlink="http://www.w3.org/1999/xlink" x="0px" y="0px"
	 viewBox="0 0 144 144" style="enable-background:new 0 0 144 144;" xml:space="preserve">
<style type="text/css">
	.st0{clip-path:url(#SVGID_2_);}
	.st1{fill:#3B3434;}
	.st2{opacity:0.9;}
	.st3{clip-path:url(#SVGID_4_);}
	.st4{opacity:0.9;fill:#3B3434;}
	.st5{fill:none;}
	.st6{fill:none;stroke:#3B3434;stroke-miterlimit:10;}
	.st7{fill:none;stroke:#3B3434;stroke-miterlimit:10;stroke-dasharray:2.0001,2.0001;}
	.st8{fill:none;stroke:#3B3434;stroke-miterlimit:10;stroke-dasharray:2.0599,2.0599;}
	.st9{fill:none;stroke:#3B3434;stroke-width:3;stroke-miterlimit:10;}
	.st10{fill:#939598;}
	.st11{fill:none;stroke:#3B3434;stroke-width:0.5;stroke-linecap:round;stroke-linejoin:round;stroke-miterlimit:500;}
	.st12{opacity:0.9;fill-rule:evenodd;clip-rule:evenodd;fill:#3B3434;}
	.st13{fill:none;stroke:#3B3434;stroke-width:2;stroke-miterlimit:10;}
	.st14{clip-path:url(#SVGID_8_);}
	.st15{opacity:0.9;fill:#C7C8CA;}
	.st16{opacity:0.9;fill:#939598;}
	.st17{fill:#231F20;}
	.st18{fill:#3B3534;}
	.st19{fill:#767374;}
	.st20{opacity:0.9;fill:#3B3534;}
	.st21{fill:none;stroke:#FFFFFF;stroke-miterlimit:10;}
	.st22{opacity:0.9;fill:#3B3534;enable-background:new    ;}
	.st23{fill:#3B3534;stroke:#3B3534;stroke-width:0.5;stroke-miterlimit:10;}
	.st24{fill:none;stroke:#3B3534;stroke-width:0.5;}
	.st25{fill:none;stroke:#3B3534;stroke-width:0.5;stroke-linecap:round;}
	.st26{fill-rule:evenodd;clip-rule:evenodd;fill:#3B3434;}
	.st27{fill:#FFFFFF;stroke:#3B3434;stroke-miterlimit:10;}
	.st28{fill:#FFFFFF;stroke:#3B3434;stroke-width:0.25;stroke-miterlimit:10;}
	.st29{fill-rule:evenodd;clip-rule:evenodd;fill:#EF4761;}
	.st30{fill-rule:evenodd;clip-rule:evenodd;fill:#EE365F;}
	.st31{fill-rule:evenodd;clip-rule:evenodd;fill:#D5769A;}
	.st32{fill-rule:evenodd;clip-rule:evenodd;fill:#EA395C;}
	.st33{fill:#FFFEF3;}
	.st34{fill:#E8E8E9;}
	.st35{fill:#D2CCCA;}
	.st36{fill:#524845;}
	.st37{fill:#B1A7A4;}
</style>
<g class="st2">
	<path class="st1" d="M72,3c38,0,69,31,69,69s-31,69-69,69S3,110,3,72S34,3,72,3 M72,0C32.2,0,0,32.2,0,72s32.2,72,72,72
		s72-32.2,72-72S111.8,0,72,0L72,0z"/>
</g>
<g>
	<g>
		
			<rect x="91.3" y="16.7" transform="matrix(-1 -1.224647e-16 1.224647e-16 -1 202.4494 121.1888)" class="st28" width="19.9" height="87.8"/>
		<g>
			
				<rect x="91.3" y="20.5" transform="matrix(-1 -1.224647e-16 1.224647e-16 -1 202.4494 50.515)" class="st1" width="19.9" height="9.5"/>
			
				<rect x="91.3" y="32.2" transform="matrix(-1 -1.224647e-16 1.224647e-16 -1 202.4494 73.8693)" class="st1" width="19.9" height="9.5"/>
			
				<rect x="91.3" y="43.9" transform="matrix(-1 -1.224647e-16 1.224647e-16 -1 202.4494 97.2236)" class="st1" width="19.9" height="9.5"/>
			
				<rect x="91.3" y="55.5" transform="matrix(-1 -1.224647e-16 1.224647e-16 -1 202.4494 120.5779)" class="st1" width="19.9" height="9.5"/>
			
				<rect x="91.3" y="67.2" transform="matrix(-1 -1.224647e-16 1.224647e-16 -1 202.4494 143.9322)" class="st1" width="19.9" height="9.5"/>
			
				<rect x="91.3" y="78.9" transform="matrix(-1 -1.224647e-16 1.224647e-16 -1 202.4494 167.2865)" class="st1" width="19.9" height="9.5"/>
			
				<rect x="91.3" y="90.6" transform="matrix(-1 -1.224647e-16 1.224647e-16 -1 202.4494 190.6408)" class="st1" width="19.9" height="9.5"/>
		</g>
	</g>
	<g>
		
			<rect x="81.2" y="18" transform="matrix(-0.9735 0.2289 -0.2289 -0.9735 194.0822 101.301)" class="st28" width="19.9" height="87.8"/>
		<g>
			
				<rect x="73.1" y="22.8" transform="matrix(-0.9735 0.2289 -0.2289 -0.9735 170.249 35.2671)" class="st1" width="19.9" height="9.5"/>
			
				<rect x="75.8" y="34.1" transform="matrix(-0.9735 0.2289 -0.2289 -0.9735 178.1248 57.0881)" class="st1" width="19.9" height="9.5"/>
			
				<rect x="78.5" y="45.5" transform="matrix(-0.9735 0.2289 -0.2289 -0.9735 186.0005 78.9092)" class="st1" width="19.9" height="9.5"/>
			
				<rect x="81.1" y="56.9" transform="matrix(-0.9735 0.2289 -0.2289 -0.9735 193.8762 100.7302)" class="st1" width="19.9" height="9.5"/>
			
				<rect x="83.8" y="68.2" transform="matrix(-0.9735 0.2289 -0.2289 -0.9735 201.7519 122.5513)" class="st1" width="19.9" height="9.5"/>
			
				<rect x="86.5" y="79.6" transform="matrix(-0.9735 0.2289 -0.2289 -0.9735 209.6276 144.3723)" class="st1" width="19.9" height="9.5"/>
			
				<rect x="89.2" y="91" transform="matrix(-0.9735 0.2289 -0.2289 -0.9735 217.5033 166.1934)" class="st1" width="19.9" height="9.5"/>
		</g>
	</g>
	<g>
		
			<rect x="71.8" y="21.3" transform="matrix(-0.8885 0.4588 -0.4588 -0.8885 184.3749 85.7279)" class="st28" width="19.9" height="87.8"/>
		<g>
			
				<rect x="55.6" y="29.1" transform="matrix(-0.8885 0.4588 -0.4588 -0.8885 139.3478 33.873)" class="st1" width="19.9" height="9.5"/>
			
				<rect x="61" y="39.5" transform="matrix(-0.8885 0.4588 -0.4588 -0.8885 154.2271 51.0086)" class="st1" width="19.9" height="9.5"/>
			
				<rect x="66.3" y="49.9" transform="matrix(-0.8885 0.4588 -0.4588 -0.8885 169.1064 68.1441)" class="st1" width="19.9" height="9.5"/>
			
				<rect x="71.7" y="60.2" transform="matrix(-0.8885 0.4588 -0.4588 -0.8885 183.9857 85.2797)" class="st1" width="19.9" height="9.5"/>
			
				<rect x="77" y="70.6" transform="matrix(-0.8885 0.4588 -0.4588 -0.8885 198.865 102.4152)" class="st1" width="19.9" height="9.5"/>
			
				<rect x="82.4" y="81" transform="matrix(-0.8885 0.4588 -0.4588 -0.8885 213.7443 119.5508)" class="st1" width="19.9" height="9.5"/>
			
				<rect x="87.8" y="91.4" transform="matrix(-0.8885 0.4588 -0.4588 -0.8885 228.6236 136.6863)" class="st1" width="19.9" height="9.5"/>
		</g>
	</g>
	<g>
		
			<rect x="64.1" y="30.1" transform="matrix(-0.7247 0.6891 -0.6891 -0.7247 178.7843 76.6909)" class="st28" width="19.9" height="87.8"/>
		<g>
			
				<rect x="39.8" y="43.7" transform="matrix(-0.7247 0.6891 -0.6891 -0.7247 119.1429 49.3018)" class="st1" width="19.9" height="9.5"/>
			
				<rect x="47.8" y="52.2" transform="matrix(-0.7247 0.6891 -0.6891 -0.7247 138.8515 58.3526)" class="st1" width="19.9" height="9.5"/>
			
				<rect x="55.9" y="60.6" transform="matrix(-0.7247 0.6891 -0.6891 -0.7247 158.5602 67.4034)" class="st1" width="19.9" height="9.5"/>
			
				<rect x="63.9" y="69.1" transform="matrix(-0.7247 0.6891 -0.6891 -0.7247 178.2688 76.4541)" class="st1" width="19.9" height="9.5"/>
			
				<rect x="72" y="77.5" transform="matrix(-0.7247 0.6891 -0.6891 -0.7247 197.9774 85.5049)" class="st1" width="19.9" height="9.5"/>
			
				<rect x="80" y="86" transform="matrix(-0.7247 0.6891 -0.6891 -0.7247 217.686 94.5557)" class="st1" width="19.9" height="9.5"/>
			
				<rect x="88" y="94.5" transform="matrix(-0.7247 0.6891 -0.6891 -0.7247 237.3946 103.6064)" class="st1" width="19.9" height="9.5"/>
		</g>
	</g>
	<g>
		
			<rect x="58.6" y="40.6" transform="matrix(-0.518 0.8554 -0.8554 -0.518 176.403 69.5618)" class="st28" width="19.9" height="87.8"/>
		<g>
			
				<rect x="28.4" y="61.4" transform="matrix(-0.518 0.8554 -0.8554 -0.518 114.8626 67.636)" class="st1" width="19.9" height="9.5"/>
			
				<rect x="38.4" y="67.5" transform="matrix(-0.518 0.8554 -0.8554 -0.518 135.1988 68.2724)" class="st1" width="19.9" height="9.5"/>
			
				<rect x="48.4" y="73.5" transform="matrix(-0.518 0.8554 -0.8554 -0.518 155.5349 68.9088)" class="st1" width="19.9" height="9.5"/>
			
				<rect x="58.4" y="79.6" transform="matrix(-0.518 0.8554 -0.8554 -0.518 175.871 69.5452)" class="st1" width="19.9" height="9.5"/>
			
				<rect x="68.4" y="85.6" transform="matrix(-0.518 0.8554 -0.8554 -0.518 196.2072 70.1816)" class="st1" width="19.9" height="9.5"/>
			
				<rect x="78.4" y="91.7" transform="matrix(-0.518 0.8554 -0.8554 -0.518 216.5433 70.818)" class="st1" width="19.9" height="9.5"/>
			
				<rect x="88.4" y="97.7" transform="matrix(-0.518 0.8554 -0.8554 -0.518 236.8794 71.4544)" class="st1" width="19.9" height="9.5"/>
		</g>
	</g>
	<g>
		
			<rect x="56.4" y="51.8" transform="matrix(-0.2748 0.9615 -0.9615 -0.2748 176.5822 58.2132)" class="st28" width="19.9" height="87.8"/>
		<g>
			
				<rect x="22.4" y="81.2" transform="matrix(-0.2748 0.9615 -0.9615 -0.2748 123.9339 78.5049)" class="st1" width="19.9" height="9.5"/>
			
				<rect x="33.6" y="84.4" transform="matrix(-0.2748 0.9615 -0.9615 -0.2748 141.3316 71.7995)" class="st1" width="19.9" height="9.5"/>
			
				<rect x="44.9" y="87.7" transform="matrix(-0.2748 0.9615 -0.9615 -0.2748 158.7294 65.094)" class="st1" width="19.9" height="9.5"/>
			
				<rect x="56.1" y="90.9" transform="matrix(-0.2748 0.9615 -0.9615 -0.2748 176.1271 58.3886)" class="st1" width="19.9" height="9.5"/>
			
				<rect x="67.3" y="94.1" transform="matrix(-0.2748 0.9615 -0.9615 -0.2748 193.5249 51.6832)" class="st1" width="19.9" height="9.5"/>
			
				<rect x="78.5" y="97.3" transform="matrix(-0.2748 0.9615 -0.9615 -0.2748 210.9226 44.9777)" class="st1" width="19.9" height="9.5"/>
			
				<rect x="89.8" y="100.5" transform="matrix(-0.2748 0.9615 -0.9615 -0.2748 228.3204 38.2723)" class="st1" width="19.9" height="9.5"/>
		</g>
	</g>
	
		<rect x="55.8" y="62.9" transform="matrix(-1.836970e-16 1 -1 -1.836970e-16 174.1281 42.0147)" class="st28" width="20.5" height="90.2"/>
	<circle class="st28" cx="103.7" cy="103.3" r="2.6"/>
</g>
</svg>
