<?xml version="1.0" encoding="utf-8"?>
<!-- Generator: Adobe Illustrator 22.1.0, SVG Export Plug-In . SVG Version: 6.00 Build 0)  -->
<svg version="1.1" id="Graphics" xmlns="http://www.w3.org/2000/svg" xmlns:xlink="http://www.w3.org/1999/xlink" x="0px" y="0px"
	 viewBox="0 0 138.3 142.6" style="enable-background:new 0 0 138.3 142.6;" xml:space="preserve">
<style type="text/css">
	.st0{clip-path:url(#SVGID_2_);}
	.st1{fill:#3B3434;}
	.st2{opacity:0.9;}
	.st3{clip-path:url(#SVGID_4_);}
	.st4{opacity:0.9;fill:#3B3434;}
	.st5{fill:none;}
	.st6{fill:none;stroke:#3B3434;stroke-miterlimit:10;}
	.st7{fill:none;stroke:#3B3434;stroke-miterlimit:10;stroke-dasharray:2.0001,2.0001;}
	.st8{fill:none;stroke:#3B3434;stroke-miterlimit:10;stroke-dasharray:2.0599,2.0599;}
	.st9{fill:none;stroke:#3B3434;stroke-width:3;stroke-miterlimit:10;}
	.st10{fill:#939598;}
	.st11{fill:none;stroke:#3B3434;stroke-width:0.5;stroke-linecap:round;stroke-linejoin:round;stroke-miterlimit:500;}
	.st12{opacity:0.9;fill-rule:evenodd;clip-rule:evenodd;fill:#3B3434;}
	.st13{fill:none;stroke:#3B3434;stroke-width:2;stroke-miterlimit:10;}
	.st14{clip-path:url(#SVGID_8_);}
	.st15{opacity:0.9;fill:#C7C8CA;}
	.st16{opacity:0.9;fill:#939598;}
	.st17{fill:#231F20;}
	.st18{fill:#3B3534;}
	.st19{fill:#767374;}
	.st20{opacity:0.9;fill:#3B3534;}
	.st21{fill:none;stroke:#FFFFFF;stroke-miterlimit:10;}
	.st22{opacity:0.9;fill:#3B3534;enable-background:new    ;}
	.st23{fill:#3B3534;stroke:#3B3534;stroke-width:0.5;stroke-miterlimit:10;}
	.st24{fill:none;stroke:#3B3534;stroke-width:0.5;}
	.st25{fill:none;stroke:#3B3534;stroke-width:0.5;stroke-linecap:round;}
	.st26{fill-rule:evenodd;clip-rule:evenodd;fill:#3B3434;}
	.st27{fill:#FFFFFF;stroke:#3B3434;stroke-miterlimit:10;}
	.st28{fill:#FFFFFF;stroke:#3B3434;stroke-width:0.25;stroke-miterlimit:10;}
	.st29{fill-rule:evenodd;clip-rule:evenodd;fill:#EF4761;}
	.st30{fill-rule:evenodd;clip-rule:evenodd;fill:#EE365F;}
	.st31{fill-rule:evenodd;clip-rule:evenodd;fill:#D5769A;}
	.st32{fill-rule:evenodd;clip-rule:evenodd;fill:#EA395C;}
	.st33{fill:#FFFEF3;}
	.st34{fill:#E8E8E9;}
	.st35{fill:#D2CCCA;}
	.st36{fill:#524845;}
	.st37{fill:#B1A7A4;}
</style>
<path class="st4" d="M9.3,78.7C9.3,78.7,9.3,78.7,9.3,78.7C9.3,78.7,9.3,78.7,9.3,78.7L9.3,78.7z"/>
<path class="st4" d="M7.4,88L7.4,88C7.4,88,7.4,88,7.4,88L7.4,88z"/>
<polygon class="st4" points="4.5,87.4 4.5,87.4 4.5,87.4 "/>
<path class="st4" d="M6.4,84.2C6.4,84.2,6.4,84.2,6.4,84.2C6.4,84.2,6.4,84.2,6.4,84.2L6.4,84.2z"/>
<polygon class="st4" points="2.8,106.3 2.8,106.3 2.8,106.3 "/>
<polygon class="st4" points="1.8,105.9 1.8,105.9 1.8,105.9 "/>
<path class="st4" d="M69.2,0c-1.6,0-2.9,0.1-4.4,0.2L51,36.6c0,0-0.4,1.1-0.1,1.5c0.3,0.5,1.2,0.4,1.2,0.4l9.8,0.1
	c8.3,0.2,11.2,7.2,8.5,14.8l-17.3,49.1l-15,0c0,0-0.5,0-0.8-0.4c-0.4-0.5-0.1-1.3-0.1-1.3l17.7-51.2c0,0,0.5-1.1,0.2-1.6
	c-0.3-0.6-1.4-0.5-1.4-0.5l-5,0c0,0-0.9,0-1.5,0.5c-0.7,0.5-0.9,1.1-0.9,1.1L28,100.9c0,0-0.3,0.7-0.7,1c-0.3,0.2-1.1,0.3-1.1,0.3
	l-14-0.1c0,0-0.8,0-1.2-0.3c-0.5-0.4-0.1-1.2-0.1-1.2s19.3-54.5,19.9-56.2c4-10.3,15.8-40.4,15.8-40.4C19.9,13.9,0,40.3,0,71.3
	c0,32.8,21.3,60.3,50.7,68.6c0,0,35.6-98.4,36.1-99.6c0.4-1.2,1.2-1.8,1.7-1.8c0.5,0,24.4,0.1,24.4,0.1c6,0,15.5,4.4,12.7,13.2
	c-3,9.2-12.8,38.8-14.9,44.6c-2.1,5.9-9.5,7.3-14.1,7.3l-15,0.3l-14.5,38.5c0.8,0,1.5,0.1,2.3,0.1c38.2,0,69.2-31.9,69.2-71.3
	C138.3,31.9,107.4,0,69.2,0z M101.6,47.8L84.8,95.9l10,0.6l17.1-48.4L101.6,47.8z"/>
</svg>
