<?xml version="1.0" encoding="utf-8"?>
<!-- Generator: Adobe Illustrator 22.1.0, SVG Export Plug-In . SVG Version: 6.00 Build 0)  -->
<svg version="1.1" id="Graphics" xmlns="http://www.w3.org/2000/svg" xmlns:xlink="http://www.w3.org/1999/xlink" x="0px" y="0px"
	 viewBox="0 0 144 144" style="enable-background:new 0 0 144 144;" xml:space="preserve">
<style type="text/css">
	.st0{clip-path:url(#SVGID_2_);}
	.st1{fill:#3B3434;}
	.st2{opacity:0.9;}
	.st3{clip-path:url(#SVGID_4_);}
	.st4{opacity:0.9;fill:#3B3434;}
	.st5{fill:none;}
	.st6{fill:none;stroke:#3B3434;stroke-miterlimit:10;}
	.st7{fill:none;stroke:#3B3434;stroke-miterlimit:10;stroke-dasharray:2.0001,2.0001;}
	.st8{fill:none;stroke:#3B3434;stroke-miterlimit:10;stroke-dasharray:2.0599,2.0599;}
	.st9{fill:none;stroke:#3B3434;stroke-width:3;stroke-miterlimit:10;}
	.st10{fill:#939598;}
	.st11{fill:none;stroke:#3B3434;stroke-width:0.5;stroke-linecap:round;stroke-linejoin:round;stroke-miterlimit:500;}
	.st12{opacity:0.9;fill-rule:evenodd;clip-rule:evenodd;fill:#3B3434;}
	.st13{fill:none;stroke:#3B3434;stroke-width:2;stroke-miterlimit:10;}
	.st14{clip-path:url(#SVGID_8_);}
	.st15{opacity:0.9;fill:#C7C8CA;}
	.st16{opacity:0.9;fill:#939598;}
	.st17{fill:#231F20;}
	.st18{fill:#3B3534;}
	.st19{fill:#767374;}
	.st20{opacity:0.9;fill:#3B3534;}
	.st21{fill:none;stroke:#FFFFFF;stroke-miterlimit:10;}
	.st22{opacity:0.9;fill:#3B3534;enable-background:new    ;}
	.st23{fill:#3B3534;stroke:#3B3534;stroke-width:0.5;stroke-miterlimit:10;}
	.st24{fill:none;stroke:#3B3534;stroke-width:0.5;}
	.st25{fill:none;stroke:#3B3534;stroke-width:0.5;stroke-linecap:round;}
	.st26{fill-rule:evenodd;clip-rule:evenodd;fill:#3B3434;}
	.st27{fill:#FFFFFF;stroke:#3B3434;stroke-miterlimit:10;}
	.st28{fill:#FFFFFF;stroke:#3B3434;stroke-width:0.25;stroke-miterlimit:10;}
	.st29{fill-rule:evenodd;clip-rule:evenodd;fill:#EF4761;}
	.st30{fill-rule:evenodd;clip-rule:evenodd;fill:#EE365F;}
	.st31{fill-rule:evenodd;clip-rule:evenodd;fill:#D5769A;}
	.st32{fill-rule:evenodd;clip-rule:evenodd;fill:#EA395C;}
	.st33{fill:#FFFEF3;}
	.st34{fill:#E8E8E9;}
	.st35{fill:#D2CCCA;}
	.st36{fill:#524845;}
	.st37{fill:#B1A7A4;}
</style>
<g class="st2">
	<path class="st1" d="M72,2.9c38,0,69,31,69,69s-31,69-69,69s-69-31-69-69S34,2.9,72,2.9 M72-0.1c-39.8,0-72,32.2-72,72
		s32.2,72,72,72s72-32.2,72-72S111.8-0.1,72-0.1L72-0.1z"/>
</g>
<g id="Graphics_1_">
	<g class="st2">
		<path class="st18" d="M72,3c38,0,69,31,69,69s-31,69-69,69S3,110,3,72S34,3,72,3 M72,0C32.2,0,0,32.2,0,72s32.2,72,72,72
			s72-32.2,72-72S111.8,0,72,0L72,0z"/>
	</g>
	<g class="st2">
		<path class="st24" d="M69.7,12.3l-0.7-1C45,22.8,20.4,56.6,24.2,75.5c-0.2,1.2-1.7,5-1.7,5s1.1,5.2,1.7,5.3l4.7-2.2l1.2,0.1l2,0.7
			c-2.9-22.8,7.5-48.9,38.2-65.3l0.1-0.7"/>
		<path class="st24" d="M29,83.7c-4.9-40.3,33.8-66,41-68.2"/>
		<path class="st24" d="M69.9,15.6c0,0-1.7-1.1-0.5-2.8c0.6-1,1.8-0.4,1.8-0.4l0.8-1.2c29,14.4,48.8,42.8,47.5,62.9
			c0.2,1.2,2,4.9,2,4.9s-1,5-1.6,5.2l-4.9-1.8c0,0-0.5-0.1-0.8-0.1s-1.2,0.6-1.2,0.6c6.9-24.3-21.2-56.6-42.4-64.3L69.9,15.6z"/>
		<path class="st24" d="M114.9,82.4c5.4-32.9-29.7-60.5-45.1-66.8"/>
		<path class="st24" d="M69.7,13.8c0-0.5,0.4-0.8,0.8-0.8c0.5,0,0.8,0.4,0.8,0.8c0,0.5-0.4,0.8-0.8,0.8S69.7,14.3,69.7,13.8z"/>
		<path class="st24" d="M70.8,13.8c0,0.1-0.1,0.2-0.2,0.2s-0.2-0.1-0.2-0.2c0-0.1,0.1-0.2,0.2-0.2S70.8,13.7,70.8,13.8z"/>
		<path class="st24" d="M118.6,83.7l1.2,0.7c-5.2,16.1-23.9,47.7-29.8,51.9c-1.1,0.1-3-0.5-3-0.5s-1.7-3.1-1.6-3.7
			c0.2-0.7,4.8-4.6,5.9-6.1c1.2-1.6,17.8-25.2,23.6-43.5"/>
		<path class="st25" d="M88.3,128.2c-0.8,1.1-1.6,2.1-2.4,3.2"/>
		<path class="st25" d="M112.9,82.8c-2.9,8.6-10.4,23.5-18.5,36.4"/>
		<path class="st25" d="M85.1,125c0,0,0.6-0.1,1-0.4c0.2-0.2,5.8-7.7,5.4-7.9"/>
		<path class="st25" d="M87.6,128.1l-1.1,0.2l-1.4-3.1V125l-0.4-0.2l-1.1-3.7c0,0,4.3-6.1,4.4-6.1s0.5-0.1,0.8-0.1
			c0.2,0,5.2,3.8,5.2,3.8c0.2,0.4,0.8,0.8,0.8,0.8l-6.6,8.7c0,0-1.1-0.2-1.3-0.6c-0.2-0.5-1-2.9-1-2.9s-0.2-0.1-0.4-0.2
			s-1.2-3.7-1.1-3.8c0.1-0.2,4.2-5.5,4.1-5.5"/>
		<path class="st25" d="M83.9,121c0.2-0.1,0.6-0.5,0.6-0.5"/>
		<path class="st25" d="M88,110.1c-0.1,1-0.1,1.7-0.1,1.8c0.1,0.2,0.5,0.2,0.5,0.2l-0.2,2.8"/>
		<path class="st24" d="M94,118.6c0.2-0.2,1.4-2.2,1.7-2.5c0.2-0.5,0.2-2,0.1-2.3c0.2-0.5,0.1-1.7,0.1-1.7s0.4-0.1,0.6-0.5
			c0.2-0.7-0.1-3.7-0.1-3.8c1.2-0.7,3.1-5.8,4.8-7.7c3.4-5,4.2-33.3,1.3-39.4c-0.7-1.4-2.4-5.3-3.4-5.9C98,54.2,92,54.1,92,54.1
			c0,0.4,0.1,0.7,0.1,1.1"/>
		<polyline class="st24" points="91.5,116.6 92.4,115.2 92.5,113.6 		"/>
		<path class="st24" d="M95.8,113.7c0-0.1-3.1-0.2-3.2-0.2c-0.1-0.1-3.7-0.4-3.7-0.2"/>
		<path class="st24" d="M88.5,114.6c0-0.4,0.2-1.3,0.2-1.3c0-0.1,0.5-1.7,0.2-1.7l-0.6,0.5"/>
		<path class="st25" d="M95.9,112l-7-0.4c0,0,0.5-0.1,0.7-0.1s6.9,0,6.9,0"/>
		<path class="st25" d="M100,55.5c1.9,4.7,2.5,16.7,2.2,21.9"/>
		<path class="st24" d="M86.1,110.4c0,0,1.8,0.1,2.5-1c5.3-8.1,6.9-52.8,2-59.4c-0.5-0.6-1.9-0.7-1.9-0.7
			C93.5,53.2,92.8,105.6,86.1,110.4z"/>
		<path class="st24" d="M98.6,104.5c1-1,3.5-23.2,3-28.4c-0.1-0.6-1.4-3.2-3.8-3.2s-3.8,2.4-3.8,3s-0.4,25.5-4.4,33.3
			c0,0-0.2,0.4-1.1,0.5"/>
		<path class="st25" d="M96.6,104.4c2.5-1.7,3.1-26.3,3-27.9c0-0.8-1.1-2-2.3-2.2c-1.2-0.1-2.5,1-2.5,1.6
			c-0.1,0.6-1.6,20.8-2.5,26.6v1.4"/>
		<path class="st24" d="M86.1,110.4c-0.6,0-2-0.1-2-0.1c4.8,0,7.5-58.7,2-61c0,0,1.3-0.1,2.5-0.1"/>
		<path class="st24" d="M85.6,50c0,0,0.2-0.6,0.5-0.6"/>
		<path class="st24" d="M83,109.3c0,0,0.5,0.8,1,0.8"/>
		<path class="st24" d="M78.7,109c1.1,0.7,3.7,1.2,4.6,0.1c5.7-11.5,5.3-50,2.5-59c-1-0.6-3.4-2.4-4.7-0.4"/>
		<path class="st24" d="M72.2,58.1c1.8-8.1,4.9-9.1,9.1-8.5c4.6,1.3,3,57.9-2.2,58.9c-5.2,3-6.5-3.4-6.5-3.4L72.2,58.1z"/>
		<path class="st24" d="M100.1,123.3c0,0,0.2,0.4,0.2,0.7s-1,2.4-1,2.4l-3.5,4.4c0,0-1.3,1-1.4,1.1s-0.5,0.1-0.5,0.1"/>
		<path class="st24" d="M95.9,130.7c1.4,0.1,4-3.7,3.5-4.4"/>
		<path class="st24" d="M25,85.7c-0.2,0.1-0.7,0.5-0.8,0.6c7.7,19.7,26.1,45.9,32.3,50.1c1.4,0,1.1-0.4,3.2-0.4
			c0.5-0.7,1.3-3.5,1.4-4.1C47.9,124,32.9,93.7,29,83.7"/>
		<path class="st24" d="M87,135.8c2.2-1.3,20.4-21.9,31.3-52.2"/>
		<path class="st24" d="M58.7,128.1c0.9,1.3,1.7,2.6,2.5,4"/>
		<path class="st24" d="M32.2,84.6c0.2,0.2,0.7,0.5,0.7,0.6c7.7,17.8,14,27.3,18.9,33.9"/>
		<path class="st24" d="M57.8,113.2c0.4,0.1,0.2,0.4,0.6,1.2c0.7,1.7,4.2,5.7,4.3,5.9c0.1,0.2-0.7,3.6-0.7,3.6
			c0,0.1-0.4,0.2-0.4,0.2s0.1,0.2,0,0.2c0,0.1-0.6,2-0.8,2.4c-0.2,0.8-1.7,1.4-2.2,1.3c-2.3-1.7-7.1-8.2-6.9-9
			c0-0.2,0.2-0.5,0.2-0.5c-1.9-2.4-2-2.9-2.2-4.7l0.2-0.1l-0.2-0.1c0,0-0.1-1.2,0-1.4c0.7-0.2,7.2-1,7.8-0.8
			C57.8,111.8,58,113.2,57.8,113.2z"/>
		<path class="st24" d="M50.2,114c0,0,2.6-0.2,2.9-0.2c0.4-0.1,4.6-0.4,4.8-0.6"/>
		<path class="st24" d="M53.1,113.8c0,0,0.1,1.3,0.1,1.7c0,0.4,0.8,1.1,1.1,1.4c-0.5,0.4,2.4,5.2,5.8,8.1l1.8-1.1"/>
		<path class="st24" d="M52,118.8c0.2-0.6,4.1-3.5,4.7-3.7c1.3-0.1,1.8-0.4,1.8-0.4"/>
		<path class="st24" d="M56.8,115.1c0.1,0.5,3.7,5,4.3,5.5s-1,4-1,4.2s-1,2.3-1,3.4"/>
		<path class="st24" d="M61.2,120.8c0,0,1.2-0.2,1.6-0.5"/>
		<path class="st24" d="M45.5,54.4c-2,3.4-0.7,23.8-0.7,23.8"/>
		<path class="st24" d="M48.2,105.4c-0.5-1.6-2.9-26.9-2.8-28c0.2-1.9,2.2-3.6,3.8-3.6s3.5,1.1,4,2.6c0.5,8.3,2,29.1,3.6,32.3
			c0.5,0.5,0.7,0.6,0.7,0.6c0.1,0.2,0.2,1.8,0,2c-0.5,0.2-7.6,0.6-7.9,0.5c-0.1-0.5,0-3.6,0-3.6s-0.4-0.4-0.5-0.6
			C49,107.2,48.4,105.7,48.2,105.4c-2.8-3.8-3.4-4.8-3.5-5.4c-1.9-5-4-34.1-2.3-39.6c0.5-1.8,2.8-5.7,3.1-6c0.5-0.6,8.1-0.7,8.1-0.7
			"/>
		<path class="st24" d="M49.4,75.7c0,0-1.3,0.2-1.3,1.6c0,0,1.1,23.2,2.2,26.2"/>
		<path class="st24" d="M56,48.9c-0.4-0.1-1.6,0.4-1.6,0.4c-2.8,3.8,0.6,60.8,4.1,60.8c0,0,1.1,0,1.2,0
			C57.2,108.7,53.8,52.7,56,48.9z"/>
		<path class="st24" d="M56,48.9c0,0,1.9-0.1,2.4,0.1c-2.9,2.4,0.2,58.3,3.7,60.6c-0.2,0.2-2.3,0.5-2.3,0.5"/>
		<path class="st24" d="M59,50.1c0.5-1.6,3.8-1.8,4.2-0.7c-1.8,5.9,1.8,54.7,3.4,59.3c-0.7,1.1-3,1.1-4.2,0.1
			C59.5,97.7,58,55,59,50.1z"/>
		<path class="st24" d="M62,109.6c0,0,0.4-0.2,0.5-0.8"/>
		<path class="st24" d="M66.7,108.6c4.1,1.7,5.5-0.7,6-3.5"/>
		<path class="st24" d="M63.3,49.2c3.2-0.5,7.5-0.1,9,8.9"/>
		<path class="st24" d="M59.5,136c-10.2-5.8-27.2-34.9-33.9-50.7"/>
		<path class="st24" d="M46.3,125.1c-0.1,1.7,3.8,6.4,5.5,6.9"/>
		<path class="st24" d="M46.9,127c-0.8,1.1,2.8,4.8,3.7,4.2"/>
	</g>
</g>
</svg>
