<?xml version="1.0" encoding="utf-8"?>
<!-- Generator: Adobe Illustrator 22.1.0, SVG Export Plug-In . SVG Version: 6.00 Build 0)  -->
<svg version="1.1" id="Graphics" xmlns="http://www.w3.org/2000/svg" xmlns:xlink="http://www.w3.org/1999/xlink" x="0px" y="0px"
	 viewBox="0 0 144 144" style="enable-background:new 0 0 144 144;" xml:space="preserve">
<style type="text/css">
	.st0{clip-path:url(#SVGID_2_);}
	.st1{fill:#3B3434;}
	.st2{opacity:0.9;}
	.st3{clip-path:url(#SVGID_4_);}
	.st4{opacity:0.9;fill:#3B3434;}
	.st5{fill:none;}
	.st6{fill:none;stroke:#3B3434;stroke-miterlimit:10;}
	.st7{fill:none;stroke:#3B3434;stroke-miterlimit:10;stroke-dasharray:2.0001,2.0001;}
	.st8{fill:none;stroke:#3B3434;stroke-miterlimit:10;stroke-dasharray:2.0599,2.0599;}
	.st9{fill:none;stroke:#3B3434;stroke-width:3;stroke-miterlimit:10;}
	.st10{fill:#939598;}
	.st11{fill:none;stroke:#3B3434;stroke-width:0.5;stroke-linecap:round;stroke-linejoin:round;stroke-miterlimit:500;}
	.st12{opacity:0.9;fill-rule:evenodd;clip-rule:evenodd;fill:#3B3434;}
	.st13{fill:none;stroke:#3B3434;stroke-width:2;stroke-miterlimit:10;}
	.st14{clip-path:url(#SVGID_8_);}
	.st15{opacity:0.9;fill:#C7C8CA;}
	.st16{opacity:0.9;fill:#939598;}
	.st17{fill:#231F20;}
	.st18{fill:#3B3534;}
	.st19{fill:#767374;}
	.st20{opacity:0.9;fill:#3B3534;}
	.st21{fill:none;stroke:#FFFFFF;stroke-miterlimit:10;}
	.st22{opacity:0.9;fill:#3B3534;enable-background:new    ;}
	.st23{fill:#3B3534;stroke:#3B3534;stroke-width:0.5;stroke-miterlimit:10;}
	.st24{fill:none;stroke:#3B3534;stroke-width:0.5;}
	.st25{fill:none;stroke:#3B3534;stroke-width:0.5;stroke-linecap:round;}
	.st26{fill-rule:evenodd;clip-rule:evenodd;fill:#3B3434;}
	.st27{fill:#FFFFFF;stroke:#3B3434;stroke-miterlimit:10;}
	.st28{fill:#FFFFFF;stroke:#3B3434;stroke-width:0.25;stroke-miterlimit:10;}
	.st29{fill-rule:evenodd;clip-rule:evenodd;fill:#EF4761;}
	.st30{fill-rule:evenodd;clip-rule:evenodd;fill:#EE365F;}
	.st31{fill-rule:evenodd;clip-rule:evenodd;fill:#D5769A;}
	.st32{fill-rule:evenodd;clip-rule:evenodd;fill:#EA395C;}
	.st33{fill:#FFFEF3;}
	.st34{fill:#E8E8E9;}
	.st35{fill:#D2CCCA;}
	.st36{fill:#524845;}
	.st37{fill:#B1A7A4;}
</style>
<g class="st2">
	<path class="st1" d="M72,3c38,0,69,31,69,69s-31,69-69,69S3,110,3,72S34,3,72,3 M72,0C32.2,0,0,32.2,0,72s32.2,72,72,72
		s72-32.2,72-72S111.8,0,72,0L72,0z"/>
</g>
<path class="st12" d="M68.3,73.1v32.5l44.9,6.2V73.1H68.3z M65,73.1H30.8v27.6l34.2,4.9V73.1z M65,69.9V38.4l-34.2,4.9v26.6H65z
	 M68.3,38.4l44.9-6.2v37.7H68.3V38.4z"/>
</svg>
