<?xml version="1.0" encoding="utf-8"?>
<!-- Generator: Adobe Illustrator 22.1.0, SVG Export Plug-In . SVG Version: 6.00 Build 0)  -->
<svg version="1.1" id="Graphics" xmlns="http://www.w3.org/2000/svg" xmlns:xlink="http://www.w3.org/1999/xlink" x="0px" y="0px"
	 viewBox="0 0 144 144" style="enable-background:new 0 0 144 144;" xml:space="preserve">
<style type="text/css">
	.st0{clip-path:url(#SVGID_2_);}
	.st1{fill:#3B3434;}
	.st2{opacity:0.9;}
	.st3{clip-path:url(#SVGID_4_);}
	.st4{opacity:0.9;fill:#3B3434;}
	.st5{fill:none;}
	.st6{fill:none;stroke:#3B3434;stroke-miterlimit:10;}
	.st7{fill:none;stroke:#3B3434;stroke-miterlimit:10;stroke-dasharray:2.0001,2.0001;}
	.st8{fill:none;stroke:#3B3434;stroke-miterlimit:10;stroke-dasharray:2.0599,2.0599;}
	.st9{fill:none;stroke:#3B3434;stroke-width:3;stroke-miterlimit:10;}
	.st10{fill:#939598;}
	.st11{fill:none;stroke:#3B3434;stroke-width:0.5;stroke-linecap:round;stroke-linejoin:round;stroke-miterlimit:500;}
	.st12{opacity:0.9;fill-rule:evenodd;clip-rule:evenodd;fill:#3B3434;}
	.st13{fill:none;stroke:#3B3434;stroke-width:2;stroke-miterlimit:10;}
	.st14{clip-path:url(#SVGID_8_);}
	.st15{opacity:0.9;fill:#C7C8CA;}
	.st16{opacity:0.9;fill:#939598;}
	.st17{fill:#231F20;}
	.st18{fill:#3B3534;}
	.st19{fill:#767374;}
	.st20{opacity:0.9;fill:#3B3534;}
	.st21{fill:none;stroke:#FFFFFF;stroke-miterlimit:10;}
	.st22{opacity:0.9;fill:#3B3534;enable-background:new    ;}
	.st23{fill:#3B3534;stroke:#3B3534;stroke-width:0.5;stroke-miterlimit:10;}
	.st24{fill:none;stroke:#3B3534;stroke-width:0.5;}
	.st25{fill:none;stroke:#3B3534;stroke-width:0.5;stroke-linecap:round;}
	.st26{fill-rule:evenodd;clip-rule:evenodd;fill:#3B3434;}
	.st27{fill:#FFFFFF;stroke:#3B3434;stroke-miterlimit:10;}
	.st28{fill:#FFFFFF;stroke:#3B3434;stroke-width:0.25;stroke-miterlimit:10;}
	.st29{fill-rule:evenodd;clip-rule:evenodd;fill:#EF4761;}
	.st30{fill-rule:evenodd;clip-rule:evenodd;fill:#EE365F;}
	.st31{fill-rule:evenodd;clip-rule:evenodd;fill:#D5769A;}
	.st32{fill-rule:evenodd;clip-rule:evenodd;fill:#EA395C;}
	.st33{fill:#FFFEF3;}
	.st34{fill:#E8E8E9;}
	.st35{fill:#D2CCCA;}
	.st36{fill:#524845;}
	.st37{fill:#B1A7A4;}
</style>
<g class="st2">
	<path class="st1" d="M72,3c38,0,69,31,69,69s-31,69-69,69S3,110,3,72S34,3,72,3 M72,0C32.2,0,0,32.2,0,72s32.2,72,72,72
		s72-32.2,72-72S111.8,0,72,0L72,0z"/>
</g>
<path class="st1" d="M83.9,121.1l-6.4-8.3c0.7-0.5,1-1,1.2-1.3c0.9-1.3,0.9-2.8,0.1-4c-0.2-0.3-0.4-0.6-0.7-0.8l0,0L62.5,89.6
	l-0.2-0.2c0,0,0-0.1,0-0.1h3.8c0.1,0.3,0.3,0.6,0.6,0.6c0.4,0,0.6-0.4,0.6-0.8s-0.3-0.8-0.6-0.8c-0.3,0-0.5,0.2-0.6,0.6h-4
	c-0.1-0.1-0.1-0.3-0.2-0.4l2.6-1.8c0.1,0.3,0.3,0.4,0.6,0.4c0.4,0,0.6-0.4,0.6-0.8c0-0.5-0.3-0.8-0.6-0.8c-0.3,0-0.6,0.3-0.6,0.7
	L61.8,88c-0.2-1.1-0.8-2-1.7-2.8c-1.2-2-2.6-3.9-4-5.7l0,0c0,0-0.1,0-0.1-0.1c-0.9-1.1-1.8-2.1-2.8-3.1c0,0-0.9-1-1.4-2.5
	c-0.7-1.9-0.4-3.7,0.7-5.2c0.1-0.1,1.9-2.7,4.4-6.4c2.1-1.9,3.8-4.2,4.9-7.2l0,0c3.2-3.5,5.8-8.4,7.2-15.2l0,0
	c0.2-0.6,0.4-1.2,0.5-1.8c0.6-0.9,1.1-1.8,1.2-2.7c0.2-1.2-0.1-2.4-0.8-3.6c0-0.1-0.1-0.2-0.1-0.3c0.1-0.7,0-1.1-0.3-1.4l0,0
	c-1.7-2-3.9-2.6-6.2-2.3c-1.8-3-4.7-3-8.1-1.8l0.3-0.2c-1.2-1.7-2.7-2.3-4.5-2.2c-1-2.1-0.6-5-0.4-6.2c0.1-0.5,0.1-0.6,0-0.7
	c-0.3-1-2.4-1.4-4.4-1.7c-0.1,0-0.1,0-0.2,0v-0.1c-0.1,0-0.2,0-0.3,0c1.6-5.1,0.9-7.2-0.2-7.9c-0.7-0.5-1.4-0.5-1.7-0.4l-0.2,0l0,0
	c-0.3,0-1.2,0-1.9,0.6c-1.1,0.8-1.8,2.9,0,7.8c-0.1,0-0.2,0-0.3,0v0.1c-0.1,0-0.1,0-0.2,0c-2.1,0.3-4.4,0.8-4.6,1.8
	c-0.1,0.1,0,0.2,0,0.7c0.2,1.2,0.6,4.5-0.6,6.6c-0.6,1.1-4.4,2.1-8.1,3c-0.6,0.2-1.2,0.3-1.9,0.5l-1.2-5.1c0.3-0.1,0.6-0.4,0.6-0.7
	c0-0.4-0.4-0.7-1-0.7c-0.5,0-1,0.3-1,0.7c0,0.4,0.4,0.7,0.9,0.7l1.2,5.2c-0.1,0-0.2,0.1-0.3,0.1L20,23.8c0.1-0.1,0.2-0.3,0.2-0.4
	c0-0.3-0.3-0.6-0.6-0.7c-0.4,0.4-0.7,0.7-1.1,1.1c0.2,0.2,0.4,0.3,0.7,0.3c0.1,0,0.3,0,0.4-0.1l5.1,3.6c0,0-0.1,0-0.1,0
	c-0.5,0.1-1,0.3-1.4,0.4l-0.1,0c-3,0.9-4.6,1.7-5.3,2.7c-2.5,3.4,1.1,12,5.6,20.2c0,0,0,0,0,0.1c-0.1,0.1-0.1,0.2-0.2,0.4
	c-0.1,0.8,0.6,2.6,4.1,6.4c0,0.2-0.1,0.4-0.1,0.7l0.1,0l-0.1,0c0.9,3.2,5.3,8.2,7.4,10.6c0.3,0.4,0.7,0.8,0.9,1
	c0.2,0.5,0.3,1,0.3,1.5c0,0,0,0,0,0l-4.1-1.2c0-0.5-0.3-0.8-0.6-0.8c-0.4,0-0.6,0.4-0.6,0.9c0,0.5,0.3,0.9,0.6,0.9
	c0.3,0,0.5-0.3,0.6-0.6l4.2,1.2c0,0.1,0,0.2,0,0.4l-4.3,0.3c-0.1-0.4-0.3-0.6-0.6-0.6c-0.4,0-0.6,0.4-0.6,0.9c0,0.5,0.3,0.9,0.6,0.9
	c0.3,0,0.6-0.4,0.6-0.8l4.2-0.3c-0.2,1.2-0.8,2.2-1.2,2.8l0,0c-1.5,1.5-2.7,2.8-3.5,3.9c-0.6,0.7-1.2,1.5-1.8,2.3
	c-5.2,5.7-7.1,9.1-6.1,10.8c0,0.1,0.1,0.1,0.1,0.2c0,0,0,0,0,0c-3.1,4.7-4,7.7-2.8,9.1c0,0,0,0,0,0c0,0.1,0,0.1,0,0.2l0,0
	c-2.7,5.8-3.3,9.3-1.8,10.6c0.1,0.1,0.2,0.1,0.2,0.2l0,0c-0.7,2.3-1.2,4.3-1.5,6c0.1,0.1,0.2,0.3,0.4,0.4c0.2-1.3,0.5-2.9,1-4.6
	c-0.1,1.3-0.1,2.5-0.1,3.9c0,0.6,0,1.1,0,1.7c0.1,0.2,0.3,0.3,0.4,0.5c0-2.7,0.1-5.3,0.3-7.7c0.3,0.1,0.6,0.2,1,0.2
	c4.6,0,14.5-6.9,24.2-13.5c7.4-5.1,14.3-9.9,16.9-10.1c-1.6,1.9-9.6,11-18.3,19.7c-8.6,8.5-15.1,13.9-19.5,16.1
	c0.1,0.1,0.2,0.2,0.4,0.3c0.5-0.2,1-0.5,1.6-0.9c4.3-2.6,10.3-7.7,17.9-15.2c7.8-7.8,15.1-16.1,17.6-19
	c-4.5,8.2-10.9,16.4-13.4,19.2l0.3,0.3c2.5-2.8,8.6-10.6,13.1-18.6c-3.6,11.2-15.5,29.1-25.9,40.1c-0.5,0.5-0.9,1-1.4,1.4
	c0.1,0.1,0.2,0.1,0.3,0.2c3.2-3.1,6.4-6.9,9.2-10.5C51.6,112.2,58.2,101,61.1,93c-3.4,16-10.4,32.7-17.7,45.1
	c0.1,0.1,0.2,0.1,0.4,0.2c0.4-0.6,0.7-1.2,1.1-1.9c8-14.3,14.4-31.4,17.2-45.9c-1.2,16.5-3.9,33.7-7.8,49.2
	c-0.2,0.6-0.3,1.3-0.5,1.9c0.1,0,0.3,0.1,0.4,0.1c1.9-7.5,3.6-15.5,5-23.6c0.1,0.6,0.4,1.2,0.9,1.7c1.8,2,4.9,2,8,1.2
	c0,7.3-0.8,14.5-2,21.1c-0.1,0.5-0.2,1-0.3,1.6c0.1,0,0.3,0,0.4,0c1.3-7,2.2-14.8,2.2-22.8c1.1-0.3,2.1-0.7,3.1-1.2
	c1.8-0.8,5.5-1.9,9-0.4c1.1,0.5,2.1,1.1,2.9,2l0.2,0.2l0,0c1.2,1.3,2.2,3,3,5.1c1.4,3.9-0.2,9-3.2,14.6c-0.4,0.7-0.7,1.3-1.1,2
	c0.2,0,0.4,0,0.6-0.1c3.6-6.2,5.8-12.2,4.2-16.7C86.3,124.3,85.2,122.5,83.9,121.1z M70.2,33.5c0.1,0.6,0.2,1.2,0.1,1.8
	c-0.1,0.4-0.2,0.9-0.4,1.3C70.1,35.5,70.2,34.4,70.2,33.5z M52.1,68.4c-3,4,0.7,8.2,0.7,8.3c0.6,0.6,1.2,1.2,1.8,1.9
	c-3.6-2.2-7.2-2.4-10.4-2.6c-3.4-0.2-6.3-0.4-8.2-3c0.1-0.4,0.1-0.8,0.1-1.2c0.6-0.8,2.8-1.5,5.6-2.3c4.2-1.2,9.7-2.9,14.1-6.3
	C54,65.8,52.6,67.8,52.1,68.4z M56.6,61.9c-4.5,4-10.5,5.9-15,7.2c-2.6,0.8-4.5,1.4-5.5,2.1c0-0.2-0.1-0.4-0.1-0.6
	c1.3-2.7,4.8-4.1,9.3-5.8c4.4-1.7,9.7-3.7,14.2-7.6C58.6,58.9,57.6,60.5,56.6,61.9z M58.1,60.4c0.9-1.3,1.8-2.8,2.7-4.3
	c0.1-0.1,0.2-0.2,0.2-0.2C60.2,57.6,59.2,59.1,58.1,60.4z M61.8,54.3c2.2-3.8,4.4-7.8,6-11.6C66.4,47.7,64.3,51.4,61.8,54.3z
	 M69.1,30.4c0.1,0.1,0.2,0.2,0.2,0.5l-0.1,0c-0.1-0.2-0.3-0.4-0.5-0.5C68.9,30.3,69.1,30.3,69.1,30.4z M41.3,15.3
	c0.3,0,0.5-0.1,0.6-0.1c0.2,0.5,0.4,1.1,0.7,1.7l0.4-0.2c-2.5-5.6-2.1-8-1.4-9c0.7-1,2-0.9,2-0.9l0,0l0,0l0.1,0l0,0l0.2,0l0-0.1
	l0,0.1c0,0,1-0.2,1.7,0.6c0.8,0.9,1.3,3.3-1,9.2l0.4,0.2c0.2-0.6,0.4-1.1,0.6-1.6c0.1,0,0.3,0.1,0.5,0.1c2.5,0.4,3.8,0.9,4,1.4
	c-0.2,0.3-1.5,1.7-6.6,1.6l0,0.2l0-0.2c-5,0.1-6.3-1.3-6.6-1.6C37.2,16.1,38.6,15.6,41.3,15.3z M28,27.2c4.1-1.1,7.6-2,8.4-3.2
	c1.3-2.1,0.9-5.3,0.7-6.7c0.7,0.6,2.5,1.5,6.5,1.4c0,0,0,0,0,0c0,0,0,0,0,0c4,0,5.8-0.8,6.5-1.4c-0.2,1.2-0.5,4,0.4,6.1
	c-2.6,0.2-5.6,1.7-8.6,3.2c-5.5,2.7-11.2,5.5-14.3,0.7C27.8,27.3,27.9,27.3,28,27.2z M26.5,27.6c0.7,2,2.1,3.5,4.1,4.3
	c1,0.4,2,0.6,3.1,0.6c2.1,0,4.4-0.7,6.8-2l-0.2-0.4c-3.5,1.9-6.9,2.4-9.6,1.4c-1.8-0.7-3.1-2.1-3.8-4c0.1,0,0.2,0,0.2-0.1
	c1.3,2.2,3.1,3,5.1,3c2.9,0,6.4-1.7,9.8-3.4c5.3-2.6,10.2-5,13-1.1c-2.2,0.8-4.7,2.1-7.2,3.5c-5.6,3-11.4,6.1-16,4.5
	c-2.4-0.8-4.2-2.8-5.6-6.1C26.3,27.7,26.4,27.6,26.5,27.6z M25.8,27.8c1.5,3.4,3.4,5.5,5.9,6.4c0.9,0.3,1.9,0.5,2.9,0.5
	c4.2,0,8.9-2.5,13.5-5c6.4-3.4,11.9-6.4,14.7-2c-3.5,0.5-7.5,2.8-11.6,5.1C45,36.4,38.5,40,33.3,38c-3.3-1.3-5.8-4.6-7.7-10.2
	C25.6,27.8,25.7,27.8,25.8,27.8z M38.1,42C29.9,42.8,25.5,29.8,25,28c0,0,0.1,0,0.2,0c1.9,5.7,4.6,9.2,8,10.5
	c1.1,0.4,2.2,0.6,3.4,0.6c4.7,0,9.9-2.9,14.9-5.8c6.8-3.8,13.2-7.5,17.3-3.3c-1,0.2-2.9,1.5-6,3.9c-6.7,5-17.9,13.4-26.8,10.4
	C31,42.4,27.3,37.3,24.8,29c0.5,1.4,1.5,4,3,6.5c2.8,4.6,6.1,7,9.6,7c0.2,0,0.5,0,0.7,0L38.1,42z M18.1,31c0.8-1.1,3.3-1.9,5.1-2.5
	l0.2-0.1c0.3-0.1,0.5-0.2,0.8-0.2c1.9,6.8,4.6,11.6,8,14.3c-3.3,1.1-7.4,6.4-8.6,8c-0.1-0.2-0.2-0.3-0.3-0.5
	C18,40.3,16.2,33.7,18.1,31z M23.6,51.4c0.9,1.6,1.8,3.2,2.7,4.7C23.4,52.7,23.5,51.6,23.6,51.4z M23.8,51c1-1.3,5.3-7.2,8.7-8.1
	l0-0.2c1,0.8,2.2,1.4,3.3,1.8c1.4,0.5,2.8,0.7,4.2,0.7c1.1,0,2.2-0.1,3.3-0.3c-0.6,1-2.8,2.3-5.5,3.8c-4.1,2.4-9.1,5.3-10.4,8.6
	C26.3,55.3,25,53.2,23.8,51z M27.6,58.5c0-0.1,0-0.1,0-0.2c2.6,4.2,5,7.7,6.4,9.6C31.8,65.3,28.4,61.2,27.6,58.5z M35.3,68.8
	C35.3,68.8,35.3,68.9,35.3,68.8c0,0-0.1,0-0.1-0.1l0,0c0,0-1.4-2.6-1.4-6c0-4.5,2.2-8.1,6.5-10.8l-0.2-0.4c-8.3,5.1-7,12.6-5.9,15.8
	c-1.3-1.9-3.7-5.2-6.2-9.3l0,0c0,0-0.1-0.1-0.1-0.1c0-0.1-0.1-0.2-0.1-0.2c0.9-3.3,6.1-6.2,10.3-8.7c2.9-1.7,5.2-3,5.7-4.1l-0.3-0.1
	c7.2-1.5,14.5-7,19.5-10.7c2.2-1.7,4.2-3.2,5.3-3.6c0.4,0.5,0.8,0.9,1.1,1.4c0.5,1.4,0.4,3.4-0.4,6.1c-2.4,3.2-7.8,6.2-13.4,9.4
	C45.5,53,34.1,59.3,35.3,68.8z M35.7,67.3c0.2-8.4,10.7-14.3,20.2-19.6c5.4-3,10.3-5.7,12.9-8.6c-1,3.1-2.8,7-5.3,11.6
	c-1,1.8-2,3.5-3,5.2c-4.7,4.7-10.5,6.9-15.2,8.7c-4.3,1.6-7.7,2.9-9.3,5.4c-0.1-0.4-0.1-0.7-0.2-1.1c0.4-3.9,5.5-6.6,10.5-9.1
	c2.9-1.5,5.6-2.9,7.5-4.5l-0.3-0.3c-1.8,1.6-4.6,3-7.4,4.5C41.6,61.6,37,63.9,35.7,67.3z M35.6,74.5c0.4,1.3,1.7,3.7,6.6,4.1l0-0.4
	c-6-0.5-6.3-4.3-6.3-4.4l0,0c0-0.1,0-0.1,0.1-0.2c2,2.5,4.9,2.7,8.3,2.9c3.5,0.2,7.5,0.5,11.5,3.4c1.2,1.5,2.4,3.1,3.4,4.7
	c-2.6-1.6-6.6-2.2-10.6-2.7c-6.4-0.9-13-1.8-13.1-6.9C35.5,74.7,35.5,74.6,35.6,74.5z M29.6,82.1C29.6,82.1,29.6,82,29.6,82.1
	l0.1-0.1c0.1-0.1,0.2-0.3,0.3-0.4c-0.2,0.6-0.2,1.1,0,1.5c0.8,2.1,5.4,2.1,11.1,2.1c6.6,0,14.6,0,19.6,3.2
	c-5.1-1.5-13.9,0.7-21.8,2.6c-6.9,1.7-13.4,3.3-15.1,1.7C25.3,88.8,27.3,85.3,29.6,82.1z M27.2,84.8c-1.4,2.3-2.7,4.8-3.8,7.5
	C22.9,91.1,24.2,88.6,27.2,84.8z M23.6,93.1c0.6,0.4,1.5,0.6,2.8,0.6c3,0,7.6-1.1,12.7-2.3c7.9-1.9,16.8-4.1,21.7-2.6
	c-3.3-0.1-10.2,3-18,6.4c-9,4-19.2,8.6-21.7,6.5C21.7,98.7,22.5,95.8,23.6,93.1z M22.5,94.9c-0.7,2-1.3,4.2-1.8,6.4
	C20,100.3,20.6,98.1,22.5,94.9z M18.9,112.3C18.9,112.3,18.9,112.3,18.9,112.3c-1.2-1-0.8-3.8,1.1-8.3
	C19.5,106.7,19.2,109.5,18.9,112.3z M44.3,99.3c-8.8,6.1-19.5,13.5-23.9,13.5c-0.4,0-0.7-0.1-1-0.2c0.3-3.6,0.8-7.1,1.5-10.3
	c0.5,0.3,1.2,0.5,2,0.5c4.1,0,11.8-3.5,20-7.1c7.3-3.3,14.9-6.6,18-6.4C57.8,90,51.5,94.4,44.3,99.3z M50.5,83.5l-0.1,0.4
	c3.4,0.4,7.8,1.4,9.9,3.8c-5.1-2.9-12.9-3-19.3-3c-5.4,0-10,0-10.7-1.8c-0.3-0.7,0-1.7,0.9-3c0.9-1.1,1.9-2.2,3-3.2
	c0,0,0.2-0.2,0.5-0.7c0,0,0,0,0,0l0,0c0.1-0.1,0.2-0.3,0.3-0.5c0.7,4.9,7.2,5.8,13.5,6.7c4.4,0.6,8.9,1.2,11.3,3.3
	c0.5,0.8,0.9,1.6,1.3,2.4C59,85.1,54.2,84,50.5,83.5z M61.3,88.3L61.3,88.3C61.3,88.3,61.3,88.3,61.3,88.3
	C61.3,88.3,61.3,88.3,61.3,88.3z M62.5,90.9c1.2,2.8,2.3,5.8,3.1,9c-1.3,0.2-2.4,0.8-3.1,1.6c0,0-0.1,0.1-0.1,0.1L62.5,90.9z
	 M63.2,91.3c1.4,1.9,4,5.3,6.8,9c-1-0.4-2.5-0.6-3.9-0.5C65.3,96.8,64.4,93.9,63.2,91.3z M62.5,102.6c0.1-0.3,0.2-0.6,0.4-0.9
	c0.6-0.8,1.8-1.4,3.1-1.5c2.1-0.2,4.3,0.4,4.7,1.1c0,0,0,0,0,0c0,0,0.4,0.6,0.2,1.1c-0.2,0.4-0.8,0.6-1.8,0.5l0,0.4
	c1.2,0,1.9-0.2,2.2-0.8c0.4-0.7-0.2-1.4-0.2-1.5l0,0c0,0,0,0,0,0c0,0,0,0,0,0c-2.2-3-4.4-5.8-6-8l11.6,12.7
	c-1.4-0.6-3.4-0.8-5.6-0.4c-1,0.1-1.9,0.2-2.8,0.4c-2.9,0.5-5.2,0.9-5.8-2.1L62.5,102.6z M62.1,95.2l0,7.4c-0.1,0.4-0.1,0.8,0,1.2
	c0.7,3.5,3.4,3,6.3,2.5c0.9-0.2,1.9-0.3,2.8-0.4c3.4-0.6,6.1,0.1,7.2,1.9c0.7,1.1,0.6,2.4-0.1,3.5c-1.2,1.8-4.5,3.3-9.9,2.3
	c-4.9-1.2-7.8,0.2-8.9,1.9C60.7,108.7,61.5,101.9,62.1,95.2z M80.8,119c-3.7-1.6-7.5-0.5-9.4,0.4c-5.8,2.8-9.5,1.9-11.1,0.2
	c-1-1.1-1.1-2.5-0.4-3.8c1-1.6,3.7-2.9,8.4-1.8c4.5,0.9,7.2,0,8.7-1l5.3,6.8C81.9,119.5,81.4,119.2,80.8,119z"/>
</svg>
