<svg xmlns="http://www.w3.org/2000/svg" viewBox="0 0 143.99 143.99"><defs><style>.cls-1,.cls-2{fill:#3b3434;}.cls-2{opacity:0.9;}</style></defs><g id="Layer_2" data-name="Layer 2"><g id="Graphics"><path class="cls-1" d="M34.33,76.17h.06a72.37,72.37,0,0,0,15.09-2,40.29,40.29,0,0,1-3-7.93C42.15,49.11,49.56,32.46,63,29s28,7.64,32.31,24.74c.2.77.34,1.53.49,2.29a89.1,89.1,0,0,0,13.55-9.27A40.35,40.35,0,0,0,32.13,69.91,42.14,42.14,0,0,0,34.33,76.17Z"/><path class="cls-1" d="M78.83,91a21.89,21.89,0,0,1-16.46-2.62A111.51,111.51,0,0,1,45.94,91.4a40.23,40.23,0,0,0,65.35-26.25A119.56,119.56,0,0,1,94.43,75.82C91.6,83.37,86.11,89.1,78.83,91Z"/><path class="cls-1" d="M125.11,37.27c-2.49-6-11.77-8.47-24.41-7.54a41.53,41.53,0,0,1,4.45,5.16c6.82-.41,11.44.64,12.53,3.36,2.64,6.59-16.06,20.3-41.78,30.63S27.2,82.25,24.56,75.67c-1-2.41.94-5.78,5-9.58a42.11,42.11,0,0,1-.42-6c-8.47,7.75-12.56,15.41-10.23,21.05,4.56,11,32,10.2,61.37-1.91S129.67,48.32,125.11,37.27Z"/><path class="cls-1" d="M63.73,39.18a148.2,148.2,0,0,0-15.21,7.3,32.76,32.76,0,0,0-1.4,7.58A187.16,187.16,0,0,1,85.3,38.57a28.74,28.74,0,0,0-5.84-4.88A147.91,147.91,0,0,0,63.73,39.18Z"/><path class="cls-1" d="M72,0A72,72,0,0,0,26.9,128.11l1.65,1.29A72,72,0,1,0,72,0Zm47,122.42v-.59h-1.94s-1.29,4.28-7,4.28-9-6.47-9-10.2,3.42-10.15,8.88-10.15a6.87,6.87,0,0,1,6.8,4.58l2,0v-7.62h-2s-.25.75-.7.75a15.85,15.85,0,0,0-5.7-1.15c-5.51,0-14.24,3.84-14.24,13.29s7.79,13.74,14,13.74h.15a68.85,68.85,0,0,1-76.48,0h3v-1.78H35.41c-1.38,0-2.38-1.17-2.38-2.94v-15L51,129.4h2.37v-22a2.71,2.71,0,0,1,2.26-2.73h1.79a5.31,5.31,0,0,1,3.72,2.88c.62,1.6,9.25,21.67,9.25,21.67h1.92l6-17.81,7.44,17.81h2.07s6.31-19,7-21.36S97,104.71,98,104.71h1.45v-1.93h-11v2h1.3a1.82,1.82,0,0,1,1.86,2.32c-.36,1-4.14,12.66-4.14,12.66s-4.85-11.66-5.42-12.92c-.78-1.7.36-2.11.93-2.11h1v-1.9h-11v1.9h1.35c.88,0,2.17.67,1.65,2.68-.38,1.48-4,12.35-4,12.35s-5.67-12.9-6-13.68-.07-1.3.76-1.3h1v-2H46.71l.06,1.87h1.42a2.74,2.74,0,0,1,2.49,2.94v13.94L33.31,102.79H25v1.92h.91c2,0,4.34,2.08,4.34,2.08v17.94a3.41,3.41,0,0,1-.48,1.75A69,69,0,1,1,119,122.42Z"/><path class="cls-2" d="M6.13,143.36h0v0Z"/></g></g></svg>