<?xml version="1.0" encoding="utf-8"?>
<!-- Generator: Adobe Illustrator 22.1.0, SVG Export Plug-In . SVG Version: 6.00 Build 0)  -->
<svg version="1.1" id="Graphics" xmlns="http://www.w3.org/2000/svg" xmlns:xlink="http://www.w3.org/1999/xlink" x="0px" y="0px"
	 viewBox="0 0 144 144" style="enable-background:new 0 0 144 144;" xml:space="preserve">
<style type="text/css">
	.st0{clip-path:url(#SVGID_2_);}
	.st1{fill:#3B3434;}
	.st2{opacity:0.9;}
	.st3{clip-path:url(#SVGID_4_);}
	.st4{opacity:0.9;fill:#3B3434;}
	.st5{fill:none;}
	.st6{fill:none;stroke:#3B3434;stroke-miterlimit:10;}
	.st7{fill:none;stroke:#3B3434;stroke-miterlimit:10;stroke-dasharray:2.0001,2.0001;}
	.st8{fill:none;stroke:#3B3434;stroke-miterlimit:10;stroke-dasharray:2.0599,2.0599;}
	.st9{fill:none;stroke:#3B3434;stroke-width:3;stroke-miterlimit:10;}
	.st10{fill:#939598;}
	.st11{fill:none;stroke:#3B3434;stroke-width:0.5;stroke-linecap:round;stroke-linejoin:round;stroke-miterlimit:500;}
	.st12{opacity:0.9;fill-rule:evenodd;clip-rule:evenodd;fill:#3B3434;}
	.st13{fill:none;stroke:#3B3434;stroke-width:2;stroke-miterlimit:10;}
	.st14{clip-path:url(#SVGID_8_);}
	.st15{opacity:0.9;fill:#C7C8CA;}
	.st16{opacity:0.9;fill:#939598;}
	.st17{fill:#231F20;}
	.st18{fill:#3B3534;}
	.st19{fill:#767374;}
	.st20{opacity:0.9;fill:#3B3534;}
	.st21{fill:none;stroke:#FFFFFF;stroke-miterlimit:10;}
	.st22{opacity:0.9;fill:#3B3534;enable-background:new    ;}
	.st23{fill:#3B3534;stroke:#3B3534;stroke-width:0.5;stroke-miterlimit:10;}
	.st24{fill:none;stroke:#3B3534;stroke-width:0.5;}
	.st25{fill:none;stroke:#3B3534;stroke-width:0.5;stroke-linecap:round;}
	.st26{fill-rule:evenodd;clip-rule:evenodd;fill:#3B3434;}
	.st27{fill:#FFFFFF;stroke:#3B3434;stroke-miterlimit:10;}
	.st28{fill:#FFFFFF;stroke:#3B3434;stroke-width:0.25;stroke-miterlimit:10;}
	.st29{fill-rule:evenodd;clip-rule:evenodd;fill:#EF4761;}
	.st30{fill-rule:evenodd;clip-rule:evenodd;fill:#EE365F;}
	.st31{fill-rule:evenodd;clip-rule:evenodd;fill:#D5769A;}
	.st32{fill-rule:evenodd;clip-rule:evenodd;fill:#EA395C;}
	.st33{fill:#FFFEF3;}
	.st34{fill:#E8E8E9;}
	.st35{fill:#D2CCCA;}
	.st36{fill:#524845;}
	.st37{fill:#B1A7A4;}
</style>
<g class="st2">
	<path class="st1" d="M72,3c38,0,69,31,69,69s-31,69-69,69S3,110,3,72S34,3,72,3 M72,0C32.2,0,0,32.2,0,72s32.2,72,72,72
		s72-32.2,72-72S111.8,0,72,0L72,0z"/>
</g>
<path class="st4" d="M108.6,94.2c-0.1-0.6-0.6-0.7-1.4-1.2c-0.8-0.4-1.4-0.4-1.9,0.1c-0.4,0.5-0.6,0.4-0.7,0.2c0,0,0,0,0,0
	c0-0.1-0.2-1.1-0.3-1.9c-0.1-0.8-0.9-2-1.3-2.5s0-0.9,0.1-1.7c0.1-0.8,0.3-1,0.2-1.3s0.2-0.6,0.3-1.2c0.1-0.6,0.4-2.2,0.3-3.9
	s-1-5.3-1.5-6.2c-0.4-0.8-0.8-1.1-0.8-1.6s-0.9-3.5-1.5-5.4c-0.6-1.9-1.7-4.1-2.6-5.4c-0.9-1.3-2.3-4.5-3-5.1
	c-0.7-0.7-1.5-0.5-2.5-1c-1-0.5-4.6-0.7-4.6-0.7s-1.4-0.4-3.7-1.2c-2.3-0.8-5.2-0.5-5.2-0.5s0-2,0.4-4.8c0.4-2.8,0.1-5.4,0-6.2
	c-0.1-0.7,0-0.7,0.4-1.1c0.4-0.4,1.4-1,1.8-0.7c0.5,0.2,0.4,0.1,0.8-0.6c0.4-0.7,0.4-0.4,1.6-1c0.8-0.4,1.7-0.6,2.4-0.8l1.9,3.5
	c0,0,0,0,0,0c0,0.6,0.2,1.2,0.3,1.8c0,0.1,0,0.2,0,0.2c0,0,0,0.1,0,0.1c0,0.1,0,0.2,0,0.3c0.1,1,0.8,1,1.1,0.9
	c0.3-0.1,0.5-0.4,1.4-1.6c0.9-1.2,0.9-1.3,2-1.9c1.1-0.6,3-2.4,3-2.4s0.5-0.6,0.8-1.4c0.3-0.8,0.3-0.8,0.1-1.6
	c-0.2-0.8-0.5-0.9-1.8-2.7c-1.3-1.8-3.6-5.6-5.8-8.6c-2.2-3.1-2.8-3.1-3.9-3.3c-1.1-0.2-1.8,0-3.2-0.1c-1.4,0-2.7,0.5-3.6,0.5
	c-0.9,0-1.1-0.3-1.6-0.4c0,0-0.1,0-0.1,0c0,0,0,0,0,0c0,0-0.1,0-0.1,0c0,0,0,0,0,0c0,0-0.1,0-0.1,0c0,0,0,0,0,0c-0.1,0-0.1,0-0.2,0
	c0,0-0.1,0-0.1,0c0,0-0.1,0-0.1,0c-0.2,0-0.3,0.1-0.5,0.1c0,0,0,0,0,0c-0.1,0-0.1,0-0.2,0c-0.4,0.1-0.7,0.1-1,0.1
	c-0.9,0-2.4-0.5-2.4-0.5L66.5,20c0,0-6.2-1.7-7-2.1c-0.8-0.4-3-0.9-3-0.9s-0.3-0.1-0.7-0.5c-0.5-0.4-0.6-0.9-1.3-1.2c0,0,0,0-0.1,0
	c0,0,0,0,0,0c0,0,0,0,0,0c0,0,0,0-0.1,0c0,0,0,0,0,0c0,0,0,0-0.1,0c0,0,0,0,0,0c0,0,0,0,0,0c0,0,0,0,0,0c0,0,0,0,0,0c0,0,0,0,0,0
	l0,0c-0.2,0-0.3,0-0.5,0c-0.1,0-0.1,0-0.2,0c0,0,0,0,0,0c0,0-0.1,0-0.1,0c0,0,0,0-0.1,0c0,0-0.1,0-0.1,0c0,0,0,0-0.1,0
	c0,0-0.1,0-0.1,0c0,0,0,0-0.1,0c-0.1,0-0.1,0-0.2,0c-1.2,0-2,0.1-3.4,0.1s-3.8,0.1-6,0c-2.2-0.1-4.1,0.4-5.1,0.6c-1,0.2-1,0.7-1,0.7
	s-0.9,1-1.2,1.6c-0.3,0.6-0.4,1.2-0.6,2.5c-0.3,1.2,0.4,3.5,0.7,4.7c0.3,1.2,1,3.1,1.3,4.4c0.3,1.3,1.5,2.2,1.8,2.6
	c0.3,0.4,0.5,0.7,0.5,0.7s0,0,0,0c0,0,0,0,0,0c0,0,0,0,0,0c0,0,0,0.1,0,0.1c0,0,0,0,0,0c0,0,0,0.1,0,0.1c0,0,0,0,0,0
	c0,0,0,0.1,0,0.1c0,0,0,0,0,0c0,0.1,0,0.2,0,0.3c-0.1,0.9-0.3,2.6-0.5,3.9c-0.3,1.9,0.1,1.9,0.4,2.1c0.3,0.2,0.6-0.3,0.6-0.3
	s0,0,0.1,0.4c0.1,0.4-0.2,3.6-0.3,4.2c0,0,0,0.1,0,0.1c0,0,0,0.1,0,0.1c0,0,0,0.1,0,0.1c0,0,0,0,0,0c0,0,0,0,0,0l-0.2,1
	c0,0.1,0,0.1-0.1,0.2c0,0,0,0.1,0,0.1c0,0.1-0.1,0.2-0.1,0.2c0,0,0,0.1,0,0.1c0,0.1-0.1,0.3-0.2,0.4c-0.5,1.1-0.6,2.6-0.9,3.5
	c-0.2,0.9-0.5,1.6-0.7,2.6c-0.1,1.1-0.4,2.6-0.3,3.2c0.1,0.6,0.6,1.1,1,1.4c0.4,0.3,0.5,0.4,0.5,0.4s0.1,0.3,0.4,0.5
	c0.3,0.1,0.6,0,0.6,0s0.2,0.9,0.9,1.4c0.7,0.5,1.6,0.2,2.4-0.4c0.8-0.6,1.6-0.7,1.6-0.7s0,0,0,0.1h0c0,0.6-0.1,3.3-0.1,4.6
	c0,1.6-0.5,1.6-1.3,3.7c-0.8,2.1-1.2,4.4-1.8,7.3c-0.6,2.9-1,5.6-1,5.6s-0.2,0.7-0.8,2.6c-0.6,1.9-0.3,3.8-0.2,5.5
	c0.1,0.9,0.7,1.6,1.2,2c0,0,0,0,0,0c0,0,0.1,0,0.1,0.1c0,0,0,0,0,0c0,0,0,0,0.1,0.1c0,0,0,0,0,0c0,0,0,0,0.1,0c0,0,0,0,0,0
	c0,0,0,0,0.1,0c0,0,0,0,0,0c0,0,0,0,0.1,0c0,0,0,0,0,0c0,0,0,0,0.1,0c0,0,0,0,0,0c0,0,0,0,0.1,0c0,0,0,0,0,0c0,0,0,0,0,0
	c0,0,0,0,0,0c0,0,0,0,0,0c0,0,0,0,0,0c0,0,0,0,0,0c0,0,0,0,0,0c0,0,0,0,0,0c0,0,0,0,0,0c0,0,0,0,0,0c0,0,0,0,0,0c0,0,0,0,0,0
	c0,0,0,0,0,0c0,0,0,0,0,0c0,0,0,0,0,0c0,0,0,0,0,0s1,1.6,2.9,3.8c2,2.2,5,4.4,6.9,5.4c0,0,0.1,0,0.1,0.1c0,0,0,0,0,0
	c1.8,1,2.8,1,2.8,1s1.1,3.8,1.4,5.4c0.2,1.6,0.5,3.1,0.6,3.8c0.1,0.7-0.2,3.2-0.2,3.2s-1.3,1-2.3,1.5c-1,0.5-1.8,2.2-1.8,2.2
	s-0.5,0.4-1.1,0.9c-0.3,0.2-0.3,0.2-0.2,0.5c0.1,0.2,2.6-0.4,2.7-0.3c0.1,0.1-2.2,1.4-2.2,1.4s0,0-0.5,0.4c-0.5,0.4-1.2,1.1-1.4,1.6
	c-0.1,0.2-0.2,0.4-0.2,0.6l0,0c0,0,0,0,0,0c0,0,0,0.1,0,0.1c0,0,0,0,0,0c0,0.2,0,0.3,0,0.4c0,0,0,0,0,0c0,0,0,0,0,0c0,0,0,0,0,0
	c0,0,0,0,0,0s0,0,0,0c0,0,0,0,0,0c0,0,0,0.1,0,0.1c0,0,0,0,0,0c0,0,0,0.1,0,0.2c0,0,0,0,0,0c0,0,0,0.1,0,0.1c0,0,0,0,0,0
	c0,0,0,0.1,0,0.1c0,0,0,0,0,0c-0.1,0.1-0.1,0.3-0.1,0.3l0,0c0,0.2-0.1,0.3-0.1,0.5c-0.2,0.6-0.1,1-0.1,1.1c0.1,0.2,0.4,0.2,0.4,0.2
	s0,0.8,0.5,0.8c0.5,0,1-0.5,1-0.5s0,0,0.1,0c0,0,0,0,0,0c0,0,0,0,0,0c0,0,0,0,0,0c0,0,0,0,0.1,0c0,0,0,0,0,0c0,0,0.1,0,0.1,0
	c0,0,0,0,0,0c0,0,0.1,0,0.1,0.1c0,0,0,0,0,0c0,0,0.1,0,0.1,0c0,0,0,0,0.1,0c0,0,0.1,0,0.1,0c0,0,0,0,0.1,0c0.1,0,0.1,0,0.2,0.1
	c0.1,0,0.1,0,0.2,0c0,0,0,0,0,0c0.1,0,0.1,0,0.2,0c0,0,0,0,0,0c0.1,0,0.1,0,0.2,0c0,0,0,0,0,0c0.1,0,0.1,0,0.1,0c0,0,0,0,0,0
	c0,0,0.1,0,0.1,0c0,0,0,0,0,0c0,0,0.1,0,0.1,0c0,0,0,0,0,0c0,0,0.1,0,0.1,0c0,0,0,0,0,0c0,0,0,0,0,0c0,0,0,0,0,0l0,0c0,0,0,0,0,0
	s0.6,0.3,1.1,0.2c0.4-0.1,0.9-0.7,0.9-0.7s1.2,0.1,1.9-0.1c0.7-0.2,1-0.6,2.4-1.9c1.4-1.3,1.4-2.4,1.4-2.4s0.5-0.3,0.7-0.6
	c0.2-0.3,0.4-0.9,0.4-0.9s0.5-0.1,0.6-0.3c0.1-0.1,0-0.8,0-0.8s0.7-0.9,0.8-1.3c0.1-0.4-0.5-1.3-0.5-1.3s0-0.7,0-1.3
	c0-0.5-0.2-1.3-0.2-1.3s0.2-0.6,0.5-1c0.2-0.4,0.5-1.2,0.5-1.2s0.2-0.1,0.6-0.4c0.4-0.3,0.7-0.9,0.7-0.9s-0.2-1-0.5-1.6
	c-0.3-0.6-1.1-1.1-1.1-1.1l0.2-1.4l0,0l0-0.1c0,0,1.5,0.5,2.3,0.9c0.1,0,0.1,0,0.2,0.1c0,0,0.1,0,0.1,0c0,0,0.1,0,0.1,0.1
	c0,0,0.1,0,0.1,0c0.1,0,0.2,0.1,0.3,0.1c0,0,0.1,0,0.1,0c0.1,0,0.1,0,0.2,0.1c0,0,0.1,0,0.1,0.1c0.1,0,0.1,0,0.2,0.1
	c0,0,0.1,0,0.1,0.1c0.1,0,0.1,0,0.2,0.1c0,0,0.1,0,0.1,0.1c0.1,0,0.1,0,0.2,0.1c0,0,0.1,0,0.1,0.1c0.1,0,0.1,0.1,0.2,0.1
	c0,0,0.1,0,0.1,0.1c0.1,0,0.1,0.1,0.2,0.1c0,0,0.1,0,0.1,0.1c0.2,0.1,0.5,0.2,0.7,0.3c0,0,0.1,0,0.1,0.1c0.1,0,0.1,0,0.2,0.1
	c0,0,0.1,0,0.1,0.1c0.1,0,0.1,0,0.1,0.1c0,0,0.1,0,0.1,0c0,0,0.1,0,0.1,0c0,0,0.1,0,0.1,0l0,0c0.1,0,0.2,0.1,0.3,0.1
	c1.1,0.3,4-0.2,4-0.2s0.2,1.4,0.4,2.9c0.1,1.6-0.2,3.8-0.5,4.8s-0.5,1.2-0.9,1.4c-0.4,0.2-0.4,0.6-0.7,1c-0.3,0.4-0.4,0.8-0.7,1.6
	c-0.3,0.8-0.2,1.8-0.2,1.8s-0.4,0.5-0.8,1.1c-0.4,0.6-0.8,2-0.7,2.3c0.1,0.2,1,0.1,1,0.1s-0.5,0.9-0.7,1.5c-0.2,0.6-0.3,1.2-0.6,1.8
	c-0.3,0.6-0.5,2.3-0.5,2.3s-0.4,1.7-0.4,2.5c0,0.8,0.6,1,0.6,1s0,0.7,0,1.2c0,0.5,0,1,0.4,1.1c0.4,0.1,0.6-1.9,0.6-1.9s0.1,0,0.2,0
	l0.2,0l0,1.1c0,0,0,0,0,0l0,0.7c0,0,0.1,0.3,0.5,1.1c0,0.1,0.1,0.2,0.1,0.2c0,0,0,0,0,0c0,0.1,0.1,0.1,0.1,0.2c0,0,0,0,0,0
	c0,0.1,0.1,0.1,0.1,0.2c0,0,0,0,0,0c0,0.1,0.1,0.1,0.1,0.2c0,0,0,0,0,0c0,0,0.1,0.1,0.1,0.1c0,0,0,0,0,0c0,0,0.1,0.1,0.1,0.1
	c0,0,0,0,0,0c0,0,0.1,0.1,0.1,0.1c0,0,0,0,0,0c0,0,0.1,0.1,0.1,0.1s0.6,1.2,0.7,1.5c0.1,0.2,0.4-0.1,0.4-0.1l0.4,0.4
	c0,0,0.2-0.1,0.5-0.4c0.2-0.3,0.7-1.2,0.7-1.2s0,0,0.1,0l0,0c0,0,0,0,0,0c0,0,0.1,0,0.1,0c0,0,0,0,0,0c0,0,0.1,0,0.1,0c0,0,0,0,0,0
	c0,0,0.1,0,0.2,0c0,0,0,0,0,0c0.1,0,0.1,0,0.2-0.1c0,0,0,0,0,0c0.1,0,0.1,0,0.2-0.1c0,0,0,0,0,0c0,0,0.1,0,0.1-0.1c0,0,0,0,0,0
	c0.1,0,0.1,0,0.2-0.1c0,0,0,0,0,0c0,0,0.1-0.1,0.1-0.1c0,0,0.1,0,0.1-0.1c0,0,0,0,0,0c0,0,0,0,0.1-0.1c0,0,0,0,0,0c0,0,0,0,0.1-0.1
	c0,0,0,0,0,0c0.1-0.1,0.1-0.1,0.2-0.2c0,0,0,0,0,0c0,0,0-0.1,0.1-0.1c0,0,0,0,0,0c0,0,0.1-0.1,0.1-0.1c0,0,0,0,0,0
	c0,0,0.1-0.1,0.1-0.1l0,0c0,0,0.1-0.1,0.1-0.1c0,0,0,0,0,0c0,0,0-0.1,0.1-0.1c0,0,0,0,0,0c0,0,0-0.1,0.1-0.1c0,0,0,0,0,0
	c0-0.1,0.1-0.1,0.1-0.2v0c0.1-0.1,0.1-0.1,0.1-0.1c0.3,0.4,0.5,0.3,0.8,0.2c0.2-0.1,0.2-1.6,0.2-1.6l0.4-0.4c0,0,0.8-1.3,1-2
	c0.2-0.7-0.3-1.5-0.3-1.8c0-0.4-0.1-0.7-0.1-1.6c0-0.9-0.2-0.8-0.4-1.3c-0.2-0.5,0-0.5,0-1.1c0.1-0.6-0.2-1.3-0.4-2.1
	c-0.2-0.8-0.1-1.8-0.1-1.8s0.3-0.6,0.4-1.1c0.1-0.6,0.1-0.8,0.1-1.9c0-1.1,0-1,0-1.4c0-0.4,0.3-0.9,0.5-1.7c0.2-0.7,0.5-1.6,0.8-2.3
	c0.3-0.7,0.7-1.4,0.9-1.7c0.3-0.3,0.8-1.4,1.2-2.2c0.5-0.8,0.8-2.5,0.8-2.5c0.4-0.7,0.9,0.8,1.3,1.2c0.4,0.3,1.7,0.9,1.7,0.9
	c-0.2,0.5-0.1,0.7-0.1,0.7s-1.3,1.4-0.8,1.8c0.5,0.4,0.6-0.1,1,0c0,0,0.1,0,0.1,0c0.5,0.1,0.2,0.5-0.2,1.4c0,0.1,0,0.1-0.1,0.1
	c0,0,0,0,0,0c0,0,0,0.1,0,0.1c0,0,0,0,0,0c0,0,0,0,0,0.1c0,0,0,0,0,0c0,0,0,0,0,0.1c0,0,0,0,0,0c0,0,0,0,0,0.1c0,0,0,0,0,0
	c0,0,0,0.1,0,0.1c0,0,0,0,0,0c0,0,0,0,0,0.1c0,0,0,0,0,0c0,0,0,0,0,0c0,0,0,0,0,0c0,0,0,0,0,0c0,0,0,0,0,0c0,0,0,0,0,0c0,0,0,0,0,0
	c0,0,0,0,0,0c0,0,0,0,0,0c0,0,0,0,0,0c0,0,0,0,0,0c0,0,0,0,0,0c0,0,0,0,0,0c0,0,0,0,0,0c0,0,0,0,0,0c0,0,0,0,0,0s-0.7,1.9-0.3,2.1
	c0.4,0.1,0.4-0.5,1.2-1.2c0.1-0.1,0.2-0.1,0.3-0.2l0,0c0,0,0.1,0,0.1,0c0,0,0,0,0,0c0.1,0,0.1,0,0.2,0c0,0,0,0,0,0
	c0.1,0,0.1,0,0.2,0.1c0,0,0,0,0,0c0,0,0.1,0,0.1,0.1c0,0,0,0,0,0c0,0,0.1,0,0.1,0.1c0,0,0,0,0,0c0,0,0,0,0.1,0.1c0,0,0,0,0,0
	c0,0,0.1,0.1,0.1,0.2c0,0,0,0,0,0c0,0.1,0.1,0.1,0.1,0.2c0,0,0,0,0,0c0,0,0,0,0,0.1c0,0,0,0,0,0c0,0,0,0,0,0.1c0,0,0,0,0,0
	c0,0,0,0,0,0.1c0,0,0,0,0,0c0,0,0,0,0,0.1l0,0c0,0.1,0,0.1,0,0.1s-0.8,1.8-0.5,1.9c0.3,0,0.9-0.7,1.3-0.9c0,0,0.1,0,0.1,0
	c0,0,0,0,0,0c0,0,0,0,0.1,0c0,0,0,0,0.1,0c0,0,0,0,0,0c0,0,0.1,0,0.1,0c0.5,0.1,1.3-0.5,1.7-0.6c0,0,0.1,0,0.1,0c0,0,0,0,0,0
	c0,0,0.1,0,0.1,0c0.3,0.1,0.4,0.8,0.7,0.7c0.4,0,0.5-1.3,0.5-1.3s1.5-0.8,1.6-0.9c0.1-0.1,0.3-0.5,0.3-0.7c0-0.2,0.5-0.9,0.6-1
	c0.1-0.1,0.5-0.7,0.7-0.9c0.1-0.3,0.1-0.4,0.2-0.8c0.1-0.4,2.4-5,2.8-5.7c0.4-0.7,1.9-2.7,2.1-2.9s1-0.9,1.6-1.4s1.6-1.7,2.3-2.7
	c0.7-0.9,1.3-2.8,1.3-3.1c0-0.3,0.3-0.6,0.8-1.2C108.5,95.5,108.7,94.8,108.6,94.2z"/>
</svg>
