<?xml version="1.0" encoding="utf-8"?>
<!-- Generator: Adobe Illustrator 22.1.0, SVG Export Plug-In . SVG Version: 6.00 Build 0)  -->
<svg version="1.1" id="Graphics" xmlns="http://www.w3.org/2000/svg" xmlns:xlink="http://www.w3.org/1999/xlink" x="0px" y="0px"
	 viewBox="0 0 144 144" style="enable-background:new 0 0 144 144;" xml:space="preserve">
<style type="text/css">
	.st0{clip-path:url(#SVGID_2_);}
	.st1{fill:#3B3434;}
	.st2{opacity:0.9;}
	.st3{clip-path:url(#SVGID_4_);}
	.st4{opacity:0.9;fill:#3B3434;}
	.st5{fill:none;}
	.st6{fill:none;stroke:#3B3434;stroke-miterlimit:10;}
	.st7{fill:none;stroke:#3B3434;stroke-miterlimit:10;stroke-dasharray:2.0001,2.0001;}
	.st8{fill:none;stroke:#3B3434;stroke-miterlimit:10;stroke-dasharray:2.0599,2.0599;}
	.st9{fill:none;stroke:#3B3434;stroke-width:3;stroke-miterlimit:10;}
	.st10{fill:#939598;}
	.st11{fill:none;stroke:#3B3434;stroke-width:0.5;stroke-linecap:round;stroke-linejoin:round;stroke-miterlimit:500;}
	.st12{opacity:0.9;fill-rule:evenodd;clip-rule:evenodd;fill:#3B3434;}
	.st13{fill:none;stroke:#3B3434;stroke-width:2;stroke-miterlimit:10;}
	.st14{clip-path:url(#SVGID_8_);}
	.st15{opacity:0.9;fill:#C7C8CA;}
	.st16{opacity:0.9;fill:#939598;}
	.st17{fill:#231F20;}
	.st18{fill:#3B3534;}
	.st19{fill:#767374;}
	.st20{opacity:0.9;fill:#3B3534;}
	.st21{fill:none;stroke:#FFFFFF;stroke-miterlimit:10;}
	.st22{opacity:0.9;fill:#3B3534;enable-background:new    ;}
	.st23{fill:#3B3534;stroke:#3B3534;stroke-width:0.5;stroke-miterlimit:10;}
	.st24{fill:none;stroke:#3B3534;stroke-width:0.5;}
	.st25{fill:none;stroke:#3B3534;stroke-width:0.5;stroke-linecap:round;}
	.st26{fill-rule:evenodd;clip-rule:evenodd;fill:#3B3434;}
	.st27{fill:#FFFFFF;stroke:#3B3434;stroke-miterlimit:10;}
	.st28{fill:#FFFFFF;stroke:#3B3434;stroke-width:0.25;stroke-miterlimit:10;}
	.st29{fill-rule:evenodd;clip-rule:evenodd;fill:#EF4761;}
	.st30{fill-rule:evenodd;clip-rule:evenodd;fill:#EE365F;}
	.st31{fill-rule:evenodd;clip-rule:evenodd;fill:#D5769A;}
	.st32{fill-rule:evenodd;clip-rule:evenodd;fill:#EA395C;}
	.st33{fill:#FFFEF3;}
	.st34{fill:#E8E8E9;}
	.st35{fill:#D2CCCA;}
	.st36{fill:#524845;}
	.st37{fill:#B1A7A4;}
</style>
<path class="st4" d="M144,72c0-12.6-3.3-24.5-9-34.8c1.4-1.5,2.1-3.1,1.8-4.7c-0.2-0.8-0.7-1.6-1.3-2.2c1-1.3,1.6-2.7,1.3-4.1
	c-0.3-1.5-1.5-2.8-3.3-3.6c6.5-2.1,10.8-6,10.2-9.5c-0.8-4.2-8.3-6.2-16.7-4.6c-2.7,0.5-5.1,1.4-7.1,2.4c-2.2,0.3-4.7,0.9-7.2,1.8
	C101.1,4.7,87.1,0,72,0S42.9,4.7,31.3,12.6c-2.5-0.9-5-1.5-7.2-1.8C22,9.8,19.6,9,17,8.4C8.6,6.8,1.1,8.9,0.3,13
	c-0.7,3.5,3.7,7.4,10.2,9.5c-1.8,0.9-3,2.1-3.3,3.6c-0.3,1.4,0.3,2.7,1.3,4.1c-0.7,0.7-1.2,1.4-1.3,2.2c-0.3,1.6,0.4,3.2,1.8,4.7
	C3.3,47.5,0,59.4,0,72c0,24.1,11.8,45.4,30,58.5c0.3,2.5,1.5,4.5,3.5,5.3c1.4,0.6,3,0.4,4.5-0.3c10.1,5.5,21.7,8.6,34.1,8.6
	c12.3,0,23.9-3.1,34.1-8.6c1.5,0.7,3.1,0.9,4.5,0.3c1.9-0.8,3.1-2.8,3.5-5.3C132.1,117.4,144,96.1,144,72z M72,3
	c13.7,0,26.5,4,37.2,11c-3.8,1.6-7.7,3.9-11.5,6.7c-9.4,6.8-15.7,15-17.5,21.6c-0.1,0-0.1,0-0.2,0c-1.9,0.8-3.1,2.5-3.8,4.8
	c-1-7-2.5-11.4-4.3-11.4c0,0,0,0,0,0s0,0,0,0c-1.7,0-3.3,4.5-4.3,11.4c-0.7-2.3-1.9-4.1-3.8-4.8c-0.1,0-0.1,0-0.2,0
	c-1.8-6.5-8.1-14.7-17.5-21.6c-3.9-2.8-7.8-5-11.5-6.7C45.5,7,58.3,3,72,3z M3,72c0-11.9,3-23,8.3-32.8c2.1,1.4,4.8,2.6,8,3.4
	c-4.8,0.4-8.3,2.2-8.8,5c-0.3,1.5,0.4,3.2,1.7,4.7c0.2,2.2,4.3,4.8,10.2,6.5c-2.2,0.9-3.7,2.2-4,3.9c-0.4,2.1,1,4.3,3.5,6.2
	c2,1.8,5.6,3.4,9.8,4.5c-0.2,0.3-0.5,0.5-0.7,0.8c-5.2,6.8-7.2,14-4.6,15.9c0.2,0.1,0.5,0.2,0.7,0.3c-1.6,6.5-0.6,12.2,2.8,13.5
	c0.7,0.3,1.6,0.3,2.4,0.2c-1.6,6.4-0.6,12,2.7,13.5c-0.1,0.4-0.2,0.8-0.3,1.3c-1.5,1.2-2.9,3-3.7,5.2c-0.4,0.9-0.6,1.8-0.8,2.7
	C13.7,114.2,3,94.3,3,72z M40.7,133.4c1.1-1.1,2.1-2.6,2.8-4.3c1.1-2.8,1.3-5.7,0.6-7.9c1.4-1.1,2.7-2.5,4.1-4.1
	c1.5-0.8,3-2.1,4.4-3.9c4.6,1.6,10.8-3.2,13.9-11c2-5,2.3-10,1.1-13.5c0.2-0.6,0.3-1.2,0.4-1.8c1,6.2,2.5,10.2,4.1,10.2c0,0,0,0,0,0
	s0,0,0,0c1.6,0,3.1-3.9,4.1-10.2c0.1,0.6,0.2,1.2,0.4,1.8c-1.2,3.5-0.9,8.5,1.1,13.5c3.2,7.8,9.3,12.6,13.9,11
	c1.4,1.7,2.9,3.1,4.4,3.9c1.3,1.6,2.7,3,4.1,4.1c-0.7,2.2-0.6,5.1,0.6,7.9c0.7,1.7,1.7,3.2,2.8,4.3c-9.4,4.8-20.1,7.6-31.3,7.6
	S50.1,138.3,40.7,133.4z M113.8,126.8c-0.2-0.9-0.4-1.8-0.8-2.7c-0.9-2.2-2.2-3.9-3.7-5.2c-0.1-0.4-0.2-0.8-0.3-1.3
	c3.3-1.5,4.3-7.1,2.7-13.5c0.8,0.1,1.7,0.1,2.4-0.2c3.4-1.4,4.4-7.1,2.8-13.5c0.2-0.1,0.5-0.1,0.7-0.3c2.6-2,0.5-9.1-4.6-15.9
	c-0.2-0.3-0.4-0.5-0.7-0.8c4.3-1.1,7.8-2.7,9.8-4.5c2.5-1.9,3.9-4.1,3.5-6.2c-0.3-1.7-1.8-3-4-3.9c5.9-1.7,10.1-4.3,10.2-6.5
	c1.4-1.5,2-3.1,1.7-4.7c-0.5-2.8-4.1-4.6-8.8-5c3.1-0.8,5.9-2,8-3.4C138,48.9,141,60.1,141,72C141,94.3,130.3,114.2,113.8,126.8z"/>
</svg>
