<?xml version="1.0" encoding="utf-8"?>
<!-- Generator: Adobe Illustrator 22.1.0, SVG Export Plug-In . SVG Version: 6.00 Build 0)  -->
<svg version="1.1" id="Graphics" xmlns="http://www.w3.org/2000/svg" xmlns:xlink="http://www.w3.org/1999/xlink" x="0px" y="0px"
	 viewBox="0 0 144 144" style="enable-background:new 0 0 144 144;" xml:space="preserve">
<style type="text/css">
	.st0{clip-path:url(#SVGID_2_);}
	.st1{fill:#3B3434;}
	.st2{opacity:0.9;}
	.st3{clip-path:url(#SVGID_4_);}
	.st4{opacity:0.9;fill:#3B3434;}
	.st5{fill:none;}
	.st6{fill:none;stroke:#3B3434;stroke-miterlimit:10;}
	.st7{fill:none;stroke:#3B3434;stroke-miterlimit:10;stroke-dasharray:2.0001,2.0001;}
	.st8{fill:none;stroke:#3B3434;stroke-miterlimit:10;stroke-dasharray:2.0599,2.0599;}
	.st9{fill:none;stroke:#3B3434;stroke-width:3;stroke-miterlimit:10;}
	.st10{fill:#939598;}
	.st11{fill:none;stroke:#3B3434;stroke-width:0.5;stroke-linecap:round;stroke-linejoin:round;stroke-miterlimit:500;}
	.st12{opacity:0.9;fill-rule:evenodd;clip-rule:evenodd;fill:#3B3434;}
	.st13{fill:none;stroke:#3B3434;stroke-width:2;stroke-miterlimit:10;}
	.st14{clip-path:url(#SVGID_8_);}
	.st15{opacity:0.9;fill:#C7C8CA;}
	.st16{opacity:0.9;fill:#939598;}
	.st17{fill:#231F20;}
	.st18{fill:#3B3534;}
	.st19{fill:#767374;}
	.st20{opacity:0.9;fill:#3B3534;}
	.st21{fill:none;stroke:#FFFFFF;stroke-miterlimit:10;}
	.st22{opacity:0.9;fill:#3B3534;enable-background:new    ;}
	.st23{fill:#3B3534;stroke:#3B3534;stroke-width:0.5;stroke-miterlimit:10;}
	.st24{fill:none;stroke:#3B3534;stroke-width:0.5;}
	.st25{fill:none;stroke:#3B3534;stroke-width:0.5;stroke-linecap:round;}
	.st26{fill-rule:evenodd;clip-rule:evenodd;fill:#3B3434;}
	.st27{fill:#FFFFFF;stroke:#3B3434;stroke-miterlimit:10;}
	.st28{fill:#FFFFFF;stroke:#3B3434;stroke-width:0.25;stroke-miterlimit:10;}
	.st29{fill-rule:evenodd;clip-rule:evenodd;fill:#EF4761;}
	.st30{fill-rule:evenodd;clip-rule:evenodd;fill:#EE365F;}
	.st31{fill-rule:evenodd;clip-rule:evenodd;fill:#D5769A;}
	.st32{fill-rule:evenodd;clip-rule:evenodd;fill:#EA395C;}
	.st33{fill:#FFFEF3;}
	.st34{fill:#E8E8E9;}
	.st35{fill:#D2CCCA;}
	.st36{fill:#524845;}
	.st37{fill:#B1A7A4;}
</style>
<g class="st2">
	<path class="st1" d="M72,3c38,0,69,31,69,69s-31,69-69,69S3,110,3,72S34,3,72,3 M72,0C32.2,0,0,32.2,0,72s32.2,72,72,72
		s72-32.2,72-72S111.8,0,72,0L72,0z"/>
</g>
<g class="st2">
	<path class="st1" d="M67.5,78.7c-0.6-0.4-1.1-0.8-1.4-1c-0.4-0.3-0.9-0.6-1.7-1.1c-6.7-4.6-11.4-8.6-14-12.1
		c-1.8-2.4-3.1-5.1-3.9-8c-0.8-2.9-1-5.9-0.6-9.1c0.8-6.9,3.8-12.4,9.2-16.3c-33.4,12.6-53.9,40.4-46,63c4,11.5,14.6,19.4,28.5,23
		l0.1,0c7.6,1.8,14.4-0.2,16.3-4.9c1.6-3.9-0.6-8.8-5.2-12.6c1.8,1,3.5,1.8,5,2.5c3.3,1.4,6.3,2.3,9.2,2.6c4.8,0.5,8.8-0.2,12-2
		c3.2-1.9,5-4.5,5.4-7.9C80.8,90.4,76.6,85,67.5,78.7"/>
	<path class="st10" d="M134.9,50.1c-3.8-11-13.7-18.8-26.8-22.6c-1.4-0.5-2.7-0.8-4.1-1c-0.3-0.1-0.9-0.1-0.9-0.1
		c-6.5-0.9-12.1,1-13.8,5.1c-1.5,3.7,0.6,8.3,4.9,12c-1.5-0.7-3-1.3-4.5-1.8c-3.2-1.1-6.5-1.9-9.7-2.2c-4.8-0.5-8.6-0.1-11.4,1.4
		c-2.8,1.5-4.5,3.7-4.8,7c-0.4,3.9,3.9,8.8,13,14.8c0.9,0.6,1.5,1,2.1,1.3c8.5,5.5,14.1,10.5,17,15c2.8,4.5,3.9,9.5,3.3,15.2
		c-0.9,8.3-4.8,14.8-11.8,19.4c-0.3,0.2-0.6,0.4-0.9,0.6c0.1,0,0.1,0,0.2-0.1C121.4,101.8,143,73.2,134.9,50.1"/>
</g>
</svg>
