<svg xmlns="http://www.w3.org/2000/svg" viewBox="0 0 846.91 193.94"><defs><style>.cls-1{fill:#ca2f23;}.cls-2{fill:#1d1d1b;}</style></defs><g id="Layer_2" data-name="Layer 2"><g id="Layer_1-2" data-name="Layer 1"><path class="cls-1" d="M419.3,169.14a12.64,12.64,0,0,0,.27-5.75c-.1-.47-.18-.95-.24-1.42a10.88,10.88,0,0,1,0-2.85c.61-3.18,3.55-4.65,5-6.85,2.2-3.68-1.48-8.84-5.89-8.09a8.55,8.55,0,0,0-5.7,7,13.23,13.23,0,0,0,2,9.45,26.8,26.8,0,0,0,1.92,3.12l.76,1.06c2.38,4.53-2.89,9.81.62,15.07-3.51-3.51,1.76-8.78-2.86-12.86-.39-.44-.81-.85-1.21-1.26-1.22-1.23-2.42-2.43-3.47-3.66l-.69-.85-.71-.86c-3.35-1.58-3.35-6.84-4.59-8.08-.15-.37-.29-.74-.42-1.13s-.27-.75-.39-1.14c-2.21-5.88,0-13.25,5.14-15.45a39,39,0,0,0,5.76-2.78c1.91-1.09,3.81-2.32,5.7-3.62a71.52,71.52,0,0,0,6.11-4.48,45.46,45.46,0,0,0,5.48-5.19c4.66-5.57,5.89-12,6.22-18.85.11-2.28.12-4.6.1-7-.12-1.6-.25-3.17-.4-4.75s-.29-3.11-.44-4.65c-1.31-7.55-.57-14.17.17-21.53,2.93,8.82,5.14,17.65,10.14,25.33Q449.11,90,450.48,93c.91,2,1.8,4,2.69,6,.9,2.47,1.66,4.87,2.34,7.29,3.23,11.88,4.52,24.06,2,35.91a61.42,61.42,0,0,1-2.92,6.38,47.4,47.4,0,0,1-13.45,16c-1.43,1-2.82,2.05-4.11,3.15a27,27,0,0,0-2.44,2.33,19.35,19.35,0,0,0-2.06,2.69A16.42,16.42,0,0,0,431,175.8a9,9,0,0,1-.1,1.21c-.06.43-.13.86-.17,1.28,1.44,3.36-.32,6.87-.32,10.38,8.78,0,19.31,0,28.09-3.51-3.51-1.75-7,1.76-8.78-1.75,10.54-1.76,21.06,0,29.84-5.16q.84-.6,1.65-1.23a44.55,44.55,0,0,0,4.29-3.84l1.48-1.57c8.38-9.26,17.15-12.78,27.69-18H498.82c5.27,0,12.3,1.75,17.55-1.76-8.77,8.78-22.81,8.78-28.94,20.52-.48.57-.94,1.11-1.4,1.62a42.62,42.62,0,0,1-7.28,6.51c-.51.25-.91.45-1.39.64A156,156,0,0,0,455,185.16c3.51-1.75,5.27,1.76,7,1.76-1.75,3.51-5.27,1.75-9.61,2h-2l-2.1-.07c-9.11,1.64-19.64,3.39-20.23-8.57-.47-.56-.82-1.11-1.16-1.6-5.27-4,1.75-9.26,0-12.77-1.75,5.27-7,8.79-3.51,15.8-10.53-5.26,0-12.29,2.18-18.76.24-.43.49-.89.78-1.32a8.17,8.17,0,0,1,1-1.21,4.08,4.08,0,0,0,2.21,3.68A19.2,19.2,0,0,1,428,159.1c-.33-1.76-.58-3.58-1-5.28-.47-3.76-2.67-6-6.36-7.44a11.32,11.32,0,0,0-4.68-.27,6.34,6.34,0,0,0-4.14,2.48c-2.21,2.94-.74,6.62,1.38,8.84,1.26,2.15,2.77,4.16,4.09,6.26A12.67,12.67,0,0,1,418,165c.08,4.35-3.43,9.63-1.68,13.13,0-3.5,0-8.78-.66-11.67a10.81,10.81,0,0,0-1.05-1.35,52.13,52.13,0,0,0-3.95-4.05c-.27-.26-.55-.5-.83-.75-.53-3.25-4-3.25-4.83-7.45-.2-.44-.38-.9-.56-1.35s-.35-.91-.5-1.38c-1.68-6-2.41-12.58,2-16.26,1.84-1.36,3.72-2.59,5.63-3.78s3.83-2.31,5.76-3.42a41.26,41.26,0,0,0,6.07-3.11,48.59,48.59,0,0,0,5.4-3.92c3.62-3.42,5.83-7.84,7.3-13a57.18,57.18,0,0,0,.68-6.61c.12-2.2.14-4.39.14-6.57-.14-1.86-.3-3.7-.45-5.55s-.32-3.69-.48-5.55c-.63-8.82-.63-18.38,1.59-27.21-.74,9.56,2.2,17.65,5.34,26.45,1,2.37,2,4.72,3,7.07,2,4.71,4,9.47,5.77,14.42.83,2.33,1.61,4.65,2.31,7,2.81,9.31,4.56,18.79,3.34,28.69a64.8,64.8,0,0,1-3,8.06A89.86,89.86,0,0,1,441.29,168c-1.56,1.89-3.1,3.74-4.44,5.59a2.58,2.58,0,0,0,.25,1.08,3.4,3.4,0,0,0,.66.94,26.27,26.27,0,0,0,7.91.72c.65-.08,1.29-.18,1.93-.3s1.27-.25,1.87-.4,1.2-.31,1.75-.48c3.73,1.23,5.48-2.29,7.15-3,.45-.26.9-.54,1.36-.82a36,36,0,0,0,3.83-2.79,58.42,58.42,0,0,0,8.72-12.59c.3-.56.57-1.13.85-1.7,1.13-5.92,4.63-11.19,4.79-16.6.07-.74.09-1.42.11-2.12.18-10.37-3.4-20.13-6.82-30-1-2.49-1.87-5-2.87-7.6a154.74,154.74,0,0,1-7-17.8c-.66-2-1.27-4.06-1.83-6.16-5.51-13.73.94-28.43,1.54-42.53a20.31,20.31,0,0,0,0-2.06c-.83-7.45-7.86-7.45-11.37-11,7-1.76,10.54,5.26,16.15,7.71l1.56,1.41a19.43,19.43,0,0,0,4.77,3.36C482.45,36,485.4,20.6,489.07,13.24c-2.94,10.3-8.09,18.39-17.65,24.28-11,5.88-10.3,22.06-7.18,33.88.74,2.77,1.59,5.52,2.48,8.27,2.66,8.2,5.66,16.22,7,23,.72,2.21,1.49,4.4,2.29,6.57,3.41,9.51,7.41,19,7.15,29.32a4.42,4.42,0,0,1-.37,1.84c-6.8,2.68-6.8,9.7-4.82,16-.3.56-.6,1.12-.92,1.67a52.57,52.57,0,0,1-8.6,11.14,43.48,43.48,0,0,1-5.66,3.28l-1,.49c-.34.17-.68.33-1,.48-7.58,4.71-14.6,4.71-21.62,4.71,0,0,0-1.75-.88-2.09a10.86,10.86,0,0,1-.75-1.05,5.8,5.8,0,0,1-.67-2.87,8.62,8.62,0,0,1,1.31-4.71A143.22,143.22,0,0,0,450.07,149q1.76-3.27,3.27-6.63c4.62-10.51,2.71-21.29-.82-32-.71-2.15-1.48-4.29-2.28-6.43a148.65,148.65,0,0,0-5.65-14.28c-.68-1.58-1.36-3.16-2-4.76-2.06-3.28-2.79-7-3.53-10.63,0,2.94,0,6.61,0,9.51s-.1,5.79-.23,8.58c-.07,2.5-.1,5-.17,7.42-.26,7.3-.95,14.37-6,19.69a53.86,53.86,0,0,1-4.47,4.35,110,110,0,0,1-9.74,7.83c-1.74,1.35-3.47,2.68-5.18,3.93s-3.41,2.41-5.06,3.42c-4.41,2.93-2.21,11,1.36,16.21a18.24,18.24,0,0,0,3.5,5.66,30.49,30.49,0,0,1-1-5,15.25,15.25,0,0,1,.11-7,6.51,6.51,0,0,1,4.11-4.77c3.68-2.22,8.83,0,11,3.67,1.48,4.42,3.68,8.83,2.44,13.27a13.88,13.88,0,0,1-.6,3.38,7.44,7.44,0,0,1-.4,1,1.31,1.31,0,0,0-.14-1.67,1.9,1.9,0,0,0-1.28-.56c1.32,6.07-12.72,9.58-2.19,14.85-5.26-3.5,0-5.27,0-8.78-1.76,3.51-1.76,7,3.06,9.6.31.56.66,1.08.95,1.61-.5,13.37,10,8.1,19.7,8,.37,0,.75,0,1.13.06l1.12,0c.38,0,.76,0,1.11,0,2.77-1.8,8,1.71,11.54-1.8h-3.5c5.26-5.27,12.28-3.51,19-5.51.59-.37,1.15-.74,1.7-1.12a47.1,47.1,0,0,0,6.82-5.85c.45-.47.89-.95,1.36-1.46,8-10.63,20.29-14.15,30.82-19.41-5.26-3.51-8.77,1.75-14,0,3.51,0,5.27-1.76,7-3.51,0-1.75-3.51-1.75-4.65-2.34a7.72,7.72,0,0,1,1-1.24c1.52-1.73,3-3.51,4.47-5.27.4-.51.81-1,1.22-1.59,6.76-5.36,8.52-14.13,17.29-17.64-10.53,1.75-14,10.52-20.73,17.4a4.37,4.37,0,0,1-1.36,1c-1.47.61-3.3,0-5.91-3.47.28-.56.59-1.13.89-1.69a26.18,26.18,0,0,1,4.3-6.2c-1.76,0-5.27,1.75-7-1.76,1.75,0,8.78-1.75,7,3.51a59.64,59.64,0,0,0-5,5.39,9.88,9.88,0,0,0-1,1.51c4.75,4.45,7.12,3.6,9,1.42a17.89,17.89,0,0,0,1.1-1.61c4.69-3.2,6.45-10.22,13.47-13.73-5.27,5.27-7,10.53-11.81,16.41a19.79,19.79,0,0,1-1.19,1.67,32.39,32.39,0,0,1-5.29,4.84,8.77,8.77,0,0,0-1.2,1c.18,5.93-5.08,4.17-6.84,5.93,5.27,1.75,12.29-3.51,17.55,0-10.53,3.5-21.06,7-28.07,15.79,7-10.53,21.06-10.53,29.83-17.55-5.26,0-12.29,3.51-17.55,1.76,1.75-3.51,8.78,0,7-5.26,0,0-1.76,0-1.27-.72.38-.31.87-.66,1.36-1a28.53,28.53,0,0,0,5.27-4.77,17.7,17.7,0,0,0,1.16-1.75c2.25-5.8,9.27-11.06,11-16.33-5.27,3.51-8.78,8.77-14.7,13.08-.49.37-1,.72-1.43,1.07a10.13,10.13,0,0,0-3.18,3.41c-1.75,0-1.75-1.77-1.06-3.76l.8-.76c1.08-1,2.22-1.94,3.32-2.85.28-.22.57-.46.86-.72,3.11-4.2,6.61-6,10.12-9.47-1.75,0-1.75,0-2.9-.83a2.71,2.71,0,0,1,1.15-.92c-3.52,0-3.52,1.75-6.61,2.21a12.85,12.85,0,0,1-2,.53,4.78,4.78,0,0,1-5.56-2.59,14,14,0,0,1,.05-1.93c.24-3.29.46-6.6.53-9.9,0-.66,0-1.32,0-2-.42-3.91-.42-9.17-1.13-13.54-.12-.63-.26-1.26-.41-1.88s-.25-1-.38-1.48-.29-1-.45-1.5a83.85,83.85,0,0,0-5.2-9.28c-.33-.57-.65-1.15-1-1.73-4.62-8.79-6.83-19.07.89-27.07a11.89,11.89,0,0,1,5.16-1.09c.37,0,.64.46.9,1.14,5.14,2.7,8.41-2.38,12.21-3.61.48-.16,1-.26.79.3l-1.12.25C506.32,51,500.27,56.19,497.23,65c-.21.57-.41,1.14-.61,1.72-2.44,7.47-2.6,15.24-3.46,23-.22,1.92-.42,3.84-.49,5.82a42.23,42.23,0,0,0,.08,5.94c1.06,8.5,2.89,17,3.49,25.58.05.66.09,1.31.14,2,.43,2.16,1.28,4.34,1.21,6.59a13.86,13.86,0,0,1-.09,1.4c1.85,4.65,1.32,7.78-.24,10.63a13.17,13.17,0,0,1-.88,1.41,4.27,4.27,0,0,0-2.28,2.6c-.19.43-.37.88-.54,1.36,0,7.55-5.26,12.81-10.17,17.16-.4.46-.82.93-1.24,1.39a48.67,48.67,0,0,1-4,3.87c-.55.46-1.11.91-1.71,1.36-9.21,4.83-19.74,1.32-28.51,6.59,3.5,0,7-1.76,8.77,1.75-8.77,0-15.8,1.76-24.57,1.76,5.26,1.75,12.29-3.51,17.55-1.76a1.72,1.72,0,0,1-1.75,1.76c3.5,1.75,5.26-3.51,8.77-1.76-3.51,0-5.27-3.51-8.77-1.75,8.77-3.51,19.3-1.76,28.68-4.6.48-.17.89-.35,1.39-.56a58.91,58.91,0,0,0,5.92-3.92,38.46,38.46,0,0,1-5.37,4.94c-.47.25-.85.47-1.3.67-8.26,1.71-17,1.71-25.82,5.22,3.52,0,7-1.75,10.54,1.76-12.29-3.51-31.6,10.53-33.6-6.72a9.6,9.6,0,0,1-.83-1.47c-7.69-5.86-.68-9.37-.68-14.63,0,5.26-1.75,14-8.77,10.54,0,1.75,0,5.26,3.51,5.26-7,1.75-5.27-7-8.77-9.92a16.71,16.71,0,0,0-1.4-1.27,19.32,19.32,0,0,0-3.14-2.1c-.39-.18-.78-.35-1.2-.5-8.31,3.25-15.33,6.76-17.31-6a5.07,5.07,0,0,1-.75-1.24c-3.92-8.83.33-16.68,4.47-24.63,1-2,2.07-4,3-6a35.28,35.28,0,0,0,2.16-6.16c0-1.46-1.49-1.46-3-1.46,1.48,0,3.72.71,3,1.46a41.25,41.25,0,0,1-4.35,12.71c-1.07,2.14-2.17,4.29-3.12,6.43-2.38,5.37-3.79,10.73-1.22,16,.26.53.55,1.05.88,1.67.95,8.73,6.21,15.75,14.57,7.66a4.29,4.29,0,0,1,1.44.7c1.19,1,2.3,2.12,3.41,3.26.45.44.89.9,1.32,1.36,3,1,3,8,8.3,8-7-5.26,0-8.78,3.5-14.05,3.51,5.27-1.75,7-3.5,8.79,1.75-3.52,5.26-7,3.83-11.66a9.26,9.26,0,0,1,.35-1.57,5.44,5.44,0,0,0,.32-3.26,8.5,8.5,0,0,1,4,5.51,11.18,11.18,0,0,1,.23,1.33c.06.86,1.81-.89,1.27-.13a14.19,14.19,0,0,0,.31-1.47c.08-.49.14-1,.17-1.49a17,17,0,0,0-.7-6c-.85-4.4-4.53-6.61-7.46-9.56a6.56,6.56,0,0,0-5.07-.91,12.75,12.75,0,0,0-4.51,2.39c-2.94,3-.73,6.62.34,9.22a17.91,17.91,0,0,0,3.29,6.19c.22.31.45.63.66.94a8.64,8.64,0,0,1,.59,1c.64,2.45.64,4.19-1.12,6,0-1.76,0-3.5-.09-5.57-.34-.38-.7-.75-1.06-1.1a22.88,22.88,0,0,1-3.82-4.48,43.6,43.6,0,0,1-4.38-7c-2.5-5.14-4.71-11.76-.29-14.7a41.72,41.72,0,0,1,5.56-3.1c1.86-.87,3.73-1.61,5.58-2.32a38.05,38.05,0,0,0,11.86-5.93,26.65,26.65,0,0,0,4.74-4.52c4.15-7.87,4.39-16,4.14-24.18-.07-2-.16-4.07-.27-6.14-.18-1.87-.4-3.79-.64-5.72s-.5-3.88-.72-5.87c-.09-4.74-1.57-8.42-.09-12.83a69.28,69.28,0,0,0,6.65,16.54l2.61,5c1.72,3.32,3.41,6.67,5,10.1,1,2.19,1.87,4.36,2.72,6.53,4.09,10.75,6.76,21.77,5.46,33.12a43.72,43.72,0,0,1-2.94,7.45,48.51,48.51,0,0,1-15.08,18,43.68,43.68,0,0,0-4.13,2.6c-2.48,1.83-4.32,4-4.69,7.35a6.78,6.78,0,0,0,.22,3.15c.16.49.36,1,.5,1.48-1,2.69-1,6.2-2.78,8,8.78,1.75,19.31-1.76,28.09-1.76-3.51,0-7,0-10.53-1.75,8.77-5.27,21.06,0,30.11-6.87.42-.4.83-.79,1.24-1.2a50.57,50.57,0,0,0,3.73-4.19l1.12-1.47c2.41-5.58,9.43-9.09,7.51-16,.13-.63.28-1.29.44-1.93.64-2.62,1.56-5.28,3.4-7.07a7.88,7.88,0,0,0,.08-1.6,32.44,32.44,0,0,0-1.49-6.44c-.05-.62-.1-1.24-.18-1.86-1.09-9.26-4.6-17.92-7.75-26.78-.77-2.14-1.52-4.29-2.24-6.49-2.19-11-8.62-23.92-11.43-36.17A49.44,49.44,0,0,1,471.31,58c-2.84-14.61,11.14-22.7,17.76-33.73,1.47-3.68,2.95-7.36,4.35-11.39a59.63,59.63,0,0,0,1.95-6.25A38.65,38.65,0,0,0,496.43,0c-.37,5.15-.74,10.11-1.18,15.11-.14,1.67-.29,3.34-.45,5a50,50,0,0,0-.52,6.1c-.08,2.07-.14,4.16-.36,6.16-.43,2.92-.43,5.86-2.63,8.07a12.66,12.66,0,0,1-5.19,2C478,44.87,472.16,34.57,468.47,36c-13.23,7.36-12.49,26.48-7.86,41,.73,2.31,1.53,4.62,2.36,6.93,2.5,6.92,5.31,13.74,7.43,20,.74,2,1.51,3.94,2.3,5.91,2.29,5.83,4.69,11.76,6.08,18.11a45.31,45.31,0,0,1,.47,7.7c0,.51,0,1-.07,1.54.34,5.8-6.68,9.31-4.81,16.11-.26.51-.55,1-.84,1.58a52.1,52.1,0,0,1-10.62,13.36,54.4,54.4,0,0,1-5.58,3.69c-.38.23-.78.44-1.17.66-1.21-1.52-3,2-5.12,2.41-.34.14-.68.27-1,.39-.69.26-1.37.48-2,.69s-1.36.38-2.07.55c-3.24-.29-5,3.22-8.51,1.46,0,0,0-1.75-.61-1.4-.48-.19-1-.39-1.46-.63a8.86,8.86,0,0,1-2-1.34,9.23,9.23,0,0,1-1.63-1.91,15.24,15.24,0,0,0,.6-3.91,12.69,12.69,0,0,1,2.08-1.76c1.25-.87,2.78-1.74,4.42-2.7,7.49-5,12.34-12.11,15.31-20a44.31,44.31,0,0,0,1.83-6.07c1.26-10.55-1.59-21.5-6-31.24q-1.32-2.92-2.81-5.69a44.55,44.55,0,0,0-1.2,4.46c-1.64,7.52-1.73,15.32-5.37,22.28-1.1,2.15-2.16,4.34-3.15,6.56-2,4.43-3.83,8.94-5.82,13.14a35.12,35.12,0,0,0-1.86,8.84,22,22,0,0,0,1,8,6.9,6.9,0,0,1-.3,1.12,6.38,6.38,0,0,1-.59,1.12c-1.21.63-1.21.63-1.21,2.37-5.27-1.74,3.51-3.51-.31-5.15a4.62,4.62,0,0,0-.55-2.1,5.29,5.29,0,0,0-1.85-1.83c0,.43,0,.85,0,1.28s0,.86,0,1.29c.9,6.51-9.63,13.54-.85,18.8-3.51-5.26-3.51-7,0-12.29-1.76,3.51,1.75,7,3.24,10.21.24.53.51,1,.7,1.57-.43,11,11.85,5.78,18.44,7,.45,0,.86,0,1.25,0l1.07.07,2,.15c3.17-1.43,8.44,2.08,11.94-1.43,0,0-5.26,1.75-3.5-1.76,5.26-3.51,15.79,0,20.47-4.58.56-.4,1.1-.81,1.63-1.23a38.16,38.16,0,0,0,4.55-4.28c.38-.43.75-.87,1.11-1.31s.85-1,1.33-1.6c6-11.57,18.29-13.33,28.82-18.59-5.26-3.51-8.77,3.5-14,0,1.76,0,3.51-1.76,5.27-3.51,0-1.75,0-1.75-1.55-2-.1-.27.28-.65.77-1.06a51,51,0,0,0,6.9-6.7c.24-.45.46-.77.69-1.13a60.37,60.37,0,0,1,16-19c-8.77,3.51-14,12.28-21,18.85a8.4,8.4,0,0,1-1.57.82,6.39,6.39,0,0,1-5.51-.37,12.2,12.2,0,0,1,.3-2.73c.28-.5.57-1,.86-1.46a19.54,19.54,0,0,1,5.87-6.33c-1.76-5.27-8.78,1.75-11.11-3.9-.13-.54-.26-1.08-.4-1.62A30.7,30.7,0,0,0,495,112.54c2.57,3.61,3.34,7.57,4.08,11.65.11.58.21,1.16.32,1.75-.54-.45,1.22,10.08,2-.5.08-.6.21-1.25.34-1.91,1.94-9.81.36-19.27-2.48-28.62q-1.05-3.39-2.3-6.78a41.72,41.72,0,0,1-2.19-38.82q.66-2.43,1.31-4.87t1.25-4.91c.5-2.18.94-4.39,1.3-6.57s.62-4.34.77-6.48c2.94,4.42,3.68,9.56,4.42,14.71-1.48-5.15-1.48-10.29-3-15.45a36.35,36.35,0,0,0-1.67,7.62c-.31,2.6-.41,5.26-.47,7.89,0,1.47,0,3,0,4.64s0,3.28,0,4.94c-.07,6.55-2.28,16.11-10.37,14.64-4.42-.74-5.15-6.62-9.56-8.83-1.47-.74-4.42-1.47-4.42,0-.18,2-.28,4-.32,6-.21,14,3.2,27.41,7.89,40.14.68,1.92,1.4,3.79,2.13,5.65,3.57,9.23,7.46,18.13,7.87,28.06,0,.4,0,.8,0,1.19s0,.8,0,1.19c0,.69,0,1.36,0,2-4.95,8.38-5.36,9.07-5.62,16.91,0,.69,0,1.45,0,2.25-1.55,2.27-1.55,2.27-2.86,4.45-.71,1-1.43,1.9-2.19,2.81a49.45,49.45,0,0,1-5,5.19l-1.22,1.07c-11.38,6.3-23.67,8.05-36,11.56,3.51,0,5.27-1.75,8.78-1.75-3.51-1.76-8.78,1.75-12.29,0a11.29,11.29,0,0,0-.94-5.41,12.24,12.24,0,0,1-1.37-1,8.47,8.47,0,0,1-1.79-1.92c-1.17-2.22-1.17-2.22.15-4.43a19.92,19.92,0,0,1,1.85-2.33,28.16,28.16,0,0,1,2.14-2.09c7.2-4.41,13.74-13.24,17-22.16a31.85,31.85,0,0,0,1.73-6.67c.07-7.22-1.4-17.51-8.75-19-2.21,0-5.16,4.41-7.52,6.69-1.64,1.2-3.42,2.45-5.27,3.63-3.7,2.39-7.64,4.58-11.61,5.41a32.37,32.37,0,0,0-5.87,3.18c-5.3,3.69-8.82,9-8,16.09a20,20,0,0,0,3.36,5.43c.91,2.59,3.19,4.07,5.25,5.72a6.48,6.48,0,0,1,1.11,1.11c4.47,3.67-2.55,5.43-.8,8.95a15.2,15.2,0,0,0,1.24-9.75,12.05,12.05,0,0,0-.77-1.23c-1.66-2.38-3.49-4.78-4.2-7.76-1.68-4.93,2-12,6.49-13a5,5,0,0,1,4.55,1.24c2.91,2.23,3.64,5.91,3.28,9.57-.21,1.94-.6,4-.92,6-.07.5-.14,1-.2,1.49s-.11,1-.15,1.47c1.21,6.71-4,12-7.56,13.74-5.27,3.51-3.51-5.27-6.19-6.47-.33-.56-.67-1.11-1-1.64a11.77,11.77,0,0,0-2.91-3.13,7.41,7.41,0,0,0-1.46-.52c-4.21-.53-6,3-9.48,1.22,3.51,1.77,7-3.5,10.07-.43a12.1,12.1,0,0,1,1,.92c.84,1,1.63,2.07,2.42,3.1.39.52.78,1,1.18,1.52,2.92,1.91,2.92,10.69,4.67,7.18,3.52-3.5,5.27-10.52,4.42-15.09,0-.45-.08-.86-.08-1.23a7.23,7.23,0,0,1,.93.8,5.31,5.31,0,0,1,.72.92c2.79,7.58-6,12.85,3.61,17a14,14,0,0,0,.64,1.64c2.05,1.28,2.05,3,2.05,4.79a8.1,8.1,0,0,0-1.75-5.77c-.27-.56-.5-1.15-.8-1.64-2.72-1.37-2.72-3.12-2.72-6.64-1.75,5.27,7,1.77,5.31,6.57a8.31,8.31,0,0,1,.9,1.61,26.43,26.43,0,0,1,.81,7.62c8.78,3.51,19.31-3.51,29.85-1.75-1.76-3.51-5.27-1.76-8.79-1.76,8.79-5.26,17.56-3.51,26.33-5.26-10.53,0-19.3,1.75-29.83,3.51,3.5,3.51,8.77,1.75,12.29,1.75-10.54,3.51-19.32,1.76-29.85,3.51a16.22,16.22,0,0,0,1.32-9.92,3.62,3.62,0,0,1-.79-1.25,3.54,3.54,0,0,1-.23-1.19,3.21,3.21,0,0,1,.13-1.16c1.33-.51,1.33-.51,1.32-1.86a2.86,2.86,0,0,1,1.12-.46,3.91,3.91,0,0,1,1.4,0,39.91,39.91,0,0,0,18.13-.09,35.63,35.63,0,0,0,5.6-1.84,48,48,0,0,0,15.09-15.28c.32-.53.64-1.08.94-1.62a74.1,74.1,0,0,1,5.78-15.4c.09-.66.16-1.27.21-1.89a35.31,35.31,0,0,0-.14-7.28c-1.11-7-3.68-13.61-6.07-20.13-.84-2.22-1.65-4.42-2.42-6.66-1.21-6.53-3.71-13.21-6.39-20l-2.72-6.79c-7.84-15.7-3.38-32.62,2.21-48.29.22-.63.44-1.25.68-1.88.27.46.55,1,.82,1.45C470.52,34.78,475,46.82,485.1,43a14.22,14.22,0,0,0,5.21-2.36A7.77,7.77,0,0,0,493,35.77a17.91,17.91,0,0,0-1.11-8.09c-.58-4.14-1.33-9.29.15-13.7-3.68,6.62-4.42,16.18-12.51,19.12-5.88,1.47-10.3-7.36-11.77-5.88-12.5,11.77-16.18,34.57-8.37,51.52.86,2.45,1.79,4.9,2.76,7.34,2.91,7.3,6.16,14.48,8.92,21.31.79,2,1.59,4,2.38,6,2.35,6,4.52,12,5.35,18.33,0,1.22.08,2.45.14,3.67,0,.61.06,1.22.07,1.83-1.23,5.87-4.73,11.14-3.57,16.34-.14.5-.31,1-.49,1.54a67.1,67.1,0,0,1-5,10.43,49.77,49.77,0,0,1-3.62,3.65,40.53,40.53,0,0,1-4.42,3.51,18.33,18.33,0,0,1-1.71,1c-3.52,1-7,2.71-10.44,3.47-.35,0-.95,0-1.55-.05s-1.22-.1-1.84-.19c-2-.52-2-.52-3.72-1.08.38-.28.72-.55,1-.82,1-.81,2-1.65,2.93-2.55,1.29-1.2,2.57-2.46,3.8-3.81A131.08,131.08,0,0,0,462.11,148a71.13,71.13,0,0,0,3-7.89,69.26,69.26,0,0,0-.29-22.23c-.39-2.42-.87-4.83-1.42-7.24-1.81-8.64-5.25-16.75-8.82-24.81-.89-2-1.8-4-2.68-6.06-7-10.62-5.4-22.2-3.33-33.81.14-.7.27-1.4.43-2.12,2.39-6.07,2.39-11.33,2.39-16.6-7,3.51-7,10.53-12.51,15.17q-.54.81-1.05,1.65a42.78,42.78,0,0,0-5.17,14c-.25,1.24-.45,2.51-.68,3.47.11,2.57.11,6.08-.46,7.88,0,1.45.05,2.74.11,4A86.72,86.72,0,0,0,433,84.81c0,2.64,0,5.18-.12,7.69-.35,7.55-1.4,14.9-6.09,21.54a29.34,29.34,0,0,1-6.08,5.12c-2.2,1.47-4.41,3.13-6.71,4.61a28,28,0,0,1-7.26,3.48c1.47-5.15,6.62-5.88,8.83-10.29.73-2.21-.74-2.21-2.21-2.21,1.47,0,2.21.73,3.68.73-5.89,5.89-13.24,10.3-18.55,16.72a32.44,32.44,0,0,0-2.83,3.93c-2.39,3.94-3.36,8.05-1.42,12.46a36.41,36.41,0,0,0,2.19,4.65c.12.63.3,1.22.41,1.92.23,3.67-1.52,8.94.23,12.46,1.76,1.74,5.27-3.52,9.29-1.89.3.32.59.64.9,1a17.83,17.83,0,0,0,2.81,2.61c.46.35.93.67,1.41,1,4.9,2.58,3.15,11.36,10.17,9.61-8.78-1.76-1.75-10.54-2.61-15.79-.24-.53-.49-1.05-.73-1.56a24.8,24.8,0,0,1-2-16.17c1.33,5.3,3.84,10,4.89,15.11.11.56.21,1.14.28,1.72-1.57,6.15-6.84,14.93,3.29,18.25a5.92,5.92,0,0,0,1.1,1l.95.63c3.61,10.89,14.14,5.62,20.84,7.12.67.06,1.34.1,2,.13,1.34,0,2.68,0,4,0,.67,0,1.33-.08,2-.14a5.1,5.1,0,0,0,4-.53l2-.4a10.6,10.6,0,0,0,1.76-.49c.37-1.8.37-1.8-1.38-1.8,5.26-3.51,12.29-3.51,18.34-5.74.58-.39,1.16-.78,1.73-1.18a67.08,67.08,0,0,0,8.36-7c.49-.52.8-.82,1.11-1.15,7.31-9.47,21.36-13,28.38-21.76-3.52-1.75-7,1.75-10.47-1.39-.26-.26-.05-.65.3-1.08,1.43-1.7,2.85-3.45,4.25-5.2.39-.5.79-1,1.17-1.53,4.75-8.36,13.53-13.62,17-22.4-7,5.27-14,10.54-19.66,19.41a2.26,2.26,0,0,1-1.39.54,3.31,3.31,0,0,1-1.76-.64c.31-.46.63-.91.95-1.34s.67-.87,1-1.3c5-2.63,6.79-9.64,12.06-11.4h-1.76c3.51-3.51,7-7,9.45-12.35a13,13,0,0,0,1.08-5.2c-5.26,5.26-10.53,14-19.11,13.91a2.65,2.65,0,0,1-.34-1.7c.08-1.59.1-3.18.09-4.77a16.17,16.17,0,0,0-.15-2.13c0,.43,0,.87,0,1.3,0,1.32,0,2.63-.09,3.94,0,.65-.05,1.31-.09,2a8.49,8.49,0,0,0,5.64,1.52c7-5.26,12.29-12.29,14-21.06a20.24,20.24,0,0,1-1.69,11.23c-.26.56-.53,1.13-.79,1.67A106,106,0,0,1,512.41,135a11.53,11.53,0,0,1-1.29,1,3.18,3.18,0,0,0,1.79.12c8.73-3.64,10.49-14.16,19.26-17.68-1.75,8.78-12.28,14-16.21,22.22-.38.54-.77,1-1.17,1.54-1.79,2.1-3.67,4.06-5.46,6.06a3.15,3.15,0,0,0,1.1.68c2.1,1.43,4.46,1.26,6.74,1,1.14-.15,2.26-.34,3.31-.38a12.66,12.66,0,0,0,4.67.52c-1.75,0-3.51,0-3.35.88-.72.31-1.33.62-1.91.94-9.33,5-18.44,11.62-25.49,20.85L493,174.39c-1.24,1.49-2.55,3-4,4.36a43.8,43.8,0,0,0,4.39-4.21c.48-.52,1-1,1.42-1.6,6-9.92,16.22-15.27,26.38-19.72l2.11-.78c10.56-4.13,19.34-7.65,29.87-11.15-8.78,5.26-21.07,3.5-30.58,8.26l-2,.11c-4.09.29-7.85.75-10.76-1.46.4-.41.81-.81,1.22-1.2,1.25-1.19,2.56-2.3,3.78-3.47.47-.46.92-.92,1.35-1.41,7.18-6.1,10.69-14.88,15.95-21.9-8.77,1.76-12.28,10.53-19.37,15.35a3.56,3.56,0,0,1-1.68.45,16.77,16.77,0,0,0,1.21-1.42c4-9.11,14.58-14.38,18.42-23.1.3-.56.57-1.12.84-1.69a31.28,31.28,0,0,0,2.34-7.14c-5.26,7-10.53,15.79-21.06,17.55a5.32,5.32,0,0,1,.34-2.68c0-.83,0-1.67.06-2.49s0-1.65,0-2.47c0-.56,0-1.11,0-1.65-.21-5.64,1.36-10.87,2.77-16.26.19-.68.38-1.35.6-2.11,3.27-9.2,3.27-19.73,12-26.75-8.78,5.27-12.3,15.79-17.55,24.57,1.75-14,5.25-29.83,17.62-37.69.53-.32,1.09-.63,1.68-.92-.66.22-1.3.45-1.91.7.16,1.05-1.6,1.05-3.49,1.63-.55.3-1.08.61-1.6.93-6.18,3.86-10.18,9.42-14.35,15.89-.49.58-.93,1-1.34,1.42-4.38,3.66-4.8,8.21-3.5,17.47.1.65.17,1.27.25,1.89s.16,1.25.23,1.88.14,1.26.2,1.88c2.69,3.7-.82,9,.75,13.41,0,.65,0,1.29,0,1.92,0,3.21-.05,6.42-.17,9.59a14.38,14.38,0,0,0,0,1.86c2.79,4.26,5.08,4.19,7.31,3.06a15.53,15.53,0,0,0,1.41-.85,93.52,93.52,0,0,0,8.28-5.4,13.77,13.77,0,0,1,1.42-1c-.42.46-.78.9-1.14,1.33s-.69.86-1,1.3-.65.85-1,1.27a39.31,39.31,0,0,1-8.68,8.66l-1.65,1.29a32.64,32.64,0,0,0-4.42,3.93,14.59,14.59,0,0,0-1.19,1.53c-.79,2.21-.79,4,1,4a16.72,16.72,0,0,0,4.36-2.35c.45-.32.89-.66,1.33-1,8.35-3.68,11.86-14.21,20.63-17.72a60.36,60.36,0,0,0-16,18.94,11.38,11.38,0,0,0-.7,1.14,47.77,47.77,0,0,1-6.83,6.57c-.5.41-.95.79-1,1.07,1.68.37,1.68.37,1.68,2.12-1.76,1.75-5.27,1.75-7,3.51,5.26,1.75,10.53-1.76,15.79-1.76-5.26,7-14,5.26-19.31,10.54,5.27-5.28,14.05-3.52,19.31-10.54-5.26,0-12.28,3.51-17.55,1.76,1.76-3.51,7-1.76,6.72-6,.33-.28.84-.61,1.35-1a21.71,21.71,0,0,0,5.33-4.86,13.32,13.32,0,0,0,1-1.82c3.1-2.12,3.1-5.63,4.86-7.39-3.52,0-5.26,3.52-6.44,4.7-.52.4-1,.72-1.43,1.06-3.17,2-6,4.25-9.68,3,0,0,0-1.77.19-3.75a9,9,0,0,1,1.21-1.63c2.74-3,6.32-5.51,7.38-8.67-3.52,0-7,1.76-10.16-2.57-.09-.59-.19-1.16-.29-1.74a88.13,88.13,0,0,0-4.35-15.06c-.83-2.18-1.7-4.35-2.59-6.51a108.89,108.89,0,0,0-6.13-13.82c1.47,5.14,2.21,10.29,3.18,15.44.53,2.46,1.09,4.9,1.65,7.35,1.28,5.51,2.58,11,3.54,16.53.11.61.22,1.23.31,1.83a30.2,30.2,0,0,1,.63,7c0,.47,0,.93,0,1.43,4.31,7.57,4.05,9.07.37,12.88-.45.48-1,1-1.56,1.51a4.28,4.28,0,0,0-1.42,1.15,1.69,1.69,0,0,0-.42,1.19c-.36,1.5,1.4,1.5,3.15,1.5-1.75,7-8.77,7-11.28,13.61-.51.6-1,1.13-1.43,1.66a43.19,43.19,0,0,1-6.81,6.22,9.4,9.4,0,0,1-2.39,1.26,80.33,80.33,0,0,0-27.23,5.34c3.5,0,7-1.76,8.77,1.75-8.77,1.76-15.8,3.51-24.57,3.51-5.27-1.75,0-5.26,0-7,0,1.76-5.27,5.27,0,7,3.51,0,7,0,10.53-1.75-8.77,5.26-12.29,1.75-13.65-7.23a7.62,7.62,0,0,1-.6-1.8c-1.55-5,3.72-6.77,4-9.55.37-.4.75-.76,1.14-1.13,1.16-1.11,2.41-2.14,3.66-3.19,4.95-4.77,10.57-12.12,13.55-19.2a27,27,0,0,0,2-6.89c1-6.26-4.89-15.83-12-11-1.41.55-2.92,1.22-4.52,1.93-4.8,2.13-10.17,4.72-15.77,4.41a49.49,49.49,0,0,0-6.08,1.19,36.54,36.54,0,0,0-16,8.55,68.4,68.4,0,0,1-5,6.34c-2.21-2.94,0-5.89.74-8.82a17.47,17.47,0,0,1,2.46-3.84c4.89-5.73,15.92-10.88,13-19.7-.74-2.21-5.88-4.42-9.84-5.52a27.77,27.77,0,0,0-6.22-.37,39.35,39.35,0,0,0-4.59.48l-1.42.15c.62-.32,1.25-.67,1.89-1l1-.55c1-.51,2-1,3.07-1.48,2.09-.94,4.29-1.77,6.52-2.58,2.21-.51,4.51-1.08,6.81-1.76A50.47,50.47,0,0,0,415,102a24,24,0,0,0,10.31-11,35.27,35.27,0,0,0,2.45-7.22c0-3.52.06-7.19.14-10.94-.13-.85-.16-1.36-.21-1.93.89-5.09-4.38-10.35.28-13.77.29.22.49.06.73.06,1.07-11.93,3.45-23.82,8.93-33.81.64-1.18,1.33-2.33,2.05-3.44,1.18-5,6.45-6.79,9.92-9.61.57-.3,1.16-.58,1.76-.86C456.75,7,462.72,5.38,467.23.87,456.7,2.62,446.17,4.38,437.4,10.5A12.44,12.44,0,0,0,435.92,12C429.67,19.47,426.46,29,425,39.15a4.48,4.48,0,0,1-.39,1.58c-4.79,4,.47,9.28-1.29,14.55A12.45,12.45,0,0,0,421.6,50c-.22-.44-.44-.87-.65-1.32s-.39-.91-.56-1.38a35.76,35.76,0,0,0-.54,8v-7c0,1.75,0,5.26,1.66,7.76.32,1.21.65,2.41,1,3.61,1.34,4.79,2.7,9.54,2.77,14.67l.21,2c.22,2,.44,3.88.67,5.74a33.35,33.35,0,0,1-.4,6.35,21,21,0,0,1-5.64,11.38,14.32,14.32,0,0,1-4.43,2.27,26.11,26.11,0,0,1-10,1.25c-2.37.09-4.73.13-7.08.19s-4.66.19-7,.42a7.12,7.12,0,0,1-1.6,0,7.81,7.81,0,0,1-1.19-1.9,5.88,5.88,0,0,1-.47-1.84c-.06-5.48,3.24-10.65,6.14-16,.33-.59.64-1.2.95-1.8a105.15,105.15,0,0,0,8-9.84c.34-.51.67-1,1-1.56,3.17-10.37,1.41-19.15-2.1-29.68,5.27,10.53,5.27,19.31.61,29-.37.47-.75.93-1.13,1.39-2.73,3.2-6,6.1-8.93,9.27-.34.55-.68,1.09-1,1.64-3,4.88-6.08,9.71-9.29,14.4-.38.44-.74.89-1.08,1.34a11.63,11.63,0,0,0-2,11.38c0,1.76,3.51,5.28,7.93,4.77.63,0,1.26.06,1.88.08,1.88,0,3.73,0,5.46.13a19.13,19.13,0,0,1,6,1.16c8.11,4.08,0,13.64-3.64,18.88a63.05,63.05,0,0,0-3.69,5.61c-2.21,3.87-3.68,8-2.94,12.69a5.07,5.07,0,0,0,.53,1.7,5.18,5.18,0,0,0,1,1.32c3.26,11.6,3.26,11.6,15.86,9.6l1,.85c1,.84,2,1.67,2.93,2.5a17.37,17.37,0,0,1,1.41,1.3c3.13,4.37,1.38,11.38,8.4,9.63-5.27,0-3.51-5.26-3.51-7,0,7,7,3.52,8.22,7.11.18.5.34,1,.52,1.52s.39,1.15.52,1.74c1.27,3.68,1.27,8.94,6.54,8.94-3.52,0-7-3.51-8.22-4.68-.64-.37-1.28-.74-1.93-1.1l-1-.53-1-.51c-3.72-2-7.23-2-10.73-2.46a5.78,5.78,0,0,0-1.47.69c-1.89,1.2-3.41,3.58-4.39,7.66,1.47-3.27,3.27-5.23,5.27-6.26a8.27,8.27,0,0,1,1.54-.59c2.55-2.75,6.06,2.52,8.46,1,.58.23,1.18.49,1.76.77s1.18.58,1.76.89,1.17.63,1.76,1c2.85.6,4.6,4.11,6.36,5.87a90.28,90.28,0,0,1-4.41-11.63c-.21-.5-.48-1-.69-1.52a1.14,1.14,0,0,1,.49-1.64c.35.59.73,1.15,1.06,1.7,0,13.09,12.32,7.82,19.4,7.69.8,0,1.49,0,2.17,0l1.93,0c2.87.2,6.38,2,9.89-1.55-1.75,0-3.51,0-5.27-1.76,7-1.75,14-3.51,20.94-3.79a10.78,10.78,0,0,0,1.93-1c1.48-1,2.94-2,4.35-3.1s2.55-2.49,3.73-3.81c.47-.52.93-1.05,1.45-1.65,8-9.47,20.26-11.23,29-20-5.26,1.76-8.77,1.76-14,1.76,3.51,0,5.27-1.76,7-3.51,0-1.75-1.76-1.75-2.67-2.28.32-.31.78-.68,1.24-1.05a39.77,39.77,0,0,0,5.18-4.89c.42-.56.85-1.13,1.26-1.79,5.51-7.55,9-14.56,16-19.83-8.77,3.51-14,10.53-19.76,17.93a14.06,14.06,0,0,1-1.41,1.27,11.37,11.37,0,0,1-3.4,1.87c-1.75,0-3.51,0-2.76-3.89A15.36,15.36,0,0,1,506,136a42.46,42.46,0,0,1,4.13-3.64c.48-.4,1-.78,1.43-1.2,3.05-2.18,6.55-2.18,8.31-5.69a17.71,17.71,0,0,1-4.32-.43,9.66,9.66,0,0,1-1.14,0,12.81,12.81,0,0,0-2,.1c-3.88.5-7.5,2.5-10.19-1.37-.08-.59-.17-1.19-.29-1.78-1-5.28-3.13-10.13-5.43-14.91-1-2.12-2.07-4.24-3.05-6.37-2.21-4.42-4.43-8.84-5.16-14A42.65,42.65,0,0,1,492,95.59c1,2.79,1.88,5.55,3,8.13a31.06,31.06,0,0,0-1.2-5.54c-.56-1.87-1.21-3.76-1.77-5.7-4.39-14.5,5.17-27.75,6-42.3.26-2,.48-4,.64-6s.27-4,.32-6.1q0-3.81-.37-7.65a77,77,0,0,0-1.12-7.71c-.14-2.94-.17-5.83-.1-8.74s.25-5.84.52-8.87c0,3.68-.19,7.54-.27,11.43,0,1.94-.05,3.9,0,5.83.08,3.57.63,7.41,1,11.23.17,1.91.28,3.81.26,5.66a14,14,0,0,1-.2,5.15,12.49,12.49,0,0,1-2.26,4.81c-1.45.76-2.19,2.23-3.66,3a11.36,11.36,0,0,1-6.23.26,35.33,35.33,0,0,1-6.09-2c-1.65-1.93-5.33-2.67-6.8-1.93-9.57,3.68-8.09,16.92-4.57,24.77.79,2.23,1.7,4.51,2.66,6.79,2.86,6.83,6.08,13.76,7.27,20.22.74,2.49,1.47,5,2.24,7.41,2.19,7.22,4.68,14.44,7.11,21.72a25.48,25.48,0,0,1,1.14,9,7.64,7.64,0,0,1-.27,2c-11.45,2.61-7.93,9.63-5.21,18.62q-.54,1-1.14,2a39.38,39.38,0,0,1-2.6,3.81,40.08,40.08,0,0,1-8.82,8.46c-.49.35-1,.68-1.5,1a114.11,114.11,0,0,1-29,9.07h7c-7,0-15.8,5.26-15.88-5.48a8.49,8.49,0,0,1-.9-1.58c-.78-1.71-2.53-5.23,1.37-7.45.29-.4.61-.8.94-1.19s.68-.77,1-1.16c5.57-4.25,11.33-11.05,15.53-18.39a58.49,58.49,0,0,0,3.62-7.44c3.79-10.53,1.59-26-9.44-28.91-4.42-.74-3.69,6.62-7.44,9.19a57.5,57.5,0,0,1-5.22,4.27c-3.72,2.73-7.61,5.3-11.49,6.59a51.65,51.65,0,0,0-6.62,4,35,35,0,0,0-5.28,4.6c5,4.41,11.17,6.75,15.87,11.21a20.78,20.78,0,0,1,4.09,5.32,16.75,16.75,0,0,1,1.48,7c0,.49-.05,1-.11,1.47-.18-.46-.38-.91-.58-1.35a16.21,16.21,0,0,0-2.18-3.6,10.73,10.73,0,0,0-4.41-3.3,17.27,17.27,0,0,1,2.2,5.7c.05.39.1.79.12,1.2.47,3.46-3,7-3,10.48,0-3.52,3.51-7,2.26-10.55a8.53,8.53,0,0,0-.24-1.54,12.53,12.53,0,0,0-.69,1.42c-3.08,5.39-4.84,10.67-4.84,15.93-3.51-1.76-5.27-5.26-7.17-8.51l-.71-.88a35.76,35.76,0,0,0-3.3-3.69,5.91,5.91,0,0,0-1.39-.82c-10.25,6.87-12-.15-13.82-9-.5-.4-1-.8-1.44-1.22a10.9,10.9,0,0,1-1.23-1.31c.37.74.74,1.65,1.2,2.57.23.47.48.94.77,1.41.76,3.9.76,9.17,4.27,10.91s5.26-5.26,11.34-2.89c.33.25.66.51,1,.79,1,.82,1.9,1.69,2.84,2.57l1.25,1.17c2.9,3.64,2.9,8.9,9.92,8.9-8.78-5.26,0-8.78,1.75-14.05-1.75,3.51-5.26,8.79-3.5,12.29,1.75,1.76,5.26-1.75,7.59,2.09a9.39,9.39,0,0,1,1,1.56c-1.56,8.64,9,8.64,14.45,9.46l2.3.35c.66.15,1.31.28,2,.38h-1.83c-.55,0-1.11,0-1.87,0l2-.1a102.24,102.24,0,0,0,16.28-2.11c.69-.15,1.36-.3,1.91-.48,3.56-5.9,10.59-4.15,15.36-5.55.64-.33,1.25-.66,1.86-1a45.64,45.64,0,0,0,10.25-7.84c.45-.47.9-.95,1.37-1.48,6.31-4.08,9.83-11.09,16.85-14.61-7,3.52-12.29,8.79-17.33,14.23-.52.56-1,1.06-1.52,1.56a52.4,52.4,0,0,1-7.58,6c-.6.4-1.2.77-1.81,1.14-8.62,1.6-17.4,6.86-28.29,7.73-.69,0-1.38-.06-2.07-.11s-1.38-.11-2.06-.19c-9.55,1.19-20.08,2.94-20.57-9a12.77,12.77,0,0,0-1.71-1.36,11.22,11.22,0,0,1,1.58,1.31c.62,13.76,11.15,8.49,19.28,8.47.42,0,.81,0,1.17,0s.7,0,1,.05c.65,0,1.31,0,2,0,10.51,1.67,15.77-8.86,26.28-7a18,18,0,0,0,1.92-1.14,45.78,45.78,0,0,0,7.49-6.51c.48-.53,1-1.06,1.48-1.66,6.69-10.1,19-13.62,31.26-18.88-5.26-3.51-12.29,1.75-17.55,0,1.75-3.51,8.78,1.75,8.78-5.26,0,0-1.76,0-2-.87.41-.4.8-.8,1.19-1.22q1.17-1.25,2.22-2.58c.4-.49.78-1,1.16-1.51,6.2-6.11,9.71-16.64,18.48-21.91-8.77,3.51-12.28,12.28-20.12,18.22-.49.29-1,.57-1.51.84a33.6,33.6,0,0,1-4.69,2c-1.76,0-1.76-1.77-1.45-2.85a9.17,9.17,0,0,1,1.15-1.48c1.72-1.84,3.54-3.54,4.94-5.36.35-.46.67-.92,1-1.4,1.41.55,1.41-1.2,1.23-3a7.72,7.72,0,0,0,.18-1.68c0-1.76-7,3.51-11.29-.74-.15-.55-.24-1.14-.35-1.73a102.63,102.63,0,0,0-4.91-17c-.82-2.21-1.67-4.4-2.53-6.58-3.25-9.67-8.39-18.5-10.6-28.8-.74,3,2.21,3.69,2.94,5.89,1.93-6.89.76-15.24-2-22.24a39.25,39.25,0,0,0-3.24-6.45c-3.58-3.67-4.32-11-9.47-10.29-11.77,2.94-9.57,22.06-6.6,32,1,2.63,2.05,5.26,3.17,7.91,3.36,7.93,7,16.1,8.7,23.69.63,2,1.25,3.92,1.9,5.86,1.84,5.7,3.86,11.4,5.33,17.29.59,4.12,1.65,8.7,1,13.13a15.05,15.05,0,0,1-.33,1.65c-8.6,3.94-8.6,9.21-5.52,17.61-.22.47-.44.94-.67,1.4-.69,1.41-1.43,2.8-2.24,4.17a42,42,0,0,1-3.81,4.78,44.65,44.65,0,0,1-4.63,4.33,49.46,49.46,0,0,1-5.12,3.61c-.46.2-.87.37-1.37.56-9.82.83-16.83,9.6-27.36,7.85-1.76,0,3.5-3.51-.63-5.58a11.14,11.14,0,0,1-1.27-1.06,9.16,9.16,0,0,1-1-1.18,7.17,7.17,0,0,1-.75-1.27,12.8,12.8,0,0,1,1-4.9c.23-.33.48-.64.74-1a23.47,23.47,0,0,1,2.71-2.77c6.58-3.86,16.88-14.16,11-18.57-7.36-5.89-9.57,9.56-13.51,15-.53,1.28-1.07,2.49-1.63,3.58-.19.36-.39.71-.61,1.05-4.82.88-6.58,6.13-10.08,9.65,0,1.75,5.26,0,5.92,3.76.31.41.63.85,1,1.26a9.57,9.57,0,0,1,1.09,1.49c.8,11,13.08,7.53,18.52,6.66.44,0,.84,0,1.27,0,1.68.18,3.37.29,5.05.31h2c9.05-1.2,14.32-6.46,22.68-6.39a13.48,13.48,0,0,0,1.44-.54,55.9,55.9,0,0,0,10.66-8.26c.51-.5,1-1,1.54-1.56,7.83-10.77,21.88-14.29,28.9-23.06-3.52,0-7,1.75-9.85-1.51a11.15,11.15,0,0,1,1-1.16c1.14-1.21,2.26-2.45,3.29-3.78.37-.49.74-1,1.1-1.52,4.44-7.83,11.46-13.09,15-21.87-5.27,7-12.29,10.53-17.67,16.83a6.12,6.12,0,0,1-1.57.56,9.41,9.41,0,0,1-1.82.16,14.16,14.16,0,0,1,1-1.31c.35-.42.73-.82,1.11-1.21,4.9-4.5,8.42-8,13.68-13.27-1.75,0-1.75,0-1.75,1.75,1.75-5.27,7-7,6.65-11.59a16,16,0,0,0,.44-1.84,11.24,11.24,0,0,0-.07-4.12c-5.27,5.26-7,15.8-18.4,13a13.75,13.75,0,0,1-.06-1.71c0-1.17,0-2.33-.08-3.49.06,1.17.09,2.34.11,3.52a12.14,12.14,0,0,0,.1,1.72,3.81,3.81,0,0,0,2.81,2.53,10.24,10.24,0,0,1,2-.72,23.88,23.88,0,0,0,3.74-1.52,18.6,18.6,0,0,0,3.06-2,11.46,11.46,0,0,0,4.26-5,22.21,22.21,0,0,0,1.42-3,33.77,33.77,0,0,0,1-3.36,14.64,14.64,0,0,1-.54,4,16.45,16.45,0,0,1-.62,1.75c1.16,4.79-4.11,4.79-5.24,7.55-.48.56-.92,1.08-1.34,1.6a13.37,13.37,0,0,0-1,1.38c-1.76,6.55-8.78,8.3-10.53,13.57,8.77-3.52,12.28-12.29,21-15.8-7,5.27-10.53,14-16.22,21.71-.38.55-.79,1.08-1.21,1.6-1.11,1.34-2.33,2.62-3.58,3.9a6.29,6.29,0,0,0-.67,1.13c2.07,2.5,4.42,2.44,6.68,2,1.15-.24,2.26-.57,3.31-.74a23.88,23.88,0,0,0,4.67.27c-1.75-1.75-3.51,3.51-5,2.11l-1.63,1.05c-9.31,6-19.36,12.42-27.18,21.2-.45.47-.89.93-1.36,1.38a58.18,58.18,0,0,1-7.37,6.22c-.56.39-1.12.77-1.69,1.14-4.95,3.76-12,2-17,7-.69.14-1.39.26-2.09.37.68-.13,1.36-.26,2-.41,5.11-5,12.13-5,16.69-7.11.56-.37,1.12-.75,1.67-1.14a58.32,58.32,0,0,0,7.32-6.1c.45-.44.91-.9,1.35-1.36,7.12-9.27,17.79-14.47,27.53-21.81,1.08-.81,2.15-1.66,3.29-2.54a21.65,21.65,0,0,0-2.73.24c-2.67.37-5.45.86-8.69-1.12-.21-.31.08-.74.42-1.19,1-1.36,1.94-2.77,2.83-4.2l1-1.65c5.31-9.63,14.09-14.89,17.59-23.67-8.77,5.27-12.28,12.29-19.88,19.07a2.74,2.74,0,0,1-1-.23,6,6,0,0,1-1.09-.66c.29-.5.63-1,1-1.53,3.41-6.11,8.67-7.87,12.18-13.13,0,0-1.76,10.52-1.76,0l7-7a51.61,51.61,0,0,1-5.09,4.66c-.55.46-1.06.89-1.54,1.35a8.67,8.67,0,0,0-1.18,1.37c.78,6.66-6.23,6.66-8.47,12.31-.45.51-.87,1-1.27,1.37a3.9,3.9,0,0,0,1.78.2c8.74-2,10.5-14.24,19.27-16-5.26,7-12.28,14-15.92,20.45-.37.54-.75,1.06-1.14,1.55-1.42,1.69-3,3.28-4.68,4.88a6.43,6.43,0,0,0-1,1.15c3.47.06,5.23,3.56,8.73,1.81-5.26,10.53-19.31,12.29-26.41,23.55-.5.56-1,1.09-1.49,1.61a44.79,44.79,0,0,1-7.78,6.51c-.54.37-1.09.71-1.65,1-4.79,4.15-11.81.64-17.11,6.38-.5.17-1.17.33-1.84.48a48.43,48.43,0,0,1-14.05,1c-.65-.06-1.31-.14-2.08-.17-8.33,0-15.35,0-16.37-9.47-.3-.54-.63-1-.91-1.56-3.33-4.8.18-10.08,1-14.53a13.77,13.77,0,0,0,.21-1.57,16.24,16.24,0,0,0-.36-4.76,15.94,15.94,0,0,0-2.52-5.75,11,11,0,0,0-4.48-3.78,9.12,9.12,0,0,0-6-.46c-6.62.73-2.94,8.83.3,13l.76,1c.25.35.49.71.72,1.09.06,2.13.06,5.64.06,7.4,0-1.76,0-5.27-.19-6.72q-.3-.5-.6-1l-.62-1c-2.64-5.06-7.05-12.42-1.16-16.83a8.94,8.94,0,0,1,6.44-.75c5.32,2.22,8.27,8.1,8.47,13.6a18.37,18.37,0,0,1-.46,5.19,10.31,10.31,0,0,1-.34,1.24,11.82,11.82,0,0,1-.49,1.24c-.52,5-9.29,6.7-3.71,14.11,0,.57.06,1.18.11,1.78s.11,1.22.2,1.83a35.79,35.79,0,0,0,.74,3.71,27.37,27.37,0,0,1-2.75-2.23c-.44-.42-.86-.84-1.28-1.27a103.8,103.8,0,0,1-11-11.83,13.44,13.44,0,0,0-1.52-.89,14,14,0,0,0-5.44-1.46c1.32.44,2.57.93,3.79,1.47.61.26,1.21.55,1.79.84,4.52,4.16,8,7.67,13.76,10.42.46.46.91.93,1.35,1.42s.88,1,1.3,1.48c-1.36,1.37,3.9,3.12,2.29,4.79"/><path class="cls-2" d="M0,170.73V64.32H72.55V72.9H10.63v38.42H66.92v8.57H10.63v50.84Z"/><path class="cls-2" d="M92.1,64.32h10.63v63.41q0,19.8,7.82,28.52T135.72,165a45.4,45.4,0,0,0,15.4-2.29,23.43,23.43,0,0,0,10.24-7,28.17,28.17,0,0,0,5.63-11.6,68.69,68.69,0,0,0,1.72-16.4V64.32h10.64v66.36q0,20.83-10.87,31.85t-32.76,11q-22.05,0-32.83-11.23T92.1,130.68Z"/><path class="cls-2" d="M219.22,122.4v48.33l-10.64-.15V64.32h44.1q18.6,0,28.45,6.58T291,92.26q0,10-4.29,16t-14,10a17.61,17.61,0,0,1,7.82,4.73,20.82,20.82,0,0,1,4.22,7.09,34.19,34.19,0,0,1,1.8,8.42q.39,4.44.55,8.58.15,6.06.54,10a57,57,0,0,0,.94,6.51,14.81,14.81,0,0,0,1.33,3.91,6.05,6.05,0,0,0,1.88,2.15v.88l-11.73.15a18.68,18.68,0,0,1-2.42-7.39q-.71-4.72-1.1-9.9t-.62-10.05a56.68,56.68,0,0,0-.86-8,16.28,16.28,0,0,0-3.05-6.87,13.92,13.92,0,0,0-5.08-3.92,23,23,0,0,0-6.65-1.77,62.38,62.38,0,0,0-7.58-.45Zm33.14-8.57a48.58,48.58,0,0,0,11-1.18,25.59,25.59,0,0,0,8.83-3.77,18.92,18.92,0,0,0,5.94-6.57,19.72,19.72,0,0,0,2.19-9.61A19.06,19.06,0,0,0,278.09,83a16.64,16.64,0,0,0-6.1-6.06,26.86,26.86,0,0,0-8.76-3.11A57.81,57.81,0,0,0,253,72.9H219.22v40.93Z"/><path class="cls-2" d="M351.5,115.61l33.93-51.29h12.35l-40.81,60v46.4H346.34V125.07L306.15,64.32h12.2Z"/><path class="cls-2" d="M565.36,77.36q-1.38-5.73-5.15-8.17a17.87,17.87,0,0,0-9.83-2.43,15.81,15.81,0,0,0-7.4,1.62,14.62,14.62,0,0,0-5.11,4.37,18.85,18.85,0,0,0-3,6.33,29.21,29.21,0,0,0-1,7.58,33,33,0,0,0,.83,7.36,19,19,0,0,0,2.74,6.46,14.18,14.18,0,0,0,5.14,4.58,16.91,16.91,0,0,0,8.12,1.75,15.65,15.65,0,0,0,5.55-.94,13.85,13.85,0,0,0,4.39-2.59,15.4,15.4,0,0,0,3.17-3.89,19.27,19.27,0,0,0,1.94-4.93h4.69a27.15,27.15,0,0,1-2.31,6.14,17.58,17.58,0,0,1-4,5.09,18.59,18.59,0,0,1-6,3.46,24.43,24.43,0,0,1-8.29,1.28,21.16,21.16,0,0,1-9.37-1.91,17.46,17.46,0,0,1-6.37-5.14,20.9,20.9,0,0,1-3.59-7.52,35.52,35.52,0,0,1-1.13-9.08,31.09,31.09,0,0,1,1.69-10.92,19.39,19.39,0,0,1,4.65-7.33,17.72,17.72,0,0,1,7-4.11,28.6,28.6,0,0,1,8.77-1.28,24.46,24.46,0,0,1,6.77.9,17.11,17.11,0,0,1,5.55,2.72,15,15,0,0,1,4,4.46A18.21,18.21,0,0,1,570,77.36Z"/><path class="cls-2" d="M585.36,88.84v20.4l-4.49-.06V64.32h18.61q7.86,0,12,2.78t4.16,9a11.22,11.22,0,0,1-1.82,6.74,13.68,13.68,0,0,1-5.91,4.24,7.48,7.48,0,0,1,3.3,2,8.62,8.62,0,0,1,1.79,3,14.64,14.64,0,0,1,.75,3.55c.11,1.25.19,2.46.24,3.62,0,1.71.12,3.12.23,4.24a25.79,25.79,0,0,0,.39,2.75,6.27,6.27,0,0,0,.56,1.65,2.56,2.56,0,0,0,.8.91v.37l-5,.06a7.87,7.87,0,0,1-1-3.12c-.2-1.33-.35-2.72-.46-4.18s-.2-2.87-.26-4.24a23.14,23.14,0,0,0-.37-3.37,6.87,6.87,0,0,0-1.28-2.9,5.75,5.75,0,0,0-2.15-1.65,9.37,9.37,0,0,0-2.8-.75,25.87,25.87,0,0,0-3.21-.19Zm14-3.62a20.18,20.18,0,0,0,4.66-.5,10.85,10.85,0,0,0,3.73-1.59,7.92,7.92,0,0,0,2.5-2.77,8.31,8.31,0,0,0,.93-4.06,8,8,0,0,0-1-4.12,7.06,7.06,0,0,0-2.57-2.55,11.2,11.2,0,0,0-3.7-1.31,24.36,24.36,0,0,0-4.32-.38H585.36V85.22Z"/><path class="cls-2" d="M626.61,109.24V64.32h31.62v3.62H631.1V84.16h24.49v3.62H631.1v17.84h27.79v3.62Z"/><path class="cls-2" d="M664.24,109.24l18.68-44.92H688l18.22,44.92H701.6l-5.48-14.1H674.47l-5.61,14.1ZM676,91.52H694.6l-9.31-23.58Z"/><path class="cls-2" d="M710,64.32h34.59v3.62H729.52v41.3H725V67.94H710Z"/><path class="cls-2" d="M754.2,109.24V64.32h4.49v44.92Z"/><path class="cls-2" d="M768.46,64.32h4.69l14.32,39.93,14.26-39.93h4.68l-16.5,44.92H785Z"/><path class="cls-2" d="M814.6,109.24V64.32h31.62v3.62H819.09V84.16h24.49v3.62H819.09v17.84h27.79v3.62Z"/><path class="cls-2" d="M533.78,157.47a12.59,12.59,0,0,0,1.42,5.08,10,10,0,0,0,3,3.4,12,12,0,0,0,4.19,1.91,21.18,21.18,0,0,0,5.08.59,17.83,17.83,0,0,0,5.48-.75,10.43,10.43,0,0,0,3.76-2,8,8,0,0,0,2.15-3,9.29,9.29,0,0,0,.69-3.56,6.78,6.78,0,0,0-1.25-4.24,9.67,9.67,0,0,0-3.27-2.65,20.18,20.18,0,0,0-4.62-1.65c-1.74-.42-3.52-.82-5.35-1.22s-3.61-.86-5.35-1.4a17.3,17.3,0,0,1-4.62-2.19,10.11,10.11,0,0,1-4.52-9,10.34,10.34,0,0,1,1-4.49,11.17,11.17,0,0,1,3-3.87,15.12,15.12,0,0,1,5-2.68,22.31,22.31,0,0,1,7-1,21,21,0,0,1,7,1.06,14.11,14.11,0,0,1,5,2.9,11.94,11.94,0,0,1,3,4.27,13.61,13.61,0,0,1,1,5.18h-4.29a9.61,9.61,0,0,0-1-4.43,8.32,8.32,0,0,0-2.6-3.06A11.33,11.33,0,0,0,551,129a16.58,16.58,0,0,0-4.35-.56,16.2,16.2,0,0,0-5.78.9,10.19,10.19,0,0,0-3.73,2.34,7.86,7.86,0,0,0-1.91,3.18,7.31,7.31,0,0,0-.2,3.5,6,6,0,0,0,1.85,3.49,11.77,11.77,0,0,0,3.56,2.15,27.78,27.78,0,0,0,4.66,1.37c1.69.36,3.42.73,5.18,1.13s3.46.86,5.11,1.4a15.83,15.83,0,0,1,4.39,2.19,10.06,10.06,0,0,1,3.07,3.52,12.73,12.73,0,0,1-3.4,15.07q-4.55,3.42-12.8,3.43a24.7,24.7,0,0,1-6.87-.91,15.3,15.3,0,0,1-5.47-2.74,12.66,12.66,0,0,1-3.6-4.56,14.75,14.75,0,0,1-1.29-6.39Z"/><path class="cls-2" d="M573.91,170.88V126h31.61v3.62H578.4V145.8h24.48v3.62H578.4v17.84h27.79v3.62Z"/><path class="cls-2" d="M620.31,150.48v20.4l-4.49-.06V126h18.62q7.84,0,12,2.78t4.16,9a11.22,11.22,0,0,1-1.82,6.74,13.68,13.68,0,0,1-5.91,4.24,7.48,7.48,0,0,1,3.3,2,8.62,8.62,0,0,1,1.79,3,14.65,14.65,0,0,1,.76,3.55c.11,1.25.18,2.46.23,3.62,0,1.71.12,3.12.23,4.24a25.79,25.79,0,0,0,.39,2.75,6.27,6.27,0,0,0,.56,1.65,2.56,2.56,0,0,0,.8.91v.37l-5,.06a7.87,7.87,0,0,1-1-3.12c-.19-1.33-.35-2.72-.46-4.18s-.2-2.87-.26-4.24a24.84,24.84,0,0,0-.36-3.37,7,7,0,0,0-1.29-2.9,5.75,5.75,0,0,0-2.15-1.65,9.29,9.29,0,0,0-2.8-.75,25.83,25.83,0,0,0-3.2-.19Zm14-3.62a20.12,20.12,0,0,0,4.66-.5,10.77,10.77,0,0,0,3.73-1.59A8,8,0,0,0,645.2,142a8.43,8.43,0,0,0,.92-4.06,8,8,0,0,0-1-4.12,7,7,0,0,0-2.57-2.55,11.2,11.2,0,0,0-3.7-1.31,24.28,24.28,0,0,0-4.32-.38H620.31v17.28Z"/><path class="cls-2" d="M657.41,126h4.68l14.32,39.93L690.67,126h4.69l-16.5,44.92h-5Z"/><path class="cls-2" d="M705.13,170.88V126h4.49v44.92Z"/><path class="cls-2" d="M757.27,139q-1.38-5.73-5.15-8.17t-9.83-2.43A15.74,15.74,0,0,0,734.9,130a14.66,14.66,0,0,0-5.12,4.37,18.85,18.85,0,0,0-3,6.33,29.21,29.21,0,0,0-1,7.58,33,33,0,0,0,.83,7.36,19,19,0,0,0,2.74,6.46,14.13,14.13,0,0,0,5.15,4.58,16.86,16.86,0,0,0,8.12,1.75,15.6,15.6,0,0,0,5.54-.94,13.85,13.85,0,0,0,4.39-2.59,15.4,15.4,0,0,0,3.17-3.89,18.91,18.91,0,0,0,1.94-4.93h4.69a27.15,27.15,0,0,1-2.31,6.14,17.58,17.58,0,0,1-4,5.09,18.59,18.59,0,0,1-6,3.46,24.33,24.33,0,0,1-8.28,1.28,21.17,21.17,0,0,1-9.38-1.91,17.54,17.54,0,0,1-6.37-5.14,21.06,21.06,0,0,1-3.59-7.52,35.52,35.52,0,0,1-1.13-9.08,31.32,31.32,0,0,1,1.69-10.92,19.39,19.39,0,0,1,4.65-7.33,17.72,17.72,0,0,1,7-4.11,28.62,28.62,0,0,1,8.78-1.28,24.39,24.39,0,0,1,6.76.9,17.11,17.11,0,0,1,5.55,2.72,15,15,0,0,1,4,4.46,18,18,0,0,1,2.14,6.14Z"/><path class="cls-2" d="M772.85,170.88V126h31.62v3.62H777.34V145.8h24.49v3.62H777.34v17.84h27.79v3.62Z"/><path class="cls-2" d="M816.68,157.47a12.59,12.59,0,0,0,1.42,5.08,10,10,0,0,0,3,3.4,12,12,0,0,0,4.19,1.91,21.18,21.18,0,0,0,5.08.59,17.83,17.83,0,0,0,5.48-.75,10.43,10.43,0,0,0,3.76-2,8,8,0,0,0,2.15-3,9.29,9.29,0,0,0,.69-3.56,6.72,6.72,0,0,0-1.26-4.24,9.53,9.53,0,0,0-3.26-2.65,20.53,20.53,0,0,0-4.62-1.65c-1.74-.42-3.52-.82-5.35-1.22s-3.61-.86-5.35-1.4A17.3,17.3,0,0,1,818,145.8a10.11,10.11,0,0,1-4.52-9,10.34,10.34,0,0,1,1-4.49,11.17,11.17,0,0,1,3-3.87,15.12,15.12,0,0,1,5-2.68,22.27,22.27,0,0,1,7-1,21,21,0,0,1,7,1.06,14.11,14.11,0,0,1,5,2.9,11.94,11.94,0,0,1,3,4.27,13.61,13.61,0,0,1,1,5.18h-4.29a9.61,9.61,0,0,0-1-4.43,8.32,8.32,0,0,0-2.6-3.06A11.33,11.33,0,0,0,833.9,129a16.58,16.58,0,0,0-4.35-.56,16.2,16.2,0,0,0-5.78.9,10.19,10.19,0,0,0-3.73,2.34,7.86,7.86,0,0,0-1.91,3.18,7.31,7.31,0,0,0-.2,3.5,6,6,0,0,0,1.85,3.49,11.77,11.77,0,0,0,3.56,2.15,27.78,27.78,0,0,0,4.66,1.37c1.69.36,3.42.73,5.18,1.13s3.46.86,5.11,1.4a15.83,15.83,0,0,1,4.39,2.19,10.06,10.06,0,0,1,3.07,3.52,12.73,12.73,0,0,1-3.4,15.07q-4.54,3.42-12.8,3.43a24.7,24.7,0,0,1-6.87-.91,15.43,15.43,0,0,1-5.48-2.74,12.74,12.74,0,0,1-3.59-4.56,14.75,14.75,0,0,1-1.29-6.39Z"/></g></g></svg>